<svg id="POWER_GLOVE" data-name="POWER GLOVE" xmlns="http://www.w3.org/2000/svg" viewBox="0 0 502.67 336.67"><defs><style>.cls-1{fill:#fff;}</style></defs><title>PowerGlove_Logo_WHITE</title><path class="cls-1" d="M565,307.12a58.52,58.52,0,0,1-8.6-7.16c-.31-.42-.65-.9-1.31-.9a2.79,2.79,0,0,0-1,.23c-.26.1-.51.22-.77.34a.64.64,0,0,1-.3.09s-.2,0-.45-.26a20.78,20.78,0,0,0-5.19-3.81,7.24,7.24,0,0,1-1.31-.86c-1.11-.94-2.2-1.89-3.29-2.84l-1.92-1.67a2.3,2.3,0,0,0-.82-.54,13.17,13.17,0,0,1-3-1.39,3.09,3.09,0,0,0-.29-.17l-.25-.16a44.31,44.31,0,0,0-8.69-4.83c-1-.48-2.08-1-3.1-1.47s-2.06-1.1-3.05-1.67c-.45-.27-.91-.53-1.37-.79l-.18-.1a2.61,2.61,0,0,0-.28-.17l-2.24-1.16c-1.7-.87-3.45-1.78-5.13-2.72a28.39,28.39,0,0,1-2.68-1.79l-.89-.64a.2.2,0,0,1,0-.21.93.93,0,0,0-.45-1.29A4.73,4.73,0,0,0,508,271a3.81,3.81,0,0,1-.7-.42,7,7,0,0,0-3.54-1.19l-.31,0a14.7,14.7,0,0,0-3-1.37,8.22,8.22,0,0,1-2-1c-.35-.23-.7-.46-1.07-.66a5.08,5.08,0,0,0-.82-.36l-.42-.16c-.25-.11-.52-.2-.79-.3a4.19,4.19,0,0,1-1.39-.67,10.23,10.23,0,0,0-4.07-2.07l-.53-.18c-.45-.15-.92-.26-1.39-.38a7.2,7.2,0,0,1-2.51-.95,6.61,6.61,0,0,0-3.92-1.58h-.18a2.06,2.06,0,0,1-.69-.44l-.39-.29a1.91,1.91,0,0,0-1.13-.42,1.74,1.74,0,0,0-.9.27l-.23.13,0,.73-.12-.15a2.52,2.52,0,0,0-.33-.39c-.18-.17-.35-.34-.52-.52a7.32,7.32,0,0,0-1-.91,1.9,1.9,0,0,0-1.06-.39c-.42,0-1,.2-1.25,1.14-.17.59-.32,1.19-.48,1.78-.1.43-.21.85-.33,1.27a1.56,1.56,0,0,1-.21.51,31.91,31.91,0,0,0-3.18,5.79c-.28.61-.57,1.22-.86,1.82a11,11,0,0,0-.57,1.57,6.65,6.65,0,0,1-1,2.18l-.25.33a4,4,0,0,1-.71.8A2.54,2.54,0,0,0,465,277a1.91,1.91,0,0,1-.55,1.65,2.72,2.72,0,0,0-.56,1.47,3.94,3.94,0,0,1-1.21,3,2,2,0,0,0-.67,1.41,2,2,0,0,1-.63,1.34l-1.31,1.42-.57.63a1.2,1.2,0,0,1-1,.38,6.4,6.4,0,0,1-.87-.08l-2.06-.35-1.36-.24-.48.78c-.22.36-.42.69-.65,1a2.43,2.43,0,0,1-.39.46,21.25,21.25,0,0,1-2.78.28h0c-.31,0-.53-.23-.85-.68a7.93,7.93,0,0,0-2.46-2.21l-.37-.23-1.22,1.11c-.22-.1-.35-.3-.42-.74a8.22,8.22,0,0,0-.52-1.68,10.18,10.18,0,0,1-.36-1,8.73,8.73,0,0,1-.38-5l0-.12a1.2,1.2,0,0,0,.11-.46c.07-1.27.14-2.54.2-3.87l.09-1.73-3.63.34-.14.24-.1.16a1.06,1.06,0,0,0-.18.37c-.29,1.18-.51,1.38-1.81,1.59a1.08,1.08,0,0,0-.6.14,7.85,7.85,0,0,1-2.09.76,11.23,11.23,0,0,0-1.89.61l-.17.09-.2.1a2.51,2.51,0,0,0-.86-.15,4.6,4.6,0,0,0-1.43.3l-.52.16a1.27,1.27,0,0,1-.32,0,1.32,1.32,0,0,1-.85-.38,1.55,1.55,0,0,0-1-.41,1.11,1.11,0,0,0-1.09,1c-.12.53-.46,1.23-2,1.23h-.23a10.46,10.46,0,0,0-3.29.67l-.74.23c-1.06.32-2.17.53-3.23.75l-1,.19a5.56,5.56,0,0,0-2.15.8,3.33,3.33,0,0,1-1.88.69,3.28,3.28,0,0,1-.43,0,1.87,1.87,0,0,0-.34,0,1.21,1.21,0,0,0-.48.08l-1.69.61c-.7.26-1.41.53-2.11.77l-.21.08a9,9,0,0,1-1.68.47,5.4,5.4,0,0,0-3,1,3.51,3.51,0,0,1-2.29.52h-.21A4.08,4.08,0,0,0,398,287a1.3,1.3,0,0,1-.53.09l-.45,0a2.69,2.69,0,0,0-2.22,1.08,4,4,0,0,1-1,.75,3.64,3.64,0,0,0-1.59,1.5l-.69.33c-.77.36-1.54.73-2.31,1.08a1.15,1.15,0,0,1-.36.09,2.93,2.93,0,0,0-.88-.13,5,5,0,0,0-2,.57,4.22,4.22,0,0,1-1.38.3,5.52,5.52,0,0,0-3.86,1.74.74.74,0,0,1-.41.21,2.73,2.73,0,0,0-.41,0,2.62,2.62,0,0,0-2.2,1.29,4.18,4.18,0,0,1-1.82,1.33.64.64,0,0,1-.24.05,2.7,2.7,0,0,1-.8-.22,4.72,4.72,0,0,0-1.08-.31,6,6,0,0,0-.81-.05c-1.4,0-2,.62-2.83,1.57l-.31.34h-.93a4.39,4.39,0,0,1-2.72-.6,6.87,6.87,0,0,0-1.59-.87,1.93,1.93,0,0,1-1.32-1.65,24.53,24.53,0,0,1-.18-7,1.67,1.67,0,0,0-.3-1.23,1.61,1.61,0,0,1-.27-.63l0-.2a1.84,1.84,0,0,1-.07-.81,5.47,5.47,0,0,0,.12-3.17l-.08-.51a2.37,2.37,0,0,0-.16-.53,1.15,1.15,0,0,1-.11-.31,1.09,1.09,0,0,1,.06-.84,1.2,1.2,0,0,1,.76-.31,2,2,0,0,0,1.86-1.78,3.23,3.23,0,0,1,.4-1,1.47,1.47,0,0,0,.09-1.22c-.15-.44,0-.74.43-1.06a16.93,16.93,0,0,1,1.69-1.06,3.74,3.74,0,0,0,1.76-1.84,34,34,0,0,1,1.72-3.2l.2-.35a1.84,1.84,0,0,1,.61-.6,3.27,3.27,0,0,0,1.65-2.46,7,7,0,0,1,1.58-3.79,2.8,2.8,0,0,0,.7-1.32,3.13,3.13,0,0,1,1.11-2,11,11,0,0,0,1.27-2c.52-.88,1.31-2.19,1.49-2.39a5.64,5.64,0,0,0,1-2c.13-.35.3-.81.38-1a6.41,6.41,0,0,0,2.51-4.47,2.74,2.74,0,0,1,.51-1.21,2.1,2.1,0,0,0,.53-1.93,1.51,1.51,0,0,1,.39-1.29,2.19,2.19,0,0,1,1.53-.73,1.82,1.82,0,0,0,1.49-.54,1.42,1.42,0,0,0-.06-1.41A7.16,7.16,0,0,0,387,238l-.25-.35c-.19-.27-.25-.44-.19-.6l1,.42.26-.24a5.74,5.74,0,0,0,1.83-2.48,4.5,4.5,0,0,1,.94-1.62,9.13,9.13,0,0,0,2.17-4.49,7.79,7.79,0,0,1,1.14-2.75,9.71,9.71,0,0,0,1.27-2.81,5.32,5.32,0,0,1,1.59-2.82,3.3,3.3,0,0,0,.8-1.05c.26-.44.46-.8.66-1.17s.51-.92.78-1.36a2.48,2.48,0,0,1,.65-.65c1.34-1,1.69-2,1.13-3.43a1.55,1.55,0,0,1,.19-1.54,17.62,17.62,0,0,0,1.38-3.36c.19-.6.31-.92.68-1.15a1.56,1.56,0,0,0,.85-.92,13,13,0,0,1,.42-1.35,6.92,6.92,0,0,0,.56-2.47,5.61,5.61,0,0,1,.28-1.76c.41-1.26.89-2.49,1.35-3.64a4.53,4.53,0,0,1,.62-1,2.49,2.49,0,0,0,.7-1.88A.74.74,0,0,1,408,193a3.51,3.51,0,0,0,1.32-2.43,3.08,3.08,0,0,1,.28-.92c.16-.35.34-.69.51-1a13.61,13.61,0,0,0,.92-2,10.92,10.92,0,0,1,1.35-2.6c.25-.4.5-.8.74-1.22.51-.91.94-1.88,1.36-2.8.16-.37.33-.73.5-1.09a2.7,2.7,0,0,0,.14-.4,1.45,1.45,0,0,1,.11-.29c.18-.37.38-.75.57-1.12A23.7,23.7,0,0,0,417,174.6a2.41,2.41,0,0,1,2.17-1.51,11,11,0,0,0,2.22-.61,4.51,4.51,0,0,1,1.54-.3,3,3,0,0,1,1.36.31,7.83,7.83,0,0,0,2.16.68,5.46,5.46,0,0,0,.79.06,3.11,3.11,0,0,0,2.56-1.15l.26,0a9.22,9.22,0,0,1,1.11.17c.39.08.92.31,1.13,1.29a3.3,3.3,0,0,0,1.36,1.84c1.27,1.06,2.55,2.4,2.51,4.33a15.19,15.19,0,0,0,.18,2.14l.06.42a1.3,1.3,0,0,0,1.29,1.11,1.45,1.45,0,0,0,.75-.22,5.12,5.12,0,0,1,2.18-.58l.78-.1a9.33,9.33,0,0,0,1.45-.38c.32-.1.65-.2,1-.28a8.34,8.34,0,0,1,1.27-.15l.34,0H446a1.8,1.8,0,0,0,.59-.09,3.87,3.87,0,0,1,1.41-.36,1.93,1.93,0,0,1,.62.11l.09,0,.21,0a2,2,0,0,0,.9-.28,5.2,5.2,0,0,1,2.48-.53c.36,0,.73,0,1.09.05l.51,0a8.76,8.76,0,0,0,1,.08,2.82,2.82,0,0,0,1.77-.54s0,0,.07,0h.33l.51,0a4.91,4.91,0,0,0,1.3-.18,4.94,4.94,0,0,1,1.45-.21,10.91,10.91,0,0,1,3.14.62c.6.18.69.32.7.35s0,.21-.33.76a2.21,2.21,0,0,0-.31,2.64,2.33,2.33,0,0,0,2.07,1.29,2.63,2.63,0,0,0,.47,0l.33,0a7.34,7.34,0,0,1,1.46.21c.26.05.51.11.77.15,1.14.18,2.32.37,3.49.62a2.46,2.46,0,0,1,1.66,1.06,3,3,0,0,0,2.38,1.38,1.72,1.72,0,0,1,1.6.86.91.91,0,0,0,.44.37l.19.1.48.28.28-.45a6.6,6.6,0,0,0,.87-5.37,2.8,2.8,0,0,1,.4-2.41,7.93,7.93,0,0,0,1-2.67,2.51,2.51,0,0,1,.86-1.4.89.89,0,0,1,.62-.3l.19,0,1,.21c.43.08.86.16,1.29.27a4.11,4.11,0,0,0,.85.1,3.59,3.59,0,0,0,3.1-1.81,23.9,23.9,0,0,0,1.53-3l.07-.15c.2-.48.24-.57.62-.78a5,5,0,0,0,2.78.75,8.88,8.88,0,0,0,1.47-.13,3.25,3.25,0,0,1,.67-.07,1.26,1.26,0,0,1,1.06.47,1.81,1.81,0,0,0,1.25.59H499l.34,0a3.43,3.43,0,0,1,2.3,1.23,2.74,2.74,0,0,0,1.95,1l.34,0a4.59,4.59,0,0,0,1.6.31,4,4,0,0,0,2.76-1.18l.4.53c.49.65,1,1.31,1.45,2s.86,1.37,1.29,2.1l.79,1.33.37,0a1.67,1.67,0,0,1,.31,0,2.92,2.92,0,0,1,2.15,1.28,1.94,1.94,0,0,0,1.25.66,2.64,2.64,0,0,1,.42,0,4.92,4.92,0,0,1,1.68.41,6.49,6.49,0,0,0,1.88.49,10,10,0,0,1,2.29.54c.48.15,1,.3,1.45.41.85.2,1.71.38,2.57.56,1.17.24,2.34.49,3.5.78a10.63,10.63,0,0,1,1.67.62c.36.15.72.31,1.09.44s.87.28,1.32.41l.89.25c.22.07.45.13.67.21l1,.33c1.08.37,2.16.73,3.23,1.12l.12.05c2,.73,3.89,1.42,5.15,3a10.53,10.53,0,0,0,4.28,3.05,5.93,5.93,0,0,0,2.32.46,6.8,6.8,0,0,0,1.56-.19,3.86,3.86,0,0,1,.63-.12,3,3,0,0,0,.09.52,1.93,1.93,0,0,0,1.21,1.45l.18.08a18.41,18.41,0,0,1,3.59,1.95,5.21,5.21,0,0,0,1.72.78,1.45,1.45,0,0,1,1.13.94,6,6,0,0,0,2.35,3,2.1,2.1,0,0,1,.91,2.24,2.16,2.16,0,0,0,1.1,2.47c.42.24.47.64.42,1.29v.17a2.74,2.74,0,0,0,.33,1.89.89.89,0,0,1,0,.19l-.33,1c-.47,1.49-1,3-1.53,4.53a2.63,2.63,0,0,1-1,1.19c-2.28,1.52-4.6,3-7.17,4.58a1.14,1.14,0,0,1-.54.14l-.48,0a1.84,1.84,0,0,0-1.62.8,2.4,2.4,0,0,1-1.72.76l-1.35.25-1.63.29c-.61.1-1.21.2-1.79.24-1.61.11-2.38.84-2.33,2.23a9.33,9.33,0,0,0,.35,2l.06.26c.12.47,0,.62,0,.66a.67.67,0,0,1-.44.14,8.12,8.12,0,0,0-2.9.94c-.39.18-.78.36-1.19.51s-.82.35-1.22.54a5.72,5.72,0,0,1-2.51.78,4.5,4.5,0,0,0-1.62.45c-.18.08-.37.16-.55.22-.41.14-.8.3-1.2.45a13,13,0,0,1-2.93.9,1.91,1.91,0,0,0-.91.45l-.21.15a2.51,2.51,0,0,0-.32.25.83.83,0,0,1-.24.18,5.14,5.14,0,0,0-3.29,2.66,2.4,2.4,0,0,1-2,1.29,2.91,2.91,0,0,0-2.31,1.54c-.21.43-.47.57-1.1.63a7.42,7.42,0,0,0-4.68,2.07,2,2,0,0,0-.69,1.64,2.07,2.07,0,0,0,1.05,1.46c.24.15.49.28.75.41s.43.22.63.35a19.49,19.49,0,0,1,2.18,2.08,8.55,8.55,0,0,0,2.65,2.29l.15.1a12.85,12.85,0,0,1,1.77,1.27,16.13,16.13,0,0,0,4,2.6,8.32,8.32,0,0,1,1.68,1.14,6.34,6.34,0,0,0,2.06,1.21,8.63,8.63,0,0,1,2.08,1l1,.67a12.49,12.49,0,0,1,2.57,2,2.37,2.37,0,0,0,1,.59l.22.1a2,2,0,0,0,.78.24h.26l.19-.19a3.25,3.25,0,0,0,.63.07,1.32,1.32,0,0,0,.3,0l.09.07a.78.78,0,0,1,.26.44,1.08,1.08,0,0,0,.39.61l.41.25a6.6,6.6,0,0,1,2.45,2,2.54,2.54,0,0,0,1,1.1,5.31,5.31,0,0,1,.7.56c.48.38,1.77,2.73,1.65,3.27s.28.9.66,1.3c.16.17.43.46.44.58a2.06,2.06,0,0,0,0,1,2,2,0,0,1,0,1.29c-.14.28-.08.62.2,1.13,1,1.76,5.5,6.72,7,7.52,0,.07,0,.17.06.25.14.68.43,2.1,2,2.15,1.11,0,2.17,1.88,2.36,2.4a7.61,7.61,0,0,0,.18,2.95,4.66,4.66,0,0,1,.16,1.47c-.19.54.25,1.35,1.32,3.07a10.19,10.19,0,0,1,1.1,2,3.45,3.45,0,0,0,0,1.58,5.29,5.29,0,0,1,0,1.49c-.72.52-.09,1.6.52,2.65C564.73,306.63,564.89,306.89,565,307.12ZM414.8,250.18a1.51,1.51,0,0,0-1.3.63c-.58.85-1.52.95-2.6,1a7.07,7.07,0,0,0-3.74,1.21c-.5.32-1,.68-1.44,1l-.65.5a1.78,1.78,0,0,0-.26.22,2.22,2.22,0,0,1-.22.18,5.28,5.28,0,0,0-2.22.71,6.94,6.94,0,0,1-1.06.46A3.43,3.43,0,0,0,399.2,258a3.21,3.21,0,0,0,.1,2.85,1.13,1.13,0,0,0,.66.62c.32.08.64.18,1,.28a8.61,8.61,0,0,0,2.61.54c1.4,0,2.78-.11,4.11-.2s2.85-.2,4.26-.2h.26c.65,0,1.22-.06,1.76-.11s1.07-.1,1.58-.1a5,5,0,0,1,1.62.23,1.23,1.23,0,0,0,.44.07,2.54,2.54,0,0,0,.71-.12,3.65,3.65,0,0,1,1.21-.19,9.52,9.52,0,0,1,1.77.22,4.71,4.71,0,0,0,.85.08,3.48,3.48,0,0,0,1.43-.28,3.6,3.6,0,0,1,1.53-.33,7.17,7.17,0,0,1,1.95.33,5.11,5.11,0,0,0,1.35.18l.67,0c.72-.07,1.49-.13,2.25-.13a9.39,9.39,0,0,1,1.19.06c.23,0,.44,0,.63,0a3.27,3.27,0,0,0,1.39-.31,5.64,5.64,0,0,1,2.23-.62,2.61,2.61,0,0,1,1.46.45,2.43,2.43,0,0,0,1.34.42,2.61,2.61,0,0,0,1.26-.35,2.38,2.38,0,0,1,1.14-.36,1.72,1.72,0,0,1,.89.28,1.54,1.54,0,0,0,.83.27,1.47,1.47,0,0,0,1.24-.79c.27-.41.57-.82.86-1.22a2.9,2.9,0,0,0,.63-2.14,5.14,5.14,0,0,1,0-1.11c0-.29.08-.58.14-.88a7.08,7.08,0,0,0,.15-1.84,2.34,2.34,0,0,1,.74-1.87,1.9,1.9,0,0,0,.62-1.3,3.39,3.39,0,0,1,.4-1.76c.08-.2.16-.4.23-.6l.06-.17a3,3,0,0,0,.27-1.33c-.08-.85.24-1.26,1.19-1.51l.5-.13-.13-.47c-.27-.92.26-1.62.86-2.43a12.71,12.71,0,0,0,1.8-3.91l.19-.57a3.44,3.44,0,0,1,1.87-2.34l.57-.24.89-.36-.66-.89a1.51,1.51,0,0,0-.26-.32c-.61-.61-.61-.61-.07-1.18L456,232a3.07,3.07,0,0,0,.51-.51l.14-.19a2.17,2.17,0,0,0,.6-1.23,2.56,2.56,0,0,1,.78-1.88,2.36,2.36,0,0,0,.59-1.09,6.52,6.52,0,0,1,1.3-2.23c.18-.22.35-.44.51-.67.29-.4.61-.78.92-1.17s.53-.65.78-1a9.5,9.5,0,0,0,1.32-2.77,11.13,11.13,0,0,1,.85-2,1.34,1.34,0,0,0,.15-.54c0-.06,0-.11,0-.16a6.45,6.45,0,0,1,1.74-3.46,1.58,1.58,0,0,0,.42-.72,1.19,1.19,0,0,1,.08-.2c.08-.17.15-.35.22-.53a4.31,4.31,0,0,1,.45-.94,3.89,3.89,0,0,0,.56-2.66l0-.6-.65.06-.83.21a9.54,9.54,0,0,1-1.56.34c-.75.08-1.5.1-2.24.13-.58,0-1.16,0-1.73.08a9,9,0,0,0-2.23.36l-.61.21a13.54,13.54,0,0,1-4.31.95,7.22,7.22,0,0,1-.92-.06h-.18a2.68,2.68,0,0,0-.67.11,1.05,1.05,0,0,1-.24.06l-.62.12c-.49.09-1,.18-1.48.29-.29.07-.58.13-.88.18a9.48,9.48,0,0,0-2.41.67,10.57,10.57,0,0,1-2.57.9c-.6.12-1.19.26-1.78.4l-.45.11a9.28,9.28,0,0,1-2.18.36,3,3,0,0,1-2-.68l-.44-.35-.35.42-.18.19a1.28,1.28,0,0,0-.43.63c-.08.43-.35,1-1.77,1.28a3.44,3.44,0,0,0-2.27,1.07l-2.35.19-.24,0-.14,0a9.86,9.86,0,0,0-2-.18c-.62,0-1.23,0-1.84.08s-1.18.07-1.77.07h-.44A2.15,2.15,0,0,0,421,217l-.13.32a2.49,2.49,0,0,0,0,2.66,1.38,1.38,0,0,0,.68.5c.28.09.35.24.46.77l0,.14a2,2,0,0,1,0,1.36,1.55,1.55,0,0,0,0,1.18,4.85,4.85,0,0,0,4.87,3.18A8,8,0,0,0,428,227a6.18,6.18,0,0,1,.73,0,4.28,4.28,0,0,1,2.08.52,5.06,5.06,0,0,0,2.41.64,4,4,0,0,0,1.94-.49,2.92,2.92,0,0,1,1.41-.39,3.59,3.59,0,0,1,1.27.26,3.56,3.56,0,0,0,1.22.24,2.56,2.56,0,0,0,1.45-.45,1.64,1.64,0,0,1,.89-.32,1.73,1.73,0,0,1,.84.26,2.88,2.88,0,0,0,1.42.42,2.44,2.44,0,0,0,1.3-.4.62.62,0,0,1,.27,0,1.35,1.35,0,0,1,.46.07A9.66,9.66,0,0,1,447,228l.45.25a1.18,1.18,0,0,1,.63.94,4.78,4.78,0,0,1-.28,3.54,20.6,20.6,0,0,1-2.37,3.64l-.2.23a3.76,3.76,0,0,0-1.14,2.14.52.52,0,0,1-.18.28l-.67.52a18.07,18.07,0,0,1-2.29,1.6,7.1,7.1,0,0,1-3.45,1.13h0a1.59,1.59,0,0,0-1.18.53,1.33,1.33,0,0,1-1.13.54l-.34,0-.23,0a1.29,1.29,0,0,0-1.29.95c-.14.55-.5.81-1.43,1a3.18,3.18,0,0,0-.72.29l-.32.15-.33.13a7.73,7.73,0,0,1-1,.38l-.42.1a5.45,5.45,0,0,0-2.59,1.11,1.37,1.37,0,0,1-.71.31,4.22,4.22,0,0,0-3.75,2.62,1.61,1.61,0,0,1-1.58,1h-.22a4.91,4.91,0,0,1-1.55-.41l-.25-.11a2.91,2.91,0,0,0-1.28-.36,2.15,2.15,0,0,0-.61.09h0a2.39,2.39,0,0,1-.61-.13l-.16,0A3.07,3.07,0,0,0,414.8,250.18Zm74.58-24.62a2,2,0,0,0-1.18,1.84c0,.11,0,.23-.05.34a1.32,1.32,0,0,0,.26,1.21,1.24,1.24,0,0,0,.93.39,1.89,1.89,0,0,0,.89-.24,7.84,7.84,0,0,0,2.23-1.75,2,2,0,0,1,1.06-.72c.44-.11.87-.24,1.31-.37l1-.28,4.46-1.19a6.49,6.49,0,0,0,1,.1,7.32,7.32,0,0,0,2.36-.52,8.57,8.57,0,0,1,1-.31l.88-.24c.61-.17,1.23-.34,1.87-.46.34-.07.68-.17,1-.27a5.77,5.77,0,0,1,1.45-.3,9.34,9.34,0,0,0,3.83-1.16l.34-.16.95-.47a12.6,12.6,0,0,1,3-1.2,1.62,1.62,0,0,0,1.11-.66,1.37,1.37,0,0,0,.05-1.23,4.63,4.63,0,0,0-.45-.86c-.24-.38-.48-.76-.73-1.14-.5-.78-1-1.58-1.45-2.39a4.91,4.91,0,0,0-2-2.09,6.38,6.38,0,0,1-.63-.43,3.37,3.37,0,0,0-2.09-.87h-.17c-.35,0-.55-.09-.71-.58a1.64,1.64,0,0,0-1.77-1.28h-.26a3,3,0,0,0-1.4.36,2.22,2.22,0,0,1-1.13.33,3.22,3.22,0,0,1-1.35-.35,4.49,4.49,0,0,0-1.76-.33h0a12.39,12.39,0,0,0-1.29.08c-.33,0-.65.06-1,.07a2.74,2.74,0,0,0-2.71,1.86,15.35,15.35,0,0,1-3.06,4.72,1.94,1.94,0,0,0-.4.64l-.09.22-.25.47a9.41,9.41,0,0,1-.53,1c-.18.29-.39.56-.59.84a8.57,8.57,0,0,0-1.06,1.71A3.87,3.87,0,0,1,491,221.7c-.8.61-1.18,2.08-1.46,3.16C489.52,225.1,489.44,225.4,489.38,225.56Z" transform="translate(-64.33 -144.33)"/><path class="cls-1" d="M83.29,370.13c-.11-.07-.18-.2-.2-.49a4.22,4.22,0,0,0-.89-2.12,1.34,1.34,0,0,1-.3-.77c.15-.76.36-1.54.56-2.29.1-.36.2-.72.29-1.09,0-.1.07-.21.1-.32a1.86,1.86,0,0,0,.14-1.19,1.88,1.88,0,0,1,.31-1.61,3.27,3.27,0,0,0,.59-2.53.75.75,0,0,1,.1-.37c1-1.93,1.06-4,.1-6.64a3.41,3.41,0,0,1-.17-1.89,4.46,4.46,0,0,0-.23-2.13,2.08,2.08,0,0,0-2.09-1.4,3.42,3.42,0,0,0-.7.08h0c0-.14.08-.26.13-.39l.1-.28a6.81,6.81,0,0,0,.64-4.12.56.56,0,0,1,0-.23,5.88,5.88,0,0,0,.87-3.61c0-.31,0-.61,0-.92a3.9,3.9,0,0,1,.44-1.78,15.32,15.32,0,0,0,.78-1.71l.19-.48a1.25,1.25,0,0,0,.12-.91,2.34,2.34,0,0,1,.45-2,3.21,3.21,0,0,0,.31-1c0-.11.05-.22.07-.32l.3-1.17c.21-.86.42-1.73.69-2.58a3,3,0,0,0,.07-2.06,3.14,3.14,0,0,1,.28-2.69c.13-.24.25-.49.36-.74a5,5,0,0,1,1.11-1.76,1.3,1.3,0,0,0,.2-1.69.74.74,0,0,1,.18-1,1.87,1.87,0,0,0,.61-2.14c0-.16-.1-.33-.16-.5a3.06,3.06,0,0,1-.13-.43c-.16-.61-.16-.61.45-.93,1.33-.7,1.82-1.66,1.46-2.85a.82.82,0,0,1,0-.24,1.31,1.31,0,0,0-.14-.7c-.47-.78-.17-1.37.37-2.26.11-.18.22-.36.32-.55.19-.35.41-.7.63-1s.36-.56.53-.85a3.67,3.67,0,0,0,.6-2.72,3.24,3.24,0,0,1,1.15-2.8,2.16,2.16,0,0,0,.64-2.48.83.83,0,0,1,0-.51l.17-.5a5.5,5.5,0,0,1,.71-1.61,6,6,0,0,0,.93-2.18,2.66,2.66,0,0,1,.21-.66,3.83,3.83,0,0,1,.85-.12,1.2,1.2,0,0,0,1.25-1.17,5.94,5.94,0,0,0-.13-1.44c-.17-.71-.07-1,.42-1.22a1.25,1.25,0,0,0,.7-.73,1.3,1.3,0,0,0-.22-1.1c-.65-1-.32-2,.18-3.16a2.74,2.74,0,0,1,.29-.49l.32-.49-.17-.38a1.72,1.72,0,0,0-.21-.4c-.56-.77-.56-.77,0-1.45a1.44,1.44,0,0,0-.1-2.13c-.29-.32-.59-.63-.92-1l-.14-.13a5.07,5.07,0,0,1,.5-.45,5.09,5.09,0,0,0,1.61-2.51,1.88,1.88,0,0,0,0-1.08c-.11-.47-.25-.93-.4-1.43l-.32-1.05-.68.11a4.11,4.11,0,0,1-.55.07h-.27s0-.09.07-.18a3.93,3.93,0,0,1,.66-1.14,8.19,8.19,0,0,0,1.74-3.37c.1-.29.19-.59.3-.88l.09-.25a2.81,2.81,0,0,1,.5-1l.24.08a10.18,10.18,0,0,0,1.29.38,2.48,2.48,0,0,0,.45.05,1.22,1.22,0,0,0,1-.38,1.19,1.19,0,0,0,.21-1.11,12.46,12.46,0,0,0-.65-2.06,1.27,1.27,0,0,1,.54-1.76c2-1.07,2.29-2.84,2.51-4.4v-.06l.8-1c.35-.43.71-.85,1.07-1.28.65-.76,1.74-2,.42-3.54-.11-.14-.18-.33.12-.82a2.54,2.54,0,0,0,.44-2.5c0-.09.2-.25.31-.33,1-.81,1.13-1.05.86-2.09l-.06-.24a5.17,5.17,0,0,1,0-2,26.67,26.67,0,0,1,.76-3.63c.26-.91.63-1.83,1-2.71.14-.35.28-.69.41-1a12.73,12.73,0,0,1,2-3.7,1.87,1.87,0,0,0,.27-1.53,1.91,1.91,0,0,1,.22-1.44,8,8,0,0,0,.67-1.84l0-.24a3.29,3.29,0,0,1,.88-1.94,1.17,1.17,0,0,0,.36-.75c.13-1.53.24-3,.34-4.58a1.39,1.39,0,0,0-.16-.62,2.27,2.27,0,0,1-.15-.34l-.16-.44-1.38.34-1.76.42c-.43.1-.87.18-1.31.26l-1.13.23-.61.12c-.9.19-1.83.38-2.74.63a3.49,3.49,0,0,0-.88.38,3.72,3.72,0,0,1-.57.27c-1.24.4-2.49.77-3.74,1.15l-1.43.43-.18,0a2.31,2.31,0,0,0-.55.2,23.86,23.86,0,0,1-7.42,2.11,20.29,20.29,0,0,0-5.11,1.38,3.9,3.9,0,0,0-1.14.88,2.72,2.72,0,0,1-.42.37s-.07,0-.33-.18a4.38,4.38,0,0,0-2.33-.78,3.35,3.35,0,0,0-1.46.34.37.37,0,0,1-.15,0,3.52,3.52,0,0,0-1.23-.2,7.88,7.88,0,0,0-2.08.36,8.32,8.32,0,0,1-1.64.32,37,37,0,0,0-4,.45l-1.49.22H72.8a1.64,1.64,0,0,1-1-.46l-.22-.19a2.25,2.25,0,0,0-.91-.59,5.44,5.44,0,0,1-2.9-2.46l-.42-.57a6.46,6.46,0,0,1-.76-1.17,12.67,12.67,0,0,1-.84-2.44,4.47,4.47,0,0,0-1.15-2.43.84.84,0,0,1-.21-.62,7.59,7.59,0,0,1,.91-2.12,1.85,1.85,0,0,0,.1-2.22A3.32,3.32,0,0,1,65,203.3c.4-1.76.4-1.76,2.26-2.45a7,7,0,0,1,1.9-.39,4.88,4.88,0,0,0,2.62-.88A5.27,5.27,0,0,1,75,198.42a5.12,5.12,0,0,1,.67,0h.22a3,3,0,0,0,.7-.09l.28,0,2.23-.33h.2a1.08,1.08,0,0,0,.52-.12,5.44,5.44,0,0,1,2.2-.53A8.69,8.69,0,0,0,84,197a1.89,1.89,0,0,1,.6-.1,2.15,2.15,0,0,1,1.25.45,2.86,2.86,0,0,0,1.59.64,2,2,0,0,0,1.67-1.22,2,2,0,0,1,1.72-.95,4.08,4.08,0,0,0,2.87-1.07,2.64,2.64,0,0,1,1.1-.34l.95-.17a6.28,6.28,0,0,0,3.09-1.16,1.46,1.46,0,0,1,.37-.12l1.78-.38c1.2-.25,2.45-.52,3.66-.84.84-.22,1.65-.52,2.44-.81l1.44-.51.34-.11a11,11,0,0,1,2-.54,35.11,35.11,0,0,0,6.5-1.71A34,34,0,0,1,123,186.6a21.91,21.91,0,0,0,3.8-1.12l.22-.08a3.13,3.13,0,0,0,1.68-1.74c.1-.19.2-.38.31-.56a2.65,2.65,0,0,0,.52-2.74h0a.88.88,0,0,0,.08-.2c.58-1.75,1.15-3.45,1.72-5.15l0-.16a1.24,1.24,0,0,1,.16-.38,9.48,9.48,0,0,0,1.63-5.3c0-.36.07-.72.12-1.07a2.08,2.08,0,0,1,.26-.84,3.12,3.12,0,0,0,.55-2.43c-.06-.24-.05-.56.54-.81a1.51,1.51,0,0,0,.92-.86,1.29,1.29,0,0,0-.23-1.12.92.92,0,0,1,0-1l1.14-2.19a2.54,2.54,0,0,1,1.49-1.3,2.45,2.45,0,0,0,.91-.64l.31-.28a6.21,6.21,0,0,0,.92-.93,3.06,3.06,0,0,1,1.45-1.13,1.5,1.5,0,0,0,.88-.76c.2-.43.38-.87.57-1.31s.25-.64.39-1a3.36,3.36,0,0,1,.46-.83,4.39,4.39,0,0,0,1.36-2.37c0-.09,0-.2.31-.21l.67,0L147,148l.08-1.4a1.67,1.67,0,0,1,1.33-1.5,10.89,10.89,0,0,0,1.54-.56,1.76,1.76,0,0,1,.5-.18,1.26,1.26,0,0,1,.3.29A2.83,2.83,0,0,0,153,146a4.44,4.44,0,0,0,1.61-.38,2.7,2.7,0,0,1,1-.19,2.6,2.6,0,0,1,1.13.27,9.75,9.75,0,0,1,1.57.95c.8.6.8,1.44.72,2.48,0,.21-.06.42-.1.63a5.65,5.65,0,0,0-.11.68c-.14,1.43.28,1.93,1.88,2.26l.24.06v.09a7.52,7.52,0,0,1,.09.83,2.89,2.89,0,0,0,1.13,2.31,1.1,1.1,0,0,1,.38,1.36,3,3,0,0,0,.18,1.82,1.12,1.12,0,0,1,0,1.19,2,2,0,0,0-.3,1.06,4.52,4.52,0,0,1-.55,2.14,1.93,1.93,0,0,0-.21,1.39,3.45,3.45,0,0,1-.22,2.32,1.4,1.4,0,0,0-.07.72c.06.33.11.68.15,1a10.9,10.9,0,0,0,.6,2.63,4.35,4.35,0,0,1,.23,2.8c-.35,1.55-.14,1.94,1.46,2.59a5.79,5.79,0,0,1,.67.31,2.37,2.37,0,0,0,1.12.29,2.23,2.23,0,0,0,1.33-.47,2,2,0,0,1,.93-.37l.68-.11a6.44,6.44,0,0,0,3-.92h.17a13.66,13.66,0,0,0,3.08.33,25.41,25.41,0,0,0,3.57-.29l.39,0,.54,0,.62,0H180a12.09,12.09,0,0,0,1.76-.22c.29-.06.58-.14.87-.23a7.34,7.34,0,0,1,1.11-.26c1.18-.11,2.35-.19,3.53-.28s2.25-.17,3.37-.27a3.7,3.7,0,0,0,1.57-.59,1.52,1.52,0,0,1,.74-.32.6.6,0,0,1,.22,0,2.59,2.59,0,0,0,.92.17,3.63,3.63,0,0,0,1.29-.27,1.69,1.69,0,0,1,.53-.09,2.59,2.59,0,0,1,.86.18c.79.31,1.61.56,2.41.8l1.07.33.2,0,.17,0a2.4,2.4,0,0,1,.69-.1,4.86,4.86,0,0,1,2.19.75,8.48,8.48,0,0,0,1.62.72,6.85,6.85,0,0,0,1.94.32h.29c.2,0,.41,0,.61,0a3.45,3.45,0,0,1,2.63.87l.53.54c.87.89,1.76,1.81,2.57,2.75a1,1,0,0,1,.08.77,13.5,13.5,0,0,1-1.16,2.21,1.87,1.87,0,0,0-.06,2.4,3.63,3.63,0,0,1,.43,1.71,49,49,0,0,1,.29,5,8,8,0,0,1-.5,3,10.61,10.61,0,0,0-.7,5.35,3.38,3.38,0,0,1-1.06,2.85q-2.28,2.32-4.57,4.63L204,211c-.1.11-.22.22-.33.33a5.22,5.22,0,0,0-.93,1c-2.57,4.08-6.21,7.22-9.77,10a16,16,0,0,0-4,4.14,9.73,9.73,0,0,1-3.22,3.06c-.87.57-1.72,1.16-2.57,1.74s-2,1.36-3,2c-1.3.83-2.63,1.63-3.95,2.44-.63.38-1.27.76-1.89,1.15l-1,.65c-.74.46-1.48.93-2.25,1.36a5.23,5.23,0,0,1-1.76.66,8.78,8.78,0,0,0-4.35,2.08,23.49,23.49,0,0,1-6.86,3.38l-1.91.7c-1.2.43-2.45.88-3.62,1.43a8.58,8.58,0,0,0-2.45,1.74,35.48,35.48,0,0,1-6.31,5.38,12.64,12.64,0,0,0-3.15,3,9.88,9.88,0,0,1-5.36,3.47c-1,.26-2.35.63-2.77,2.05a1.63,1.63,0,0,1-.45.17,2.93,2.93,0,0,0-2.6,1.88c-.1.23-.23.45-.35.68a6.74,6.74,0,0,0-.49,1,4.37,4.37,0,0,1-1.75,2.54,1.41,1.41,0,0,0-.65,1.35,2.7,2.7,0,0,1-.78,2.3c-.15.23-.31.45-.45.68a5.3,5.3,0,0,0-.62,1.69c0,.23-.1.47-.14.71a5.4,5.4,0,0,1-.9,2.42,5.42,5.42,0,0,0-1,2.31,2.69,2.69,0,0,1-.65,1.29,8.46,8.46,0,0,0-1.1,1.84c-.23.48-.39.92-.56,1.37l-.2.53a1.3,1.3,0,0,0-.18.69,3.64,3.64,0,0,1-.77,2.42c-.11.18-.22.37-.32.56l-.1.16a1.56,1.56,0,0,0-.3.86,1.41,1.41,0,0,1-.56,1.41.8.8,0,0,0-.33.89c.21.49,0,.91-.28,1.54a3.53,3.53,0,0,0-.47,1.5,2.45,2.45,0,0,1-.34.91,6,6,0,0,0-.3.63c-.24.62-.46,1.24-.69,1.86l-.38,1c0,.14-.09.28-.14.42a4,4,0,0,1-.35.86,3.27,3.27,0,0,0-.61,2.67.52.52,0,0,1-.11.33,6.32,6.32,0,0,0-1.37,3l-.19.82a4,4,0,0,1-1.56,2.81,2.51,2.51,0,0,0-.88,1.36c0,.15-.1.29-.16.43s-.22.55-.32.84-.14.42-.23.63l-.58,1.36-.48,1.11c-.06.16-.12.32-.17.49s-.07.22-.11.33l-.39,1c-.29.73-.6,1.48-.82,2.25a4.72,4.72,0,0,0-.13,2.11,2,2,0,0,1-.37,1.61,4.72,4.72,0,0,0-1.19,2.7,1,1,0,0,0-.11.15,2.49,2.49,0,0,0-.19.3,7.15,7.15,0,0,0-.69,3,9.48,9.48,0,0,1-.49,2.3c-.07.26-.15.51-.21.77s-.25.78-.39,1.16a7.9,7.9,0,0,0-.61,2.69,3.45,3.45,0,0,1-.45,1.36c-.12.26-.25.52-.34.77l-.07.18a1.8,1.8,0,0,0-.2.81,2.91,2.91,0,0,1-.58,2.11,1.87,1.87,0,0,0-.31.9l0,.23c-.28,1.39-.64,1.72-2.09,1.95a2.21,2.21,0,0,0-1.77,1.32l-.42.88c-.39.81-.79,1.65-1.13,2.49a3.79,3.79,0,0,1-2,2.14,1.55,1.55,0,0,0-1.08,1.45c0,.41-.21.62-.69.73a1.69,1.69,0,0,0-1.45,1.71,5.42,5.42,0,0,1-.75,2.7,1.6,1.6,0,0,0-.19,1.16c.47,1.82-.49,3.38-1.43,4.89a8.31,8.31,0,0,1-1.07,1.29c-.29.32-.58.63-.84,1-.41.54-.8,1.1-1.18,1.66l-.54.8ZM152.66,209c-1.75,1.56-2.31,3.49-2.86,5.37l-.12.42a11.78,11.78,0,0,0-.29,1.31,6,6,0,0,1-.86,2.48c-.66.93.37,1.94.76,2.32a1.42,1.42,0,0,0,1,.41h0a2.77,2.77,0,0,0,.9-.17l1.54-.46,1.23-.37a4.64,4.64,0,0,0,1-.42c.54-.34,1.17-.73,1.75-1.17l.27-.19a10,10,0,0,0,1.57-1.33,3.76,3.76,0,0,1,1.89-1.2c.54-.14,1.09-.26,1.64-.36,1-.19,1.63-.78,1.56-1.54-.09-.94.49-1.56,1.16-2.29.19-.2.38-.41.55-.62s.31-.35.47-.52A3,3,0,0,0,167,208.4a.91.91,0,0,1,.21-.3l.11-.1c1.22-1.27,2.49-2.58,3.78-3.83.07-.07.15-.12.22-.18a1.22,1.22,0,0,0,.62-1.34,1.38,1.38,0,0,1,.22-1.15,1.13,1.13,0,0,0,0-1.19,1.45,1.45,0,0,0-1.23-.58h0a2.86,2.86,0,0,0-.67.09l-1.68.35-2.57.53a4.36,4.36,0,0,1-.81.08h0c-.35,0-.65,0-1,0l-.94,0a5.48,5.48,0,0,0-2.31.44,3.71,3.71,0,0,0-.54,0,5.43,5.43,0,0,0-2.47.7c-.38.2-.77.37-1.16.54s-1,.44-1.46.7a4.81,4.81,0,0,0-1.3,1.08,6.52,6.52,0,0,0-.58.8,5.36,5.36,0,0,1-.38.55C152.49,206.21,151.46,207.5,152.66,209Z" transform="translate(-64.33 -144.33)"/><path class="cls-1" d="M131.19,440.66l-.29.1a2.6,2.6,0,0,0-.68.31q-2.07,1.53-4.12,3.09l-1.4,1.07c-.92.72-1.84,1.43-2.79,2.11a3.46,3.46,0,0,1-1.43.58,6.82,6.82,0,0,0-2.86,1.21l-1.57,1.09c-1.26.87-2.55,1.76-3.88,2.57a9,9,0,0,1-2,.8l-.85.29-1.39.47c-.58.2-1.15.39-1.72.6a2.23,2.23,0,0,1-.8.16,1.54,1.54,0,0,1-1.25-.64,2.81,2.81,0,0,0-3-1.28h-.08c-.42-.25-.88-.46-1.32-.67a4.34,4.34,0,0,1-2.5-2,3.33,3.33,0,0,0-1.51-1.42,6,6,0,0,1-2.24-1.66,2.66,2.66,0,0,0-1.4-.79c-1.34-.3-1.56-.57-1.52-1.77a4.82,4.82,0,0,0-1.31-3.59,1.91,1.91,0,0,1-.57-1.13,3.69,3.69,0,0,0-.77-1.63c-.59-.85-1.19-1.69-1.79-2.52s-1.27-1.77-1.89-2.66a2.11,2.11,0,0,1-.26-.83c-.18-1.07-.35-2.14-.49-3.22s-.22-2-.29-3.12a.86.86,0,0,1,.1-.51,3.66,3.66,0,0,0,.57-2.35c0-.16,0-.33,0-.49a18.35,18.35,0,0,1,.32-2.93c.17-.87.43-1.76.68-2.61l.18-.64a1.89,1.89,0,0,1,.32-.61,2,2,0,0,0,.23-2.06,1.71,1.71,0,0,1,.18-1.94,3.2,3.2,0,0,0,.53-1.82l0-.29a8.16,8.16,0,0,1,1.09-3.36l.4-.66a6.91,6.91,0,0,0,1.29-3.2c0-.11.28-.39.4-.52a2.76,2.76,0,0,0,1.09-2.66.78.78,0,0,1,.07-.44l.35-1c.39-1.07.79-2.19,1.26-3.25a6.21,6.21,0,0,1,.82-1.22c.16-.2.32-.41.47-.62l.09-.11a1,1,0,0,0,.31-.7,3.73,3.73,0,0,1,.42-1.68A6.45,6.45,0,0,0,95,389a2.92,2.92,0,0,0,1.6-1,2.76,2.76,0,0,1,.85-.66,1.21,1.21,0,0,0,.69-.68,1.55,1.55,0,0,0-.1-1.29c-.59-1.12-.28-2.13.42-3.39a5,5,0,0,0,.53-1.63,3.32,3.32,0,0,1,.76-1.63l.36-.45a6.21,6.21,0,0,0,1.52-2.81,1.51,1.51,0,0,1,.5-.82,3.43,3.43,0,0,0,1.16-2.07,4.85,4.85,0,0,1,.51-1.44c.42-.65.89-1.28,1.35-1.9.29-.4.59-.8.87-1.2s.45-.67.66-1a17.23,17.23,0,0,1,1.06-1.53,7.62,7.62,0,0,0,1.08-2l.14-.34a5.46,5.46,0,0,1,1.71-1.81l.54-.43a2.84,2.84,0,0,0,1.21-1.54.47.47,0,0,1,.1-.2,4,4,0,0,0,1.83-1.11,4.06,4.06,0,0,1,.9-.7,2.12,2.12,0,0,0,1-1.42,6.51,6.51,0,0,0,.1-1.38c0-.21,0-.42,0-.63s0-.63.06-.94.06-.82.08-1.23c0-.82.65-1.31,1.37-1.87l.17-.13a2.93,2.93,0,0,0,1.13-1.51.73.73,0,0,1,.26-.37,3.65,3.65,0,0,0,2.38-2.48l.16-.36q.16-.36.3-.72a5.83,5.83,0,0,1,.64-1.3,14.48,14.48,0,0,1,1.35-1.51c.3-.3.6-.61.88-.92a12.09,12.09,0,0,0,1.36-1.73l.17-.29a5.52,5.52,0,0,1,2.7-2.81,3.06,3.06,0,0,0,1.48-2A5,5,0,0,1,133,331.3a1.94,1.94,0,0,0,.76-.68,5.5,5.5,0,0,1,2.07-1.92l.7-.46a9.12,9.12,0,0,0,1.33-1.21l.46-.46a18.75,18.75,0,0,1,3.45-2.82,7.57,7.57,0,0,0,1.64-1.44l.24-.26a2,2,0,0,1,1.22-.68,2.31,2.31,0,0,0,1.79-1.21,10.36,10.36,0,0,1,3.38-3.09l.09-.05.34,0a3.3,3.3,0,0,0,2.54-1.38c.17-.18.33-.36.51-.52s.53-.44.8-.65.31-.25.47-.37a37,37,0,0,1,6.4-4.1,2.69,2.69,0,0,0,.68-.55,3.91,3.91,0,0,1,2.93-1.17h.3a1.51,1.51,0,0,0,1.13-.32,4.17,4.17,0,0,1,2-1l.85-.25.32-.1a3.68,3.68,0,0,0,1-.44,2.63,2.63,0,0,1,1.52-.44,4.28,4.28,0,0,1,.6,0c.11,0,.23,0,.35,0a1.17,1.17,0,0,0,.52-.11,5.7,5.7,0,0,1,2.49-.45c.46,0,.91,0,1.36-.1.74-.1,1.45-.33,1.63-1.31.07-.38.09-.38.34-.37h.27c.45,0,.91.07,1.37.09l1.4.09a3,3,0,0,1,.78.24,4,4,0,0,1,.46.24c.18.1.36.2.55.29a16.87,16.87,0,0,0,3.33,1.11,2.68,2.68,0,0,1,2.22,1.6,1.47,1.47,0,0,0,1.52,1c1.05,0,1.56.33,1.81,1a1.51,1.51,0,0,0,.61.66l.11.07a2,2,0,0,1,.9,1.52,2.15,2.15,0,0,0,.4,1.15,7.88,7.88,0,0,1,1.48,5.79,7.47,7.47,0,0,0-.07,1.55,8.52,8.52,0,0,1-.28,2.72,12.84,12.84,0,0,0-.32,2.25l0,1.42c0,1.06,0,2.12-.08,3.18a1.35,1.35,0,0,1-.09.62,2,2,0,0,0-.3,2A8.62,8.62,0,0,1,195,336h0a5.15,5.15,0,0,0-1.32,2,4.34,4.34,0,0,1-1.16,1.79,1.94,1.94,0,0,0-.46,1.59v.26a6.38,6.38,0,0,0,.1,1.08l0,.16-.15.09a5,5,0,0,0-2.46,1.39,8.67,8.67,0,0,1-.74.62c-.33.23-.3.61-.27,1.19a3.07,3.07,0,0,1-.34,2.05,1.93,1.93,0,0,0-.42.88,5.58,5.58,0,0,1-1.87,2.82l-.37.38a1.91,1.91,0,0,1-.42.27l-.36.21-.57.38c-.29.2-.58.41-.89.59-.54.33-1.09.64-1.64,1l-.58.32a1.4,1.4,0,0,1-.3.15,2.51,2.51,0,0,0-.82.53,7,7,0,0,1-1.73,1.42.88.88,0,0,0-.4-.16h-.18a1.84,1.84,0,0,0-1.12.44.75.75,0,0,1-.54.21,2.63,2.63,0,0,1-.66-.12c-.31-.1-.64-.17-1-.24a7.86,7.86,0,0,1-1.16-.3,1.87,1.87,0,0,0-.64-.11l-.36,0c-.07,0-.08,0-.12-.05a4.21,4.21,0,0,0-2-1.15,5.53,5.53,0,0,1-3.58-2.82,1.31,1.31,0,0,1-.06-1.41,5,5,0,0,0,.65-2.15,4.21,4.21,0,0,1,.52-1.79.6.6,0,0,1,.09-.15,1.93,1.93,0,0,0,.23-.5c.27-1-.68-1.76-1.45-2.35s-1-.87-.83-1.05a2,2,0,0,0,.38-.85c0-.13.08-.26.13-.38l.15-.35a2,2,0,0,1,.39-.7c.27-.19,1-.71.75-1.3-.1-.26-.39-.56-1.21-.57a4.39,4.39,0,0,0-1.46.26c-.31.12-.6.26-.9.4a7.7,7.7,0,0,1-1.45.56A10.89,10.89,0,0,0,158,343c-.94.76-1.92,1.49-2.89,2.22-.81.61-1.62,1.22-2.41,1.84-.5.39-1,.82-1.4,1.24s-.64.62-1,.91a28.35,28.35,0,0,1-2.46,1.95,19.57,19.57,0,0,0-3.33,3.05c-.25.26-.52.49-.79.73l-.4.36-.12.11a1.77,1.77,0,0,0-.41.41l-.42.59a8.09,8.09,0,0,0-1.09,1.78,5.73,5.73,0,0,1-1.34,1.73,10.78,10.78,0,0,0-1.05,1.17l-.29.42a7.08,7.08,0,0,1-.61.83,10,10,0,0,0-1.79,3.19l-.15.36a3.59,3.59,0,0,1-.81,1c-.19.2-.38.39-.55.6l-.69.85c-.29.37-.58.73-.89,1.09a2,2,0,0,1-.55.51A1.92,1.92,0,0,0,131.3,372a.77.77,0,0,1,0,.21,5.53,5.53,0,0,0-.89,2.13,6.08,6.08,0,0,1-.52,1.47,3.22,3.22,0,0,1-1.76,1.73,1.93,1.93,0,0,0-1.53,2,1.62,1.62,0,0,1-.82,1.69l-.3.16,0,.32a5.24,5.24,0,0,1-1.41,4l-.51.63a11.13,11.13,0,0,0-1.2,1.6,3.05,3.05,0,0,0-.33,1.24,5,5,0,0,1-.08.54c0,.14-.06.28-.09.43a3.92,3.92,0,0,1-.31,1,13.52,13.52,0,0,1-.82,1.3c-.27.4-.53.8-.77,1.21a7.71,7.71,0,0,0-.54,1.31l-.16.45a1.58,1.58,0,0,0-.07.34c0,.05,0,.09,0,.13a2.75,2.75,0,0,0-.75,2.29c0,.16,0,.31,0,.47a5,5,0,0,1-1,2.42,9,9,0,0,0-1.57,3.44,5.42,5.42,0,0,1-1.11,2c-1,1.26-1.12,1.67-.39,2.95a4.09,4.09,0,0,0-1,2.92,9.28,9.28,0,0,1-.1,1.06,3.42,3.42,0,0,0,0,1.06c0,.16,0,.32,0,.48a2.86,2.86,0,0,1-.76,2.15,2.49,2.49,0,0,0-.58,2.74,3.08,3.08,0,0,1-.18,2.68,1.6,1.6,0,0,0-.08,1.69,1.64,1.64,0,0,0,1.42.64,2.36,2.36,0,0,0,.57-.05,12.56,12.56,0,0,0,2.3-.72l.89-.34.93-.35a10.75,10.75,0,0,1,1.92-.63,5.29,5.29,0,0,0,2.53-1.28,3.47,3.47,0,0,1,2.15-1.07,2.12,2.12,0,0,0,1.52-.83,3,3,0,0,1,1.26-.85,9.23,9.23,0,0,0,2.35-1.53c.6-.53,1.17-1.1,1.74-1.66s1.08-1.07,1.65-1.59a3.54,3.54,0,0,1,.87-.48l.62-.31a2.53,2.53,0,0,1,.33-.16,2,2,0,0,0,1.05-.83,2.26,2.26,0,0,1,1.07-.94c.2-.12.4-.23.58-.36l.42-.3.72-.5.6-.37c.24-.15.48-.29.71-.45,1.39-.93,2.77-1.86,4.15-2.81a16.81,16.81,0,0,0,1.33-1.08l.33-.28a5.39,5.39,0,0,0,1-1c.7-1.08,1.35-2.21,2-3.29l.2-.36c.43-.75.85-1.51,1.27-2.27l.83-1.51a1.4,1.4,0,0,1,.12-.18,1.81,1.81,0,0,0,1.08-2.36h0s.08-.11.12-.18l.09-.18.27-.55c.16-.3.31-.59.44-.9.2-.49.36-.74.75-.86a1.34,1.34,0,0,0,1.07-1.59c0-.19,0-.27.31-.54a2.21,2.21,0,0,0,.5-.61c.09-.2.2-.22.65-.27l.42,0a10.76,10.76,0,0,0,2.38-.71,3,3,0,0,1,1.2-.27,2.37,2.37,0,0,1,1.6.64c.15.14.31.27.47.4a6.8,6.8,0,0,1,.57.5,2.73,2.73,0,0,1,.62.79,4.7,4.7,0,0,0,1.32,1.81l.22.21a6.23,6.23,0,0,0,2.47,1.36c.34.13.68.25,1,.4a3.37,3.37,0,0,1,1.21,1.07,7.68,7.68,0,0,1,1.54,3l0,.2a2.58,2.58,0,0,1,.13,1.13,11.74,11.74,0,0,0-.11,5.36,4.53,4.53,0,0,0,1.05,2.2,9.61,9.61,0,0,1,.68.9.82.82,0,0,1,.06.95,8.06,8.06,0,0,0-.81,5,1.67,1.67,0,0,1-.1.74c-.44,1.14-.91,2.27-1.4,3.39s-1,2.16-1.44,3.23a4.17,4.17,0,0,1-.46.74l-.37.49c-.44.58-.89,1.18-1.38,1.73a7.81,7.81,0,0,0-1.58,3.3,3.64,3.64,0,0,1-.79,1.26c-.19.23-.38.47-.55.71l-.14.19a2.31,2.31,0,0,0-.51,1.08,8.87,8.87,0,0,1-1,2.83l-.22.47c-.51,1.09-1,2.21-1.42,3.33l-.58,1.4a.63.63,0,0,0-.08.33c.11,1.11-.52,1.78-1.62,2.57a4,4,0,0,0-1.16,1.6,7.74,7.74,0,0,1-.37.7l-.14.22a4.49,4.49,0,0,1-2.15,2.13l-.3.13-.05,1c0,.61,0,1.23-.11,1.84a1.14,1.14,0,0,1-.29.57,1.57,1.57,0,0,1-.25.16c-.25.14-.57.32-.64.67a2.77,2.77,0,0,1-1.1,1.46,6.27,6.27,0,0,0-.79.76,6.5,6.5,0,0,0-1,1.9l-.25.6a6.69,6.69,0,0,1-1.66,2.67,3.63,3.63,0,0,0-1.11,1.82,4.34,4.34,0,0,1-.91,1.58c-.17.22-.33.43-.48.65a16.86,16.86,0,0,0-1.22,2.2,1.33,1.33,0,0,0-.07.8v.15c.06.69.06.69-.71.81a2,2,0,0,0-.37.1l-.51.17v.34c-.07,1.76-1.28,3-2.57,4a7.79,7.79,0,0,0-.82.8,4.17,4.17,0,0,1-1.26,1,1.42,1.42,0,0,0-.65.83l-.06.14a3.42,3.42,0,0,1-1.91,1.76,3.81,3.81,0,0,0-1.95,2c-.58,1.13-1.16,2.1-2.44,2.44a2.55,2.55,0,0,0-1.11.79,1.72,1.72,0,0,1-1.45.6h0a21.56,21.56,0,0,0-3.93.35,5.69,5.69,0,0,1-1,.1,1.85,1.85,0,0,1-1.58-.72l-.71-.82c-.26-.29-.52-.59-.77-.89a.67.67,0,0,1-.17-.32,9.43,9.43,0,0,0-.29-3c-.09-.39-.17-.79-.23-1.18,0-.14,0-.28,0-.32a3.08,3.08,0,0,0,.57-2.35,6.42,6.42,0,0,1,0-.76,6.58,6.58,0,0,1,.41-2.11,2.93,2.93,0,0,0,.21-1.14,4.88,4.88,0,0,1,.43-2.26,2.34,2.34,0,0,0-.66-3.1,1.21,1.21,0,0,1-.21-1.55,5.47,5.47,0,0,0,.35-3.46,3.4,3.4,0,0,1,.7-2.83,13.2,13.2,0,0,0,2-3.1c.15-.3.31-.6.47-.9a21.69,21.69,0,0,1,3.91-4.88c.41-.41.84-.8,1.27-1.19s.91-.82,1.34-1.25l.17-.16a1.65,1.65,0,0,0,.72-1.68m18.21-124Z" transform="translate(-64.33 -144.33)"/><path class="cls-1" d="M273.27,292.39a.89.89,0,0,1-.39-.12,3.34,3.34,0,0,1-1-.81,13.31,13.31,0,0,1-1.41-2,6.47,6.47,0,0,1-.69-1.78,5.48,5.48,0,0,0-1.53-2.93c-1-1-1.13-1.75-.55-2.61a2.78,2.78,0,0,0,.38-1.28l0-.19a3.11,3.11,0,0,0,0-.61,1.79,1.79,0,0,1,0-.53,2.92,2.92,0,0,0-.41-2.67c-.36-.56-.14-1.12.27-2l.13-.26.66-1.46.68-1.53c.32-.71.64-1.43,1-2.14a1.69,1.69,0,0,0-.28-2.09.88.88,0,0,1-.13-1.08,5.9,5.9,0,0,0,.3-3.45l-.05-.4a2.33,2.33,0,0,0-.45-1.13,18.78,18.78,0,0,0-1.46-1.66,1.84,1.84,0,0,0-1.28-.6,1.57,1.57,0,0,0-1.39.94,13.66,13.66,0,0,1-2.8,3.46,18.49,18.49,0,0,0-2.22,2.58l-.57.75c-.27.34-.5.7-.74,1.07a7.09,7.09,0,0,1-1.29,1.63,7.92,7.92,0,0,0-2.23,2.67,2.75,2.75,0,0,1-.9.85c-.15.12-.31.23-.45.35a24.39,24.39,0,0,0-1.94,1.85,15.33,15.33,0,0,1-2.82,2.47l-.5.3-.94.59-.22.15a4.15,4.15,0,0,0-1,.79,3.22,3.22,0,0,1-2.09,1.19,2.64,2.64,0,0,0-2.27,1.81,3.74,3.74,0,0,1-3,2.25,4.49,4.49,0,0,0-2.37,1.07,4.85,4.85,0,0,1-1.2.65l-.13.06c-.55.24-1.12.44-1.69.65l-.57.21a1.64,1.64,0,0,1-.48.14,13,13,0,0,0-3,.37,8.61,8.61,0,0,0-1.36.49l-.57.24a23.18,23.18,0,0,1-3.58.92l-.55.12a11.08,11.08,0,0,1-1.14.14,9.84,9.84,0,0,0-1.23.15,3.83,3.83,0,0,0-1.36.65,1.2,1.2,0,0,1-.6.3.43.43,0,0,1-.22-.07c-.13-.08-.16-.1,0-.58a1.53,1.53,0,0,0,.1-.48l0-.23.06-.42-.44-.12-.24-.07a2.31,2.31,0,0,0-.73-.15,6.45,6.45,0,0,0-1.15.18l-.18,0a7.92,7.92,0,0,1-1.66.22,3.7,3.7,0,0,1-1.58-.33,3.61,3.61,0,0,0-1.51-.33,3.67,3.67,0,0,0-2,.58,1.59,1.59,0,0,1-.78.16,2.06,2.06,0,0,1-.44,0,17.47,17.47,0,0,0-3-.31c-.24,0-.48,0-.73,0h-.16a5.79,5.79,0,0,1-1.05-.13l-.49-.08-1-.16a12.69,12.69,0,0,0-2.34-.28,6.48,6.48,0,0,0-1.34.14,1.47,1.47,0,0,1-.36,0,1.76,1.76,0,0,1-1.2-.49c-.27-.27-.56-.52-.84-.77a12.13,12.13,0,0,1-2.33-2.49,10.78,10.78,0,0,0-1.25-1.51c-.23-.25-.45-.49-.67-.75s-.59-.69-.9-1a18.33,18.33,0,0,1-2.07-2.64,9.11,9.11,0,0,1-.89-2.48c-.08-.33-.17-.66-.27-1a3.79,3.79,0,0,1-.1-.79l0-.33a3,3,0,0,0-1.83-2.51c-.89-.44-.89-.44-.49-1.26a2,2,0,0,0-.18-2.43.9.9,0,0,1,0-.6,2.55,2.55,0,0,0,.15-1.83c-.35-1.43-.71-3-1-4.51A1.92,1.92,0,0,1,185,260a7.52,7.52,0,0,0,.31-4.33,2.52,2.52,0,0,1,.1-1.62.84.84,0,0,0,.13-.46,7.4,7.4,0,0,1,1.3-3.86c.18-.34.37-.68.55-1,.67-1.32,1.33-2.65,2-4,1.24-2.47,2.47-4.94,3.73-7.39a35.49,35.49,0,0,1,2.34-3.89c1-1.44,2-2.87,3-4.3,1.36-1.9,2.76-3.87,4.09-5.84A12.15,12.15,0,0,1,206,220a39.42,39.42,0,0,0,8.95-8.5,26.65,26.65,0,0,1,5.12-4.58l.84-.61c.9-.66,1.8-1.32,2.69-2l.13-.1a6.76,6.76,0,0,0,1.39-1.28,15.27,15.27,0,0,1,5.37-3.95c.52-.27,1.05-.53,1.59-.79.79-.39,1.6-.79,2.38-1.24a29.92,29.92,0,0,0,3-2.1,3.3,3.3,0,0,1,2.06-1h.23a1.83,1.83,0,0,0,.33,0,2.89,2.89,0,0,0,2.39-1.14,3,3,0,0,1,1.84-.94l.25-.07,2.85-.81,1.59-.45c.4-.12.75-.21,1.1-.29l.65-.12a7.25,7.25,0,0,0,1.33-.3,1.27,1.27,0,0,1,1.06.08,3.12,3.12,0,0,0,1.46.38,2.91,2.91,0,0,0,1.74-.6A2.83,2.83,0,0,1,258,189h.31a2,2,0,0,0,1.11-.32,1.86,1.86,0,0,1,1.07-.36,2.45,2.45,0,0,1,1.27.42,3.57,3.57,0,0,0,1.87.57,4.32,4.32,0,0,0,2-.59,6.37,6.37,0,0,1,2-.52l.46-.07s.13.13.21.23a11,11,0,0,0,3.79,2.75c1.1.58,2.15,1.22,3.31,1.92a1.7,1.7,0,0,1,.4.5,15.45,15.45,0,0,1,2.32,5.05l0,.21a2.23,2.23,0,0,0,1.12,1.84l.32.17.29-.2a2.39,2.39,0,0,0,.95-1.89,7,7,0,0,1,.2-.94c.07-.29.15-.57.19-.86.11-.66.19-1.33.26-2l.06-.53c0-.2,0-.41.06-.62s.06-.67.12-1c.14-.74.33-1.54.57-2.45l.07-.27a2.27,2.27,0,0,1,.34-.89,2.09,2.09,0,0,0,.38-2.77.5.5,0,0,1-.06-.3c.1-2,.2-4,.34-6a1.17,1.17,0,0,1,.24-.57,4.26,4.26,0,0,0,.87-2.68.73.73,0,0,1,.14-.47,3.92,3.92,0,0,0,.81-2.59v-.23c0-.36.08-.73.12-1.09a7.26,7.26,0,0,0,0-3,1.34,1.34,0,0,1,.08-.32,2.3,2.3,0,0,0,.12-.43l0-.23a2.44,2.44,0,0,0,0-1,1.28,1.28,0,0,1,.23-1.21,1.68,1.68,0,0,0,.36-1.25c-.06-.42.07-.64.54-.86a1.86,1.86,0,0,0,.86-.61,1.19,1.19,0,0,1,1.13-.63,3.93,3.93,0,0,1,.81.1,5.83,5.83,0,0,0,1,.11,1.88,1.88,0,0,0,2-1.37l.13-.06a.61.61,0,0,1,.1.14,1.92,1.92,0,0,1,.07.41,1.82,1.82,0,0,0,0,.32,2.34,2.34,0,0,0,1.27,1.71,2,2,0,0,0,1,.25,1.81,1.81,0,0,0,1.74-1.2,2.45,2.45,0,0,0,.08-.29,1.72,1.72,0,0,1,1.74-1.49,2.61,2.61,0,0,1,.66.09,14.88,14.88,0,0,0,1.87.35,1,1,0,0,1,.85.62,4.13,4.13,0,0,0,1.56,1.81,2.51,2.51,0,0,1,1.05,1.53,4.39,4.39,0,0,0,2,2.79c.4.25.49.48.45,1.12a19.65,19.65,0,0,0,.21,3.71,2,2,0,0,1-.31,1.8,1.14,1.14,0,0,0,0,1.63,5.56,5.56,0,0,1,1.1,3.58c0,.38.05.76.1,1.14a.5.5,0,0,1,0,.2,3,3,0,0,0-.66,2.53,2.21,2.21,0,0,1-.09,1,5.13,5.13,0,0,0-.57,3,.84.84,0,0,1-.09.22,2.26,2.26,0,0,0-.15.41,6.08,6.08,0,0,0-.16,1c0,.24,0,.49,0,.73a8.7,8.7,0,0,1,0,1c-.31,2.1-.64,4.2-1,6.3l-.58,3.76c-.19,1.21-.37,2.41-.57,3.62a4.18,4.18,0,0,1-.31,1.06,4,4,0,0,0-.32,2.13,3,3,0,0,1-.31,1.41,2.86,2.86,0,0,0-.16,2.08,1.4,1.4,0,0,1-.17,1.34,1.8,1.8,0,0,0-.29.78c-.25,1.88-.49,3.77-.74,5.65,0,.1,0,.21,0,.32a1,1,0,0,1,0,.27,8.57,8.57,0,0,0-.58,3.56c0,.49,0,1-.07,1.48a5.72,5.72,0,0,1-.14.81c0,.24-.11.48-.14.73s-.09.78-.12,1.17l-.09,1.09,1.69-.17c.85-.09,1.64-.16,2.43-.26a1.77,1.77,0,0,0,1-.48c.51-.57,1-1.16,1.47-1.74l1.08-1.33c.54-.65,1.07-1.31,1.63-2a.73.73,0,0,1,.33-.23,2,2,0,0,0,1.59-1.64l.17-.51a3.22,3.22,0,0,1,1.31-2.1,1.14,1.14,0,0,0,.56-.71,4.5,4.5,0,0,1,1.36-2.12l.29-.32a3.69,3.69,0,0,0,.54-.85c.07-.13.14-.26.22-.39L317,214c.29-.48.58-1,.91-1.42l.63-.9a11.07,11.07,0,0,1,1.91-2.33,9,9,0,0,0,1.65-2,11.26,11.26,0,0,1,1.07-1.36,27.84,27.84,0,0,0,2.35-2.84l.75-1A17.56,17.56,0,0,1,328,200.4q.51-.48,1-1a4.6,4.6,0,0,0,.63-.9c.14-.24.27-.49.39-.74a11,11,0,0,1,.74-1.26,1.62,1.62,0,0,1,1.32-.66l.34,0a4,4,0,0,0,.67.06,5.09,5.09,0,0,0,2.17-.58l.39-.17a5.12,5.12,0,0,0,2.05-1.28c.2,0,.31.16.51.45a2.3,2.3,0,0,0,1.88,1.25,3.17,3.17,0,0,0,1.25-.3,2.13,2.13,0,0,0,.42-.23A1,1,0,0,1,342,195a3.28,3.28,0,0,1,.46,0,.89.89,0,0,1,.43.07,13.48,13.48,0,0,1,3.21,2.8.83.83,0,0,1,.11.47c0,.43-.05.85-.09,1.28s-.06.84-.07,1.26,0,.9,0,1.36c0,.27,0,.54,0,.82,0,.1,0,.21,0,.32a2.44,2.44,0,0,0,0,.54v.26a3,3,0,0,0,.2,1.17,2.58,2.58,0,0,1,0,2.22c-.23.5-.44,1-.66,1.51-.46,1.09-.94,2.22-1.49,3.3a16.72,16.72,0,0,1-1.3,2.06l-.55.81-1.15,1.69-.75,1.09.09.23c.09.22.17.4.23.58l.09.27a2.49,2.49,0,0,1,.07,2.28,2.07,2.07,0,0,0,.07,1.6c.11.33.5,1.44,1.07,1.72a1.75,1.75,0,0,0,.74.16,1.61,1.61,0,0,0,.44-.06c.64-.19,1.27-.42,1.9-.65l.25-.09a1.5,1.5,0,0,0,.69-.45,14.7,14.7,0,0,1,1.31-1.47,9.59,9.59,0,0,0,2.17-2.89,1.7,1.7,0,0,1,.25-.39A3.29,3.29,0,0,0,351,219a4.67,4.67,0,0,0,3.06-1.52,9.71,9.71,0,0,0,.88-1c.17-.19.33-.39.51-.58a3,3,0,0,1,2-1.11,2.69,2.69,0,0,0,2.58-2,5.59,5.59,0,0,1,1.45-2.23c.21-.24.43-.48.64-.74a13.21,13.21,0,0,1,1-1.11,9,9,0,0,0,1.65-2A6.32,6.32,0,0,1,366.6,205c.22-.16.43-.33.64-.5s.52-.43.77-.66c.57-.48,1.16-1,1.77-1.42a3,3,0,0,1,.87-.29c.21,0,.41-.09.62-.15l.21-.07,1.28-2.35h.5a1.81,1.81,0,0,0,1.76-1.38,1.45,1.45,0,0,1,.59-.65,4.7,4.7,0,0,0,1.73-1.83,4.31,4.31,0,0,1,2-2.22,1.09,1.09,0,0,0,.68-.72,2.73,2.73,0,0,1,1.25-1.65l.52-.44c.29-.27.56-.56.82-.85a9.38,9.38,0,0,1,1-1,2,2,0,0,1,1.07-.39,9.45,9.45,0,0,0,1,.06,3,3,0,0,0,2.65-1.29.38.38,0,0,1,.19-.09h.14a2.81,2.81,0,0,0,1.95-.93l.93-.82,1.28-1.13a1.8,1.8,0,0,0,.53-.66,6.63,6.63,0,0,1,2.1-2.49,5.16,5.16,0,0,0,.77-.86l.2-.26a1.54,1.54,0,0,1,1.15-.66,3,3,0,0,0,.89-.26c.15-.06.29-.12.43-.16l.31-.09a3.35,3.35,0,0,1,.74-.15,4.63,4.63,0,0,0,.65,0,3.16,3.16,0,0,0,2.29-1.07,5.57,5.57,0,0,0,.51-.58c.14-.16.27-.32.42-.47a1.12,1.12,0,0,1,.75-.4.58.58,0,0,1,.31.08,1.26,1.26,0,0,1,.6,1.28,5.82,5.82,0,0,1-.59.83l-.33.42-.88,1.23.42.27.24.17a2.05,2.05,0,0,0,.57.34c.27.11.61.28.68.52s-.09.51-.24.71a4,4,0,0,1-.91.85,1.29,1.29,0,0,0-.57,1.72c.14.29.19.62-.35,1.1a3.29,3.29,0,0,0-1.19,2.36,2.06,2.06,0,0,1-.31.72c-.06.11-.13.21-.18.32a8.66,8.66,0,0,1-.64,1.11,6.36,6.36,0,0,1-.7.8,5,5,0,0,1-.66.55,4.26,4.26,0,0,0-1.44,1.57l-.21.41.63.31.43.23c.17.09.31.21.19.62-.07.23-.13.46-.19.69a4.4,4.4,0,0,1-.91,2.05,1.17,1.17,0,0,0-.33.58c-.15,1.28-1.22,1.94-2.35,2.65l-.27.16a3.39,3.39,0,0,0-1.65,2.72,2.19,2.19,0,0,1-1,1.71,2.29,2.29,0,0,0-.77.81,1.89,1.89,0,0,1-1.26,1.22c-.34.09-.83.44-.84.86a2.75,2.75,0,0,1-.68,1.46,3.91,3.91,0,0,0-.81,1.66.86.86,0,0,0-.12.43,4.47,4.47,0,0,1-1.72,3.17,2.21,2.21,0,0,0-.47.8l-.09.21a11,11,0,0,1-2.42,3.52,15,15,0,0,0-1.31,1.47l-.62.75-.28.32c-.43.49-.85,1-1.3,1.43L377.32,226l-2.43,2.4a3.07,3.07,0,0,0-.78,1.09,3.43,3.43,0,0,1-1.52,1.69,10.59,10.59,0,0,0-2.77,2.84c-.83,1.18-1.78,2.34-2.69,3.46l-.93,1.15a1.6,1.6,0,0,1-.46.35,4.61,4.61,0,0,0-1.9,2.21,5.22,5.22,0,0,1-2,2.61,2.07,2.07,0,0,0-.85,1,6.22,6.22,0,0,1-1.5,2l-.44.46a10.06,10.06,0,0,0-2.34,3.18,2.3,2.3,0,0,1-1,.81,3.19,3.19,0,0,0-1.72,1.94A20.72,20.72,0,0,0,352.5,256c-.26.56-.52,1.11-.82,1.65a4.59,4.59,0,0,1-2.09,1.69,5.23,5.23,0,0,0-2.34,2.31l-.32.49-1.11,1.61-.11.12a1.21,1.21,0,0,0-.35.54,3.36,3.36,0,0,1-1.57,1.87c-.26.2-.53.4-.77.62a.93.93,0,0,1-.58.26.69.69,0,0,1-.35-.1,3.17,3.17,0,0,0-1.49-.4,4,4,0,0,0-2.4,1,9.14,9.14,0,0,0-.81.71,1.68,1.68,0,0,1-1.19.55l-.25,0a3.54,3.54,0,0,0-.46,0h-.15c-1.93,0-2.37.31-2.79,2l-.1.4c-.25,1-.51,2-.8,3a1,1,0,0,1-.35.48,4.07,4.07,0,0,0-1.5,1.5,4.05,4.05,0,0,1-.87.82l-.64.43a8.93,8.93,0,0,0-.87.6,1.33,1.33,0,0,1-.85.39,1.13,1.13,0,0,1-.48-.12,3.47,3.47,0,0,0-1.48-.37,2.52,2.52,0,0,0-1.82.8.41.41,0,0,1-.13.08,6.15,6.15,0,0,0-3.08,1,2.5,2.5,0,0,1-.53-.23,6.37,6.37,0,0,1-.75-.53c-.22-.17-.44-.34-.67-.49-.44-.29-.59-.53-.57-.88a1.8,1.8,0,0,0-.1-.65c0-.09-.06-.2-.09-.31l-.1-.47-.92.14-.79.13a3.9,3.9,0,0,1-.58,0,1.9,1.9,0,0,1-2-1.53,4.62,4.62,0,0,1,0-3.05,5.78,5.78,0,0,0,.07-3.49,5.32,5.32,0,0,1,1-4.16l.11-.15c.78-1.1.76-1.35-.24-2.41a1.2,1.2,0,0,1-.2-1.27l.12-.4a7.26,7.26,0,0,0,.3-1.34,1.4,1.4,0,0,0-.71-1.27,1.19,1.19,0,0,0-.51-.1,2,2,0,0,0-1,.29,3,3,0,0,0-.88,1c-.56.91-1.1,1.83-1.65,2.74l-1,1.72a.7.7,0,0,1-.16.2,3.17,3.17,0,0,0-1.82,2.62h0l-.22.18-.18.18-.19.16a1.72,1.72,0,0,0-.44.42,4.6,4.6,0,0,1-2.36,2.06l-.41.14.06.39a1.58,1.58,0,0,1,0,.28,1.81,1.81,0,0,0,.12.55.58.58,0,0,1-.25.82,3.47,3.47,0,0,0-1.43,2.09,1.7,1.7,0,0,1-.56.71,7.36,7.36,0,0,0-2.3,3.21c-.12.28-.27.56-.41.84a4,4,0,0,0-.68,2.68,16.84,16.84,0,0,1-2.7,3.67l-.27.25c-.42.41-.85.81-1.3,1.2a5.13,5.13,0,0,1-.59.41l-.43.29c-.42.3-.83.6-1.23.92a1.5,1.5,0,0,0-.27.31.57.57,0,0,1-.1.11c-1.14.69-2.26,1.49-2.34,3.12,0,.17-.42.44-.88.44a.8.8,0,0,1-.23,0,4.5,4.5,0,0,0-1.25-.18,4.75,4.75,0,0,0-1.58.28,2.08,2.08,0,0,1-.41.11,2.86,2.86,0,0,0-1.14-.22,6.9,6.9,0,0,0-1.31.16,6.37,6.37,0,0,1-1.1.14,1.9,1.9,0,0,1-.73-.13,16.33,16.33,0,0,0-2.73-.7l-.19,0a5.23,5.23,0,0,0-.89-.12c-.77,0-1,.49-1.37,1.22C273.53,292.12,273.38,292.39,273.27,292.39Zm-35.38-68.95a5.9,5.9,0,0,1-1.34.37,1.35,1.35,0,0,0-1,.41,2.84,2.84,0,0,1-1.41,1,8.39,8.39,0,0,0-2,1,9.5,9.5,0,0,0-1.36,1.23,5.93,5.93,0,0,1-1.85,1.47.68.68,0,0,0-.33.32,7.92,7.92,0,0,1-2.75,2.61,1.92,1.92,0,0,0-.6.61,2.1,2.1,0,0,1-1.2,1.07,1.68,1.68,0,0,0-.71.5l-.54.56c-.57.58-1.14,1.17-1.66,1.78l-.43.49a14,14,0,0,0-1.78,2.36,12.31,12.31,0,0,1-3.07,3.67,1.72,1.72,0,0,0-.78,1.88,2.32,2.32,0,0,1-.45,1.84,7.39,7.39,0,0,1-.79,1.05c-.18.23-.37.46-.55.7l-.16.2a1.74,1.74,0,0,0-.53,1.16,1.88,1.88,0,0,1-1,1.79l-.36.27.24.37a1,1,0,0,1-.25,1.46,1.61,1.61,0,0,0-.43,1.25c0,.4,0,.8,0,1.21s.06.94.05,1.42a1.06,1.06,0,0,1-.16.58c-2,1.18-1,2.77-.52,3.45a2.69,2.69,0,0,1,.16.29,2.3,2.3,0,0,0,.53.75l.09.08a4,4,0,0,0,1.62,1,20.77,20.77,0,0,0,4.52.43c.58,0,1.15,0,1.73,0a3.57,3.57,0,0,0,1.07-.24l.34-.1c.43-.13.86-.25,1.28-.39l.67-.21c.61-.19,1.25-.39,1.86-.64l.62-.29a2.65,2.65,0,0,1,1.21-.41h.18a1.33,1.33,0,0,0,1-.51,7.17,7.17,0,0,1,2.69-2.06c.27-.15.54-.29.8-.45a15.39,15.39,0,0,0,2.56-2c.32-.29.64-.59,1-.87l.64-.57c.3-.26.59-.52.89-.76a2.66,2.66,0,0,1,1.72-.68h.41a2.93,2.93,0,0,0,1.66-.46l.17-.14a10.45,10.45,0,0,0,2.81-2.85l.1-.17a8.77,8.77,0,0,1,3-3.54,2.17,2.17,0,0,0,.7-.69l.27-.4a12.34,12.34,0,0,0,2.09-4.12,3.1,3.1,0,0,1,.6-1.22,6.77,6.77,0,0,0,1.3-2.86,3.4,3.4,0,0,0,.07-.34,1.27,1.27,0,0,1,.19-.58,7.6,7.6,0,0,0,1.51-2.68l.11-.28c.12-.33.26-.66.4-1a11.52,11.52,0,0,0,1.1-3.77,4.8,4.8,0,0,0,0-.57c0-.48,0-1.93.33-2.13l.32-.07,0-.28c0-.1.06-.19.1-.29a2.5,2.5,0,0,0,.19-1,2.76,2.76,0,0,1,.43-2,1.88,1.88,0,0,0,0-1.6,1.91,1.91,0,0,1,.1-2.18,1.34,1.34,0,0,0,.31-1.3,1.58,1.58,0,0,0-1-.93,1.87,1.87,0,0,1,.38-1.06l.28,0,.18-.3a1.26,1.26,0,0,0,.19-.36,1.7,1.7,0,0,0,0-.49c-.07-1.42-1-1.57-1.42-1.57a2.65,2.65,0,0,0-1,.23,3,3,0,0,0-.4.21l-1.3.72c-1,.58-2.07,1.16-3.13,1.71a2.91,2.91,0,0,1-.82.19l-.39.06-.4,0a2.15,2.15,0,0,0-1.06.23l-1.13.68c-1.1.65-2.14,1.26-3.27,2a2.89,2.89,0,0,0-.79.81l-.58.82.74,0a.54.54,0,0,0,.05.11,1.27,1.27,0,0,0,.58,1.28,3.33,3.33,0,0,1-1.7.64l-.69.16-.19,0-.2.27c-.09.12-.19.25-.27.38l-.13.2a.59.59,0,0,0-.23,0H238Z" transform="translate(-64.33 -144.33)"/><path class="cls-1" d="M195.68,456.29a6,6,0,0,1-1.32-.2L194,456a20.22,20.22,0,0,0-4.7-.73h-.19c-.56,0-1.11.07-1.64.13-.26,0-.51.07-.77.09l-.26,0a8.29,8.29,0,0,1-.85.06h0a12.31,12.31,0,0,0-3.31.43,4,4,0,0,1-1,.11c-.37,0-.75,0-1.13-.05l-.52,0a5.69,5.69,0,0,1-.92-.15,7.71,7.71,0,0,0-1.2-.17,4,4,0,0,1-3.43-1.9l-.25-.37a6.61,6.61,0,0,1-1.27-2.61,1.91,1.91,0,0,0-.55-.93c-.07-.09-.15-.17-.21-.26l-.36-.46a6.16,6.16,0,0,1-.63-.87l-.2-.34a2.4,2.4,0,0,1-.52-1.71c.09-.44-.26-.8-.62-1.19-.1-.09-.2,1.07-.29,1s0-.43.05-.65c.25-4.47-.12-1.36.65-2.35a1.81,1.81,0,0,0,.31-.92l.09-.54c.13-.73.23-1.19.74-1.52a1.05,1.05,0,0,0,.44-1c-.14-.74.29-1.12,1-1.7a5.15,5.15,0,0,0,.61-.51,10.46,10.46,0,0,1,2.86-2.05,2.28,2.28,0,0,0,1-1.39c.36-1.09.66-2.21,1-3.29l.1-.36a1.38,1.38,0,0,0-.09-.92,4.49,4.49,0,0,1-.34-2.4,10.94,10.94,0,0,0,0-1.51,1.15,1.15,0,0,1,.16-.31,3.37,3.37,0,0,0,.17-.32c.13-.27.25-.53.38-.79a13.48,13.48,0,0,0,.84-2,4.12,4.12,0,0,0,.09-1.6l0-.36a5.42,5.42,0,0,0-.13-.79c0-.15-.06-.29-.08-.44-.33-2.28.24-4.41,1-7a1.84,1.84,0,0,1,.21-.46c.29-.49.6-1,.91-1.46a21.33,21.33,0,0,0,1.89-3.4,32.4,32.4,0,0,1,2.8-5.36c.1-.16.18-.32.26-.48a1.74,1.74,0,0,1,.56-.77,1.7,1.7,0,0,0,.57-1.18l0-.24a3.35,3.35,0,0,1,.86-2,2.56,2.56,0,0,0,.57-1.67l0-.34a.91.91,0,0,1,.48-.75,3.06,3.06,0,0,0,1.11-1.34,39.5,39.5,0,0,1,3-6,15.39,15.39,0,0,0,1-2.12c.23-.52.46-1.05.73-1.55a8.2,8.2,0,0,1,.66-1,7.88,7.88,0,0,0,.83-1.29c.23-.48.5-.95.78-1.42a11.63,11.63,0,0,0,1.23-2.53,1.31,1.31,0,0,1,.38-.48,2.13,2.13,0,0,0,.78-1.94.53.53,0,0,1,0-.24A6.94,6.94,0,0,0,201,371.2a11.21,11.21,0,0,1,.52-1.11,2.79,2.79,0,0,0,.26-.73,2.37,2.37,0,0,1,.09-.36l.12-.34c.17-.48.34-1,.56-1.43.6-1.28,1.24-2.56,1.89-3.82a5.84,5.84,0,0,1,.41-.68c.14-.22.29-.43.41-.65a1.67,1.67,0,0,0,.34-1.22c-.18-.58.07-1,.5-1.65l.14-.22a2.56,2.56,0,0,0,.57-1.31,2.47,2.47,0,0,1,.68-1.6,6.64,6.64,0,0,0,1.5-4.57,3.57,3.57,0,0,1,.94-2.2l.17-.24.14-.14a.91.91,0,0,0,.4-.71,4,4,0,0,1,.78-2.16,7.67,7.67,0,0,0,.7-1.37,5,5,0,0,1,1.24-1.85,3.62,3.62,0,0,0,1.11-1.73,9.39,9.39,0,0,1,1.78-3.38,2.78,2.78,0,0,0,.42-.77,2.47,2.47,0,0,1,.23-.46c.25-.38.5-.77.74-1.17a14.21,14.21,0,0,1,2.05-2.77,9.55,9.55,0,0,0,1.44-1.87,9.5,9.5,0,0,1,1.19-1.6,4.93,4.93,0,0,0,1.07-2.08l.14-.42c.18-.5.34-.69.73-.82a2.88,2.88,0,0,0,1.3-1.07c1-1.43,1.95-2.91,2.87-4.33a1.69,1.69,0,0,0,.31-1c-.08-.9.49-1.46,1.31-2.16.43-.37.8-.77,1.17-1.15s.46-.49.7-.73a7.35,7.35,0,0,0,2.21-3.58,1.4,1.4,0,0,1,.3-.35,2.75,2.75,0,0,0,.42-.47,18.42,18.42,0,0,0,1-1.74c.15-.26.28-.54.41-.82a8.66,8.66,0,0,1,.64-1.21c.54-.82,1.17-1.67,2-2.67a3.46,3.46,0,0,1,.7-.57l.28-.2a5,5,0,0,1,2.32-.59,5.74,5.74,0,0,0,3.26-1l1.44-1,.15.09a3.1,3.1,0,0,1,.7.5,8,8,0,0,1,2.1,3.92,14,14,0,0,0,1.16,3.16l.32.7c.21.46.28.64.18.9a3,3,0,0,0-.16,1.21,2,2,0,0,1-.63,1.87,2.67,2.67,0,0,0-.72,1.77,1.64,1.64,0,0,1-.58,1.18,3.24,3.24,0,0,0-1.21,2.66,2.11,2.11,0,0,1-.5,1.28,4.42,4.42,0,0,0-.66,2,16.49,16.49,0,0,0,0,2.63,1.16,1.16,0,0,1-.32,1,8.72,8.72,0,0,0-2.05,4.54,4.86,4.86,0,0,1-1.62,3.13,2,2,0,0,0-.66,1.43,12.62,12.62,0,0,1-.67,4.27,6,6,0,0,0,0,3,15.53,15.53,0,0,1,.12,4.57,1.64,1.64,0,0,1,0,.26,3.8,3.8,0,0,0-.49,3.17l.07.45a6.18,6.18,0,0,1-1.05,3.76,2.34,2.34,0,0,0-.75,1.5c-.13.6-.21.9-.7,1l-.27.09-.36,1.12a19,19,0,0,0-.62,2.06,4.73,4.73,0,0,1-1,2.23,2.79,2.79,0,0,0-.48.87,3.27,3.27,0,0,1-.14.33,1.88,1.88,0,0,0-.12.3,1.07,1.07,0,0,1-.12.26,2.24,2.24,0,0,0-1,2.49,2.69,2.69,0,0,1-.73,2.63,1.52,1.52,0,0,0-.47.83,10.44,10.44,0,0,1-1,2.83,11.16,11.16,0,0,0-1.07,3.15,2,2,0,0,1-.53,1.13,4.08,4.08,0,0,0-1.25,2.85,2.43,2.43,0,0,1-.6,1.62,2.13,2.13,0,0,0-.46.81c-.16.41-.3.83-.45,1.25s-.32.9-.49,1.34a.59.59,0,0,1-.15.17,5,5,0,0,0-1.72,2.85,6.13,6.13,0,0,1-1.32,2.1,3.56,3.56,0,0,0-1,1.95,1.65,1.65,0,0,1-.48.88,7.62,7.62,0,0,0-2.22,3.81,6.73,6.73,0,0,1-1.15,2.17l-.24.35c-.63.93-1.36,1.84-2.07,2.72l-.14.17c-.14.18-.29.35-.44.52a4.56,4.56,0,0,0-1.36,2.41l-.17.16a1.83,1.83,0,0,0-.38.44l-.11.18a2.44,2.44,0,0,0-.46,1.25,1.15,1.15,0,0,1-.59,1.05,5.68,5.68,0,0,0-2.25,3.72,5.1,5.1,0,0,1-2.13,3.74,1.39,1.39,0,0,0-.63.78c-.12.58-.22,1.16-.33,1.73s-.17,1-.26,1.44a2.89,2.89,0,0,1-.3.94l-.44.61a5,5,0,0,0-1.09,2.12,1,1,0,0,1-.42.36c-.69.42-.87.95-.53,1.57l.09.15.16.07a3.94,3.94,0,0,0,1.66.36,6.9,6.9,0,0,0,2.14-.42,41.12,41.12,0,0,1,4.6-1.11l1.5-.3c1-.21,2-.38,2.94-.56l1.08-.19a1.51,1.51,0,0,1,.33,0,11.51,11.51,0,0,0,1.31.08,21.23,21.23,0,0,0,4.25-.58c.49-.11,1-.21,1.48-.3a23.36,23.36,0,0,1,3.6-.36,11.35,11.35,0,0,0,3.89-1,10.62,10.62,0,0,1,3.76-.94h.47a1.49,1.49,0,0,0,.71-.14,7.09,7.09,0,0,1,2.83-.67l.54-.06a4.85,4.85,0,0,0,1.18-.24,6.44,6.44,0,0,1,2.3-.46,5.21,5.21,0,0,1,2.25.52,3,3,0,0,0,1.26.27,4.39,4.39,0,0,0,1.87-.48,9.65,9.65,0,0,1,3.89-1.19,5.28,5.28,0,0,0,2.49-.68,6.57,6.57,0,0,1,1.92-.51l.87-.16.24-.05a2.36,2.36,0,0,0,1.72-.93l.13-.2-.08-.21a4,4,0,0,0-2-2.21c-1.13-.56-2.28-1.11-3.42-1.65l-1.55-.74a1.12,1.12,0,0,1-.22-.11l-1.11-.78c-1.45-1-2.91-2-4.33-3.1a3.46,3.46,0,0,1-.73-.86l-.09-.14c-.56-.82-1.09-1.65-1.6-2.5l-.07-.11a1.87,1.87,0,0,1-.34-.75,5.36,5.36,0,0,0-.68-2.4,8.19,8.19,0,0,1-.75-3.58,3.53,3.53,0,0,0-.39-1.38c-.06-.12-.12-.25-.17-.38a2.09,2.09,0,0,0-.25-.44,2.06,2.06,0,0,1-.15-.24,22,22,0,0,0-.72-5.57l0-.17c-.1-.43-.08-.58,0-.63a4.08,4.08,0,0,0,.32-2.82l0-.3a2.71,2.71,0,0,1,.33-1.38c.28-.63.61-1.24.94-1.85l.47-.87a1.63,1.63,0,0,0,.23-.66,7.89,7.89,0,0,1,1-3.27,9.74,9.74,0,0,0,1.12-3.24,1.29,1.29,0,0,1,.23-.35,2.86,2.86,0,0,0,.3-.41c.15-.27.3-.54.44-.81s.4-.75.62-1.12l.18-.31a2.09,2.09,0,0,1,.57-.77,4.34,4.34,0,0,0,2.07-2.89,6.58,6.58,0,0,1,1.12-2.08c.26-.36.52-.73.74-1.11s.47-.75.72-1.12.43-.64.63-1a13.82,13.82,0,0,1,2.7-3.27,19,19,0,0,0,1.73-1.77c.9-1,.81-1.13,0-2.15-.05-.06-.09-.35-.13-.42s.38-.67.8-.67l.23,0,.55,0a3.09,3.09,0,0,0,2.32-.58,1.7,1.7,0,0,1,.38-.23c.75-.25,1.13-.61,1.9-.85l1.2-.68c-.05.1.42.81.22,1s-.41.73-.71,1.05-.77.83-1.19,1.22-1,.89-1.56,1.31l-.68.54a1.48,1.48,0,0,0-.25.16c-.33.33-.64.66-1,1a9.71,9.71,0,0,1-2.05,1.85,1.28,1.28,0,0,0-.51.89,4.15,4.15,0,0,1-1.57,2.39,4.5,4.5,0,0,0-.85,1.21l-.18.33c-.25.45-.48.91-.71,1.36a9.9,9.9,0,0,1-1.9,2.94,5.62,5.62,0,0,0-1.14,1.88l-.17.39c-.26.56-.47,1.15-.68,1.74,0,0-.33.94-.38,1.07s-.11.34-.18.51-.06.17-.1.26a1.33,1.33,0,0,1-.18.41,6.2,6.2,0,0,0-1.87,3.21l-.19.55a14.23,14.23,0,0,1-1.06,2.39,7.21,7.21,0,0,0-.66,3.93v.23c0,.24-.08.34-.08.54,0,0,.06.08.08.12l.16.25a.71.71,0,0,0,.18.55l.17.17v0c.37,0,.52-.35,1.1-.64l.13-.06.08-.12c0-.06,1-1.53,1.3-2.08a2.55,2.55,0,0,0,0-1.69,2.8,2.8,0,0,1-.05-1.27,8.1,8.1,0,0,1,.9-.75,5.39,5.39,0,0,0,1.21-1.07c.2-.3.38-.91-.34-2.75a15.82,15.82,0,0,1,2.59-2.75l.15-.13v-.19a4.14,4.14,0,0,1,.43-1.68,17.75,17.75,0,0,1,1.44-1.2,20.32,20.32,0,0,0,2.71-2.38,18.34,18.34,0,0,0,1.38-2.73,16.78,16.78,0,0,1,1.69-3.25c.8-.58,3.83-2.91,3.83-2.91l2.62-2.86,1.86-3,2.74-4.66a4.15,4.15,0,0,0,1.09-2.14,3.36,3.36,0,0,1,2.07-2.42,1.33,1.33,0,0,0,.69-.49,5.71,5.71,0,0,1,2.2-1.8c.37-.21.74-.42,1.08-.65l0,0a4.82,4.82,0,0,0,3-2.57,7.11,7.11,0,0,1,1-1.36,1.86,1.86,0,0,0,.43-.73.89.89,0,0,0-.14-.94c-.22-.27-.58-.07-1-.07H285a4.37,4.37,0,0,0-.92.18,1.73,1.73,0,0,1-.58.1,17.51,17.51,0,0,1-2.32-.64c-.09,0,1-.43.88-.46.68-.13,3.54-.59,3.54-.59a6.85,6.85,0,0,0,1-.29l.81-.2c1-.4,2.08-.47,3.1-.92a7.26,7.26,0,0,0,1.6-1.09,1.73,1.73,0,0,1,1.11-.45,1.47,1.47,0,0,1,.36,0,10.24,10.24,0,0,0,1.24.15,5.41,5.41,0,0,1,1.77.34,1.57,1.57,0,0,0,.63.12,4.9,4.9,0,0,0,1.33-.26,27,27,0,0,0,2.63-1,5.54,5.54,0,0,1,2.14-.46,4.58,4.58,0,0,1,.9.09,2.73,2.73,0,0,0,.41,0,3.38,3.38,0,0,0,1.46-.36,5.1,5.1,0,0,1,2.39-.57c.21,0,.41,0,.62,0s.6,0,.9,0l1,0,1,0h.6a8,8,0,0,1,2.39.49,4.14,4.14,0,0,0,1.53.31,4.32,4.32,0,0,0,.85-.09,8.41,8.41,0,0,1,1.46-.11c.27,0,.55,0,.82,0H320a1.48,1.48,0,0,0,1-.29,1.49,1.49,0,0,1,1.09-.4,6.29,6.29,0,0,1,.92.1c.23,0,.45.07.68.09a8.14,8.14,0,0,1,1.62.4l.3.1a2.7,2.7,0,0,1,.85.4,3.38,3.38,0,0,0,1.94.86.94.94,0,0,1,.49.37,5.26,5.26,0,0,0,2.57,2.13,1.91,1.91,0,0,1,1.13,1.45,12.76,12.76,0,0,0,.89,2.21c.79,1.57,1.62,3.12,2.44,4.67l.15.27c0,.19.1,1.78.15,3.05.16,4,.23,4.44.46,4.68s.21.88.22,1.41a3,3,0,0,0,.56,2.21l.18.18.27,0a2.28,2.28,0,0,0,1.82-2,27.64,27.64,0,0,1,1.2-4.62c.23-.66.36-1,.22-1.41a2.61,2.61,0,0,1,.26-2,5.88,5.88,0,0,0,.37-1.19c.07-.37.14-1.08.2-1.82s.17-1.73.25-2.13c.2-.95.36-1.91.52-2.87l.22-1.31a1.11,1.11,0,0,0,0-.19c0-.06,0-.15,0-.18a3.85,3.85,0,0,0,.88-2,6.14,6.14,0,0,1,.18-.74c.3-.92.68-1.85,1.05-2.74l.54-1.34c0-.1.08-.2.13-.3a2.2,2.2,0,0,0,.29-1.16,4.71,4.71,0,0,1,.71-2.51,11.4,11.4,0,0,0,.49-1.07c.29-.75.6-1.49.9-2.24s.68-1.66,1-2.5a3.92,3.92,0,0,0,.19-.86,4,4,0,0,1,.08-.5l.05-.19a1.61,1.61,0,0,1,.13-.42,2.59,2.59,0,0,0,1.08-2.14,1.85,1.85,0,0,1,.32-.65l.14-.22.11-.09a1.36,1.36,0,0,0,.35-.39l.14-.27c.6-1.19,1.21-2.38,1.77-3.59a5.73,5.73,0,0,0,.26-.73,2.07,2.07,0,0,1,.55-1.08,1.44,1.44,0,0,0,.35-1.14l0-.56a6.18,6.18,0,0,1,.82-3.3,3,3,0,0,0,.41-1.24,5.17,5.17,0,0,1,.11-.54,7.34,7.34,0,0,1,.34-1,1,1,0,0,1,.92-.63,1.34,1.34,0,0,1,.74.25l.28.18a3.15,3.15,0,0,1,.65.49,1.39,1.39,0,0,1,.39.62,3.5,3.5,0,0,0,.25,2,3.08,3.08,0,0,1,.26,1.19c0,.51.55.94,1,1.21,1.12.64,1.6,1.27,1.65,2.19.08,1.41,1.45,2,2.19,2.3l.52.21a3,3,0,0,1,1.23.66,1.43,1.43,0,0,0,.7.36l.13,0c.57.19,1.15.7,1.1,1.28a6.57,6.57,0,0,0,.68,3.3c.27.61.14.76-.21.93a1.61,1.61,0,0,0-.87,1.71c0,.57,0,1.14.06,1.72s0,.95,0,1.42,0,.65.07,1a13.29,13.29,0,0,1,.07,1.52,20.87,20.87,0,0,1-.19,2.08l-.09.78c-.08.74-.2,1.47-.33,2.21a20.26,20.26,0,0,0-.43,3.85,11,11,0,0,1-.2,1.94c-.06.38-.12.76-.16,1.13l0,.26a14.53,14.53,0,0,0-.14,2.1,1.76,1.76,0,0,1-.17.61,1.75,1.75,0,0,0-.1,1.55l-.78,4.74a2.76,2.76,0,0,1-.08.27,1.48,1.48,0,0,0-.08.87,3.6,3.6,0,0,1-.58,2.7,1.92,1.92,0,0,0,.21,2.67,9.93,9.93,0,0,0,.25,2.24,7.1,7.1,0,0,1,.11,3.17,3.34,3.34,0,0,0,.49,2.83,1.63,1.63,0,0,1-.1,1.9,3.58,3.58,0,0,0-.47,2.79,10.54,10.54,0,0,1,.1,1.13l0,.51c0,.39.06.77.1,1.15.08.88.16,1.79.18,2.68a16.64,16.64,0,0,1-.14,2.08l-.09.88c0,.24-.05.47-.08.71a8.43,8.43,0,0,0-.12,1.52,20.75,20.75,0,0,1-.72,5.31l-.18.83a14,14,0,0,0-.19,4.24l.09,1.14.85-.84c.31-.31.62-.6.92-.89a13.9,13.9,0,0,0,3.52-4.41,9.08,9.08,0,0,1,1.19-1.81l.5-.66a3.92,3.92,0,0,0,.32-.53c.23-.43.39-.69.78-.79s.56-.54.66-.93l0-.15a3,3,0,0,1,1.12-1.88c.19-.12.82-.55.78-1.08a2.3,2.3,0,0,1,.79-1.61,6.41,6.41,0,0,0,.66-.87c.2-.34.37-.71.54-1.07.09-.2.19-.4.28-.59a4.67,4.67,0,0,1,.38-.65c.18-.24.37-.46.57-.68a10.12,10.12,0,0,0,1-1.31c.69-1.09,1.35-2.2,2-3.32.43-.73.86-1.46,1.31-2.18a1.93,1.93,0,0,1,.47-.43l.73-.47c.41-.26.83-.52,1.22-.82a1.82,1.82,0,0,0,.58-1.19,3.39,3.39,0,0,1,1.36-2.4,4.06,4.06,0,0,0,.75-.87c.51-.81,1-1.62,1.49-2.43a2.61,2.61,0,0,0,.42-1c.2-1.54,1.36-2.28,3.15-3a3.4,3.4,0,0,0,2.05-2.09,8.83,8.83,0,0,1,1.19-1.86l.55-.73c.73-1.05,1.49-2.09,2.25-3.13.14-.19.3-.38.46-.58l.37-.45.11-.12a1.22,1.22,0,0,0,.39-.74,2,2,0,0,1,.69-1.19c.15-.16.3-.32.44-.5s.48-.6.74-.89a9.14,9.14,0,0,0,2.11-3.47,1.33,1.33,0,0,1,.21-.27c.07-.08.15-.16.21-.24l.46-.6.9-1.17.21-.32.13-.21,4.07-5.63.15-.25c0-.05.06-.12.07-.14a4.24,4.24,0,0,0,1.73-1.87,7.91,7.91,0,0,1,.52-.81c.41-.53.85-1.05,1.3-1.57s.63-.73.93-1.11a10.74,10.74,0,0,0,.9-1.28,9,9,0,0,1,2.45-2.76,9.58,9.58,0,0,0,2.84-4.13h.07l.93-.16a4.29,4.29,0,0,0,3.05-1.83,6.21,6.21,0,0,1,1.07-1c.24-.2.49-.4.72-.62a6.54,6.54,0,0,0,.83-1,13.31,13.31,0,0,0,.82-1.3l.74-1.39c.23-.44.46-.88.7-1.31a2.57,2.57,0,0,1,.45-.69,11.68,11.68,0,0,0,3.15-3.88,8.89,8.89,0,0,1,1.14-1.93,10.24,10.24,0,0,0,1.41-2.17,11.72,11.72,0,0,1,1.12-1.94,1.47,1.47,0,0,1,1.22-.78l1,.12c.14,0,.38.73.42.78a2.74,2.74,0,0,1,0,1l-.56,2.12a.84.84,0,0,1,0,.14,12,12,0,0,0-2.28,2.21c-.55.77-1.1.58-1.52,1.95a11.71,11.71,0,0,1-.59,1.23l-.18.4-.1.18a7.1,7.1,0,0,0-.45,1c-.13.38-.25.77-.37,1.16s-.24.84-.39,1.25a15.36,15.36,0,0,1-.85,2.07c-.85,1.52-1.42,2.85-.2,4l.56.5.41.35a2.2,2.2,0,0,0,1.57.63,2.83,2.83,0,0,0,.63-.07,1.72,1.72,0,0,1,.39,0,1.54,1.54,0,0,1,1.54,1.18,1.73,1.73,0,0,1-.37,1.83,5.72,5.72,0,0,0-1.37,2c-.14.27-.27.55-.43.82-.56.93-1.17,1.85-1.82,2.74a2.29,2.29,0,0,0-.49,2.12,4.81,4.81,0,0,1,0,2.29l-.09.51a.78.78,0,0,1-.08.29l-.69,1.09c-.31.5-.63,1-.93,1.51a2.18,2.18,0,0,0-.28.85,5.1,5.1,0,0,1-1.66,3.13,4.89,4.89,0,0,0-1.57,2.54,5,5,0,0,1-.8,1.53c-.15.23-.3.46-.44.7s-.28.46-.43.69c-.25.4-.51.8-.72,1.22a2.11,2.11,0,0,0,.22,2.19,3.33,3.33,0,0,0,.24.32L423.38,342a1,1,0,0,0-.36.65c0,1-.73,1.68-1.54,2.41-.32.31-.65.61-.93.94a3.16,3.16,0,0,0-.58,1.1c-.07.17-.13.35-.21.52l-.15.31a1.75,1.75,0,0,1-.38.64,9.24,9.24,0,0,0-3.1,4.28,2,2,0,0,0-.08.26,1.26,1.26,0,0,1-.21.49,4.05,4.05,0,0,0-1.46,2.75,3.64,3.64,0,0,1-1.3,2.35,1.45,1.45,0,0,0-.59.75,3.07,3.07,0,0,1-1.25,1.59,1.67,1.67,0,0,0-.47.54c-.58,1.17-1.15,2.35-1.7,3.54-.08.17-.16.34-.23.51a5.22,5.22,0,0,1-1.16,1.87,1.87,1.87,0,0,0-.65,1.16,3.21,3.21,0,0,1-1.15,1.93,4.34,4.34,0,0,0-.67.93,4,4,0,0,1-.2.35l-.32.51a7.21,7.21,0,0,1-.66,1,13.51,13.51,0,0,0-2.27,4.39,5.37,5.37,0,0,1-.42.9c-.37.67-.77,1.33-1.16,2-.07.11-.13.23-.19.34a2.37,2.37,0,0,1-.43.65,3.25,3.25,0,0,0-1.16,2.09,3.55,3.55,0,0,1-1.76,2.79,1.76,1.76,0,0,0-.83.9A3.2,3.2,0,0,1,394.4,389a3.37,3.37,0,0,0-1.58,3.54,1.87,1.87,0,0,1-.64,1.79,3,3,0,0,0-.69,1.32l-.09.27c-.12.32-.21.65-.3,1a6.29,6.29,0,0,1-.91,2.15,16.7,16.7,0,0,0-1.61,2.92c-.19.4-.38.8-.58,1.19a1.12,1.12,0,0,0-.15.76,1.31,1.31,0,0,1-.67,1.43,1.32,1.32,0,0,0-.54.85,4.81,4.81,0,0,1-.86,2,9.27,9.27,0,0,0-.67,1.2,7.43,7.43,0,0,1-1.35,1.88,2.5,2.5,0,0,0-.73,1.58c-.11,2-.31,2.45-1.82,3.75l-.1.08,0,.1c-.14.34-.25.66-.36,1a4.48,4.48,0,0,1-.64,1.37,8,8,0,0,0-1.41,3.15l-.08.27a4,4,0,0,1-.42.89l-.17.3c-.14.28-.29.54-.45.81a15,15,0,0,0-.9,1.74l-.05.12c-.21.5-.34.79-.71,1a2.1,2.1,0,0,0-1.05,1.53,1.75,1.75,0,0,1-.54.95A21.82,21.82,0,0,0,371,433a18,18,0,0,1-1.65,1.61c-.29.26-.58.52-.86.79a2.21,2.21,0,0,0-.29.32c-.05.06-.45.5-.59.67a14.05,14.05,0,0,1-1.06,1.11,1.91,1.91,0,0,0-.91,1.73c0,.27-.1.49-.51.81l-.83.66c-.52.42-1,.84-1.58,1.22a4.31,4.31,0,0,1-1.25.5,17.34,17.34,0,0,0-6.25,2.75,3.12,3.12,0,0,1-1.59.74,4.46,4.46,0,0,0-2.41,1.37c-.2.18-.41.37-.62.54a5.28,5.28,0,0,0-.73.69,4,4,0,0,1-.72.66,5,5,0,0,1-1.9.84,13.66,13.66,0,0,1-2.36.17l-1,0h-.28a5.17,5.17,0,0,0-3.63,1.25.63.63,0,0,1-.45.21.82.82,0,0,1-.28-.07c-.71-.3-1.41-.63-2.1-1l-.44-.22c-1.25-.62-2.5-1.24-3.73-1.88a10.66,10.66,0,0,1-2.45-2c-.37-.36-.74-.73-1.14-1.07a10.46,10.46,0,0,1-1-1.06l-.23-.25a1.53,1.53,0,0,1-.28-.35,4.14,4.14,0,0,0-1.41-2.3l-.29-.3a1.69,1.69,0,0,1-.44-1.33c0-.84,0-1.7.09-2.53a18.09,18.09,0,0,0-.11-4.58,8.86,8.86,0,0,1,.34-4.21.79.79,0,0,0,.08-.42,9.67,9.67,0,0,1,.4-3.56,15.27,15.27,0,0,0,.47-2.73c.08-1.71.16-3.4.32-5.06.09-.94.21-1.89.33-2.83.17-1.28.34-2.62.43-3.94a61.7,61.7,0,0,1,.69-6.22c.1-.66.22-1.32.33-2,.23-1.3.45-2.61.64-3.92a26.07,26.07,0,0,0,.34-3.81,5.53,5.53,0,0,1,.43-2.08,1.89,1.89,0,0,0,.11-1.52,1.39,1.39,0,0,1,.23-1.59,3.35,3.35,0,0,0,.6-2.38,3.46,3.46,0,0,1,.35-1.86,4.56,4.56,0,0,0,.28-2,6.57,6.57,0,0,1,0-.77l0-.39-1-.3-.23.28-.29.34a6.5,6.5,0,0,0-.68.83,62,62,0,0,1-7.15,9.12,22.41,22.41,0,0,1-3,2.43c-.5.36-1,.72-1.47,1.09-.16.13-.33.24-.5.36a6.47,6.47,0,0,0-1.18,1,49.38,49.38,0,0,1-7.32,6.52l-.23.18c-.77.6-1.49,1.26-2.19,1.9l-.91.81a1.18,1.18,0,0,0-.37.49,2.4,2.4,0,0,1-2.1,1.5l-.46.07v.43c.05,1.31-.8,2-2.08,2.66a3.6,3.6,0,0,0-.78.58,3.65,3.65,0,0,1-.48.38,7.83,7.83,0,0,1-1.61.81,2.07,2.07,0,0,0-1.58,1.51c-.15.77-.64,1.22-1.77,1.59l-.61.19a7.27,7.27,0,0,0-2.9,1.42,1.82,1.82,0,0,1-.64.15l-.33,0a1.92,1.92,0,0,0-1.57,1c-.47,1.08-1.51,1.32-2.73,1.6l-.46.11c-.46.11-.93.19-1.4.27l-.77.15-.45.11a2.2,2.2,0,0,1-.56.11h-.28a7.77,7.77,0,0,0-3.81,1.12,7.39,7.39,0,0,1-3.34.63l-.67,0-1,0H273a1.65,1.65,0,0,1-1.31-.55,5.84,5.84,0,0,0-3.16-1.41l-.58-.11-.07.54a3.13,3.13,0,0,1-.9,2.19l-.33.28c-.23.21-.47.41-.71.6a1.37,1.37,0,0,1-.2.13,1.74,1.74,0,0,0-.51.38,14.09,14.09,0,0,1-3.1,2.53l-1.22.83a3.8,3.8,0,0,1-1.69.42,3.63,3.63,0,0,0-2.3.71.58.58,0,0,1-.16.1c-1.74.14-1.91,1.4-2,2.32a5.49,5.49,0,0,1-.48,1.37l-.2.44a.48.48,0,0,1-.11.15,3.25,3.25,0,0,0-1.8,1l-.41.35a14.13,14.13,0,0,1-3.39,1.83l-1,.42a29.35,29.35,0,0,1-4.71,1.68,2.58,2.58,0,0,0-1,.6,2.62,2.62,0,0,1-.48.35,10.56,10.56,0,0,0-1.63,1,6.8,6.8,0,0,1-2.24,1.22,7,7,0,0,0-2.46,1c-.54.44-1,.13-1.68.29-.22,0-.7-.24-.92-.19-.42.12-.85.43-1.29.51s-.69.37-1,.45a4,4,0,0,0-2.4,1.17,2.92,2.92,0,0,1-1.51,1c-1.23.37-2.45.79-3.64,1.27a4.18,4.18,0,0,0-.94.56,4.52,4.52,0,0,1-.51.34,5.43,5.43,0,0,1-1.27.55l-.3.07a3.3,3.3,0,0,0-2,1l-.12,0a5.08,5.08,0,0,0-2.24.66,4.44,4.44,0,0,1-1.56.53,2.09,2.09,0,0,0-1.11.52,3.39,3.39,0,0,1-2.13.66c-.52,0-1,.06-1.56.1-.71.06-1.42.12-2.13.13a3,3,0,0,0-2.25,1,2.41,2.41,0,0,1-.92.51l-.47.2a12.87,12.87,0,0,1-3.86.88,21.43,21.43,0,0,0-2.91.52A1.63,1.63,0,0,1,195.68,456.29Zm80.83-70.66a1,1,0,0,1-.27.4c-1.22,1.21-1.63,2.5-1.11,3.45l.24.47c.43.89,1,2.1,2.39,2.26l.3,0a7.25,7.25,0,0,0,.85.07,3.25,3.25,0,0,0,2.15-.94l1-.81a41,41,0,0,1,3.28-2.5,10.75,10.75,0,0,1,1.56-.84,4.92,4.92,0,0,0,2.39-1.87l3.38-5a64.67,64.67,0,0,0,3.49-5.84,24.39,24.39,0,0,0,1.27-3,25.8,25.8,0,0,1,2.21-4.8c.23-.35.39-.58.51-.74a.6.6,0,0,0,.44.18c.44,0,.66-.4.82-.7.37-.67.45-.71.64-.8a4.62,4.62,0,0,0,1.26-1,4.93,4.93,0,0,0,1.43-3.32l0,0,.16.18h.56l0-.07a3.11,3.11,0,0,0,2,1,1.17,1.17,0,0,0,1.14-.8,23.92,23.92,0,0,1,2-3.38s2.5-2.38,2.89-5c.07-.51.17-1,.26-1.46.34-1.68.66-3.28-.46-4.38a2.92,2.92,0,0,0,.2-.85,3.36,3.36,0,0,0-.08-.85c0-.11,0-.21-.05-.32a2,2,0,0,0-2.05-1.9,3.47,3.47,0,0,0-1,.16l-.33.11a2.39,2.39,0,0,1-.57.16,3.37,3.37,0,0,0-1.06-.18,3.44,3.44,0,0,0-2,.74,1.07,1.07,0,0,1-.49.15,3.78,3.78,0,0,0-2.19,1.24c-1,1-1.95,1.94-2.94,2.9l-.77.75-.64.61-.73.7-.37.35a12.16,12.16,0,0,0-1.15,1.22,3,3,0,0,1-1.09,1,2.84,2.84,0,0,0-1.26,1.28,4.82,4.82,0,0,1-1.67,2,3.33,3.33,0,0,0-.83.85l-.19.25c-.12.15-.23.3-.34.46a3.59,3.59,0,0,1-.46.57c-.23.23-.45.49-.66.74a3.67,3.67,0,0,1-1.69,1.33.84.84,0,0,0-.46.35l-.56.69a13.57,13.57,0,0,0-1.28,1.73,32.8,32.8,0,0,0-2.11,4.13,6.8,6.8,0,0,1-2.15,2.87,7.69,7.69,0,0,0-2.66,4.18c0,.13-.06.28-.09.43a1.56,1.56,0,0,1-.2.66,4.77,4.77,0,0,0-1.73,3.36l0,.17a1.41,1.41,0,0,1-.2.38l-.08.12c-.66,1.08-1.26,2.48-.21,3.88a3.18,3.18,0,0,1-.3.36,1.74,1.74,0,0,0-.56,1.95l.16.4Zm15-35.9-.82.32a4.37,4.37,0,0,0-.43.22,1.74,1.74,0,0,1-.5.22,5.58,5.58,0,0,0-4.2,3,6,6,0,0,1-2.61,2.44,6,6,0,0,0-3.19,3.42,7.93,7.93,0,0,1-2,3.62,1.32,1.32,0,0,0-.32.65,1.39,1.39,0,0,1-.06.19l-.14.39.38.2c.28.15.2-.13.5-.13a2.89,2.89,0,0,0,1-.23,1.06,1.06,0,0,1,.25-.09c.33-.11.65-.24,1-.37a11,11,0,0,1,1.09-.4c.87-.25,1.06-.75,1.42-1.59.11-.26.21-.52.31-.78a9.65,9.65,0,0,1,1.7-2.88l.26-.3a5.65,5.65,0,0,1,1.83-1.55,3.12,3.12,0,0,0,1.41-1.37,11.25,11.25,0,0,1,2.23-2.8l.24-.1c.55-.51,1.37-.91,1.56-2.12l.38-.63Z" transform="translate(-64.33 -144.33)"/><path class="cls-1" d="M409.3,444.61q-.07,0-.18-.42a2.79,2.79,0,0,1,0-1.91c.4-1,.06-1.42-.86-1.94s-.88-.5-.59-1.32a2.19,2.19,0,0,0-1.29-2.87,2.43,2.43,0,0,0-1-.27,1.49,1.49,0,0,0-1.29.8c-.09.14-.16.28-.24.43a2.86,2.86,0,0,1-.24.43,3.53,3.53,0,0,1-.34.32.6.6,0,0,1,0-.27c0-.93-.53-1.55-1.71-1.82-.66-.16-1.23-.32-1.74-.49a12.29,12.29,0,0,1-1.51-.62c-.53-.25-.55-.39-.51-.55s.1-.31.61-.42a7.91,7.91,0,0,0,3.63-1.9c1.23-1.13,2.53-2.37,3.95-3.8a4,4,0,0,0,1.21-3.13c0-.46,0-.92,0-1.37s0-.63,0-.93a3.13,3.13,0,0,0-.81-1.8c-.52-.72-.66-1-.43-1.23a7.86,7.86,0,0,0,2.34-4.45,4.65,4.65,0,0,0-.12-1.5,2.62,2.62,0,0,1,0-1.57,4.09,4.09,0,0,0,.24-3.26,2.18,2.18,0,0,1,.09-1.73,1.58,1.58,0,0,0-.15-1.4c-.15-.33-.24-.53-.16-.67a5.61,5.61,0,0,0,.72-3.51,3.61,3.61,0,0,1,1.18-3.23,1,1,0,0,0,.08-1.24,1,1,0,0,1-.1-.28,6.76,6.76,0,0,0,1.73-4.67,7.65,7.65,0,0,1,1.24-4.57,3.49,3.49,0,0,0,.59-2.66,1.54,1.54,0,0,1,.54-1.46,1.81,1.81,0,0,0,.3-1.87,2.07,2.07,0,0,1-.08-1,15.47,15.47,0,0,1,1.61-3.27,15.87,15.87,0,0,0,1.69-3.47c.08-.06.73-.29,1.12-.44,1-.36,1.82-.65,1.79-1.27a13.83,13.83,0,0,1,1.21-5.29c.49-1.3,1.05-2.54,1.59-3.74.29-.64.59-1.29.86-1.93a7,7,0,0,1,1.55-1.82c1-1,2.05-1.95,2-3.09-.07-2.16,1.81-4.14,3.74-6a5.65,5.65,0,0,0,1.87-3.72,3.13,3.13,0,0,1,.78-1.81,4.92,4.92,0,0,0,1-4.41l-.1-.44c-.07-.25-.13-.49-.18-.74a4.43,4.43,0,0,1,.36-3.09l.18-.34c.37-.67.73-1.33,1.07-2l.21-.43a10.36,10.36,0,0,0,.82-1.94,8,8,0,0,1,1.5-3,5.27,5.27,0,0,0,1.22-3.29,4.39,4.39,0,0,1,1.24-3.31,2,2,0,0,0,.62-1.05,3.57,3.57,0,0,1,1.11-1.82c.19-.22.39-.44.56-.66.42-.53.68-.58.84-.58a2.19,2.19,0,0,1,1,.47,2.16,2.16,0,0,0,1.24.49,2.38,2.38,0,0,0,2-1.63,2.52,2.52,0,0,1,.72-1.29c.17-.22.35-.44.5-.67a.71.71,0,0,1,.62-.36l.31.06a3.83,3.83,0,0,0,1.18.22,4,4,0,0,0,2.12-.58,1.23,1.23,0,0,1,.62-.18,1.7,1.7,0,0,1,.78.27c.57.33.59.6.44,1a1.39,1.39,0,0,0,.69,2,2,2,0,0,0,.86.21,2.85,2.85,0,0,0,1.63-.51c.44-.3.89-.61,1.39-1l.21-.14.35,1.1.23.09a1.33,1.33,0,0,0,.51.17h.15l4.57-.89.36-.08.51-.11.24,0q3-.36,5.91-.68c.58-.06,1.16-.1,1.74-.14l1.2-.09a12.4,12.4,0,0,0,3.13-.81c.32-.12.63-.23.95-.33a17,17,0,0,1,1.74-.46l1.33-.31a11.34,11.34,0,0,0,1.18-.31,17.88,17.88,0,0,1,5.12-.64,5.7,5.7,0,0,1,2,.31,4.34,4.34,0,0,0,2.68.33l.32,0a4.48,4.48,0,0,1,1.08.21l.58.18a7.69,7.69,0,0,0,2.28.49,4.8,4.8,0,0,0,.75,0,3.32,3.32,0,0,1,.55,0,13.34,13.34,0,0,1,1.72.23l1.14.21a21.16,21.16,0,0,0,3,.37,10,10,0,0,0,1.67-.1,2.77,2.77,0,0,1,.42,0,3.81,3.81,0,0,1,1.6.44l0,.12a1.58,1.58,0,0,0-.1,1.34,2,2,0,0,0,1.16.77,5.25,5.25,0,0,1,.53.24,1,1,0,0,1,.38.33,2.69,2.69,0,0,0,2.16,1.53l.25.07h0l-.38,0a9.59,9.59,0,0,0-1.9.46,7.29,7.29,0,0,1-2.49.6,5.69,5.69,0,0,0-2.28.58,8.76,8.76,0,0,1-2.71.83,3.39,3.39,0,0,0-1.73.65,2.84,2.84,0,0,1-1.39.58l-.24.06a13.74,13.74,0,0,0-1.61.51l-.43.16c-.63.22-1.23.49-1.84.75a13.32,13.32,0,0,1-3.82,1.22c-1.38.15-2.74.43-4.06.69l-1.15.23c-.4.08-3.4.8-3.87.95s-2.38.76-2.38.76c-.86.28-1.73.52-2.61.75a28.68,28.68,0,0,0-5.35,1.84,5.06,5.06,0,0,1-1.32.35c-.34.06-.69.13-1,.22-1.48.43-3,.89-4.42,1.36a1.4,1.4,0,0,0-1,1.58,4.85,4.85,0,0,1,0,.66,4.51,4.51,0,0,0,0,1,7.74,7.74,0,0,0,.42,1.32c.05.11.09.23.14.35a5.8,5.8,0,0,1-.82.53,2.23,2.23,0,0,0-1.38,2.46,2.08,2.08,0,0,1-.36,1.6,3.3,3.3,0,0,0-.38,3.08,2,2,0,0,1,0,1.89,1.12,1.12,0,0,0-.17.73,3.71,3.71,0,0,1-.75,2.45,2.79,2.79,0,0,0-.19,1.8c.11.66,0,.89-.63,1a1.33,1.33,0,0,0-1.15,1.55,6.1,6.1,0,0,1-.68,3.21c-.08.22-.3.77-.3.77l-.51,1.35a1.82,1.82,0,0,0-.07.25,1.3,1.3,0,0,1,0,.13,3.24,3.24,0,0,0-.9,2.81,5.75,5.75,0,0,1,0,.93,1.36,1.36,0,0,0,.8,1.32,2.08,2.08,0,0,0,.6.09,1.83,1.83,0,0,0,1.22-.33,3.26,3.26,0,0,1,2.1-.68l.24,0a6.49,6.49,0,0,0,1.82-.53l.45-.18c.43-.16.86-.34,1.28-.51.58-.24,1.15-.47,1.74-.68a1.94,1.94,0,0,1,.66-.13c.2,0,.41.08.79.43a4.33,4.33,0,0,0,2.88,1.28,4.61,4.61,0,0,0,2.55-.75,4.85,4.85,0,0,1,2.44-.74,14.38,14.38,0,0,0,2.79-.38,4,4,0,0,1,1.09-.12,6.76,6.76,0,0,1,1.64.29,1.53,1.53,0,0,0,.43.05c.26,0,.66,0,1.09,0s1,0,1.42,0l.41,0a3.44,3.44,0,0,0,2.23,1,4.61,4.61,0,0,0,.52,0h.18a2,2,0,0,1,.52.08,3.34,3.34,0,0,0,.94.14,4.48,4.48,0,0,0,1.66-.29,3.09,3.09,0,0,1,1-.2c.24,0,.88,0,.85,1.25,0,.16,0,.31,0,.47a5.42,5.42,0,0,0,0,.9,3,3,0,0,0,1.45,2.49l-.18.12a4.92,4.92,0,0,1-2.19.91,9.19,9.19,0,0,0-2.17.62c-.39.14-.79.29-1.19.41-.9.24-2.53.61-4.11,1s-2.88.65-3.72.87a12.71,12.71,0,0,0-1.93.68,35.57,35.57,0,0,0-3.42,1.83,9.79,9.79,0,0,1-3,.9l-.59.12a7.4,7.4,0,0,0-2.53.84,4.24,4.24,0,0,1-1.5.52,4.5,4.5,0,0,0-2.52,1.09,2.6,2.6,0,0,1-1.48.48l-.62.09a11,11,0,0,0-4.18,1.12,12.58,12.58,0,0,1-2.74,1c-.46.13-.92.26-1.36.41l-.65.21a44.39,44.39,0,0,0-5.78,2.21,2,2,0,0,0-1.25,1.32,1,1,0,0,1-.28.44,1.64,1.64,0,0,0-.47,1.95c.22.5.06.95-.55,1.53a5.68,5.68,0,0,0-1.36,2.23l-.42,1.11a18.23,18.23,0,0,1-2.57,5.12,3,3,0,0,0-.41.84,2.87,2.87,0,0,1-.15.37c-.12.27-.25.53-.38.79-.21.42-.42.84-.6,1.26l-.18.39a3.49,3.49,0,0,0-.47,1.58,6.5,6.5,0,0,1-.89,3c-.13.27-.26.55-.38.82a4.09,4.09,0,0,0-.23.9c0,.16-.07.34-.11.54l-.18.8.88-.25.95-.25a9.13,9.13,0,0,0,1.6-.5,14,14,0,0,1,1.86-.66A10.71,10.71,0,0,0,447.9,406a7.7,7.7,0,0,1,2.44-.89l.71-.19a12.12,12.12,0,0,0,2.78-1.09A12,12,0,0,1,456,403l1-.34.79-.3,3.5-1.31a7.24,7.24,0,0,1,.83-.24l.67-.18c.55-.17,1.1-.36,1.64-.56l.39-.18a1.28,1.28,0,0,1,.28-.13,7.7,7.7,0,0,0,3.78-1.39,4,4,0,0,1,1.62-.56,7.94,7.94,0,0,0,3.27-1.24,9.3,9.3,0,0,1,3.85-1.29,3.88,3.88,0,0,0,1.47-.46,2.88,2.88,0,0,1,1.64-.43,4.62,4.62,0,0,1,1,.14,3.32,3.32,0,0,0,.74.11,3.25,3.25,0,0,0,1.59-.39,3.6,3.6,0,0,1,1.27-.35,6.08,6.08,0,0,0,4.17-1.58,1.06,1.06,0,0,1,.56-.17l.46,0a6.46,6.46,0,0,0,3-.67,4.88,4.88,0,0,1,2.21-.48l.33,0,.42,0a9.48,9.48,0,0,0,3.09-.54c1-.29,2.06-.5,3.09-.7.52-.1,1-.2,1.56-.32l.34-.06a2.63,2.63,0,0,0,1.27-.45,4.51,4.51,0,0,1,2.76-.76c.23,0,.46,0,.68-.06h.21a6.16,6.16,0,0,0,1.33-.22,6.32,6.32,0,0,1,2-.39,3.42,3.42,0,0,1,.78.12,1.59,1.59,0,0,0,.5.08,2.22,2.22,0,0,0,.45,0,2.9,2.9,0,0,1,.58-.05,3.34,3.34,0,0,1,2,.88,2.65,2.65,0,0,0,1.07.62c.74.19,1.07.4,1.26.79a1.56,1.56,0,0,0,1.52.8h.2a5.8,5.8,0,0,1,1.08.15,1.63,1.63,0,0,1,1.1.59,1.21,1.21,0,0,1,0,1,6.26,6.26,0,0,0-.43,1.61c-.17,1.73.76,2.63,2.92,2.84h0a14.41,14.41,0,0,0-4.35,1.95,3.19,3.19,0,0,1-1.78.51l-.36,0-.45,0a3.27,3.27,0,0,0-2.22.77,1.91,1.91,0,0,1-1.32.57h0a2.06,2.06,0,0,0-1.1.29A15.27,15.27,0,0,1,508.7,403a2,2,0,0,0-.74.24,12.23,12.23,0,0,1-3.26,1.19,3.58,3.58,0,0,0-2,1.57c-.59,1.09-1.7,1.58-3.29,2-.58.16-1.18.28-1.77.4s-1,.2-1.48.32l-.16,0a10.49,10.49,0,0,1-2.72.42,4.13,4.13,0,0,0-2.91,1.11,3.35,3.35,0,0,1-1.82,1,2.65,2.65,0,0,0-1.39.73,2.72,2.72,0,0,1-2.08.8,3.89,3.89,0,0,1-.8-.1l-.38-.09a6,6,0,0,0-.88-.18c-.29,0-.49,0-.7,0a2.94,2.94,0,0,0-1,.11l-.31.1a12.16,12.16,0,0,0-2.83,1.14,13.58,13.58,0,0,1-2.63,1.11l-.76.26c-.4.14-.82.26-1.24.37a10.92,10.92,0,0,0-2.08.73,25.38,25.38,0,0,1-4,1.5l-1.25.4a27.11,27.11,0,0,0-3.07,1.28l-1.41.63-.24.12a2.13,2.13,0,0,1-.44.17,2.69,2.69,0,0,0-.4,0,5.05,5.05,0,0,0-3,1.07,9,9,0,0,1-.85.5A10,10,0,0,1,453.1,423a4.6,4.6,0,0,0-1.34.29c-.86.38-1.71.78-2.56,1.17l-1.78.82-.8.37a26.57,26.57,0,0,1-2.58,1.09,11.89,11.89,0,0,1-2.74.53,3.09,3.09,0,0,0-2.19.92,2.66,2.66,0,0,1-1.24.68,4.58,4.58,0,0,0-2.32,1.14,1.16,1.16,0,0,1-.35.18l-.93.39a11.71,11.71,0,0,1-2.16.78,15.36,15.36,0,0,0-3.59,1.42l-1.09.53a7.66,7.66,0,0,0-1.54,1l-.57.45-.13.09a4.16,4.16,0,0,1-2.62,1.13,4.29,4.29,0,0,1-.59-.07,3.26,3.26,0,0,0-.61-.07,6.22,6.22,0,0,0-2.95.89,5.93,5.93,0,0,1-2.27.76,2.58,2.58,0,0,0-1.52.84,9.17,9.17,0,0,0-2.41,4.16c-.07.39-.28.48-.45.51a2.89,2.89,0,0,0-1.93,1.33.93.93,0,0,1-.49.3h-.05Z" transform="translate(-64.33 -144.33)"/></svg>