<?xml version="1.0" encoding="utf-8"?>
<!-- Generator: Adobe Illustrator 22.1.0, SVG Export Plug-In . SVG Version: 6.00 Build 0)  -->
<svg version="1.1" id="POWER_GLOVE" xmlns="http://www.w3.org/2000/svg" xmlns:xlink="http://www.w3.org/1999/xlink" x="0px"
	 y="0px" viewBox="0 0 502.7 336.7" style="enable-background:new 0 0 502.7 336.7;" xml:space="preserve">
<style type="text/css">
	.st0{fill:none;stroke:#FFFFFF;stroke-width:4;stroke-miterlimit:10;}
</style>
<title>PowerGlove_Logo_WHITE</title>
<path class="st0" d="M495,162.9c-3-2.1-5.8-4.4-8.4-7c-0.3-0.4-0.6-0.9-1.3-0.9c-0.3,0-0.7,0.1-1,0.2c-0.3,0.1-0.5,0.2-0.8,0.3
	c-0.1,0.1-0.2,0.1-0.3,0.1c0,0-0.2,0-0.4-0.3c-1.5-1.5-3.2-2.8-5.1-3.7c-0.5-0.2-0.9-0.5-1.3-0.8c-1.1-0.9-2.1-1.8-3.2-2.8l-1.9-1.6
	c-0.2-0.2-0.5-0.4-0.8-0.5c-1-0.3-2-0.8-2.9-1.4c-0.1-0.1-0.2-0.1-0.3-0.2l-0.2-0.2c-2.6-1.9-5.5-3.5-8.5-4.7c-1-0.5-2-1-3-1.4
	c-1-0.5-2-1.1-3-1.6c-0.4-0.3-0.9-0.5-1.3-0.8l-0.2-0.1c-0.1-0.1-0.2-0.1-0.3-0.2l-2.2-1.1c-1.7-0.9-3.4-1.7-5-2.7
	c-0.9-0.5-1.8-1.1-2.6-1.7l-0.9-0.6c0-0.1,0-0.1,0-0.2c0.2-0.4,0.1-1-0.4-1.2c0,0,0,0-0.1,0c-0.1-0.1-0.3-0.1-0.4-0.2
	c-0.2-0.1-0.5-0.2-0.7-0.4c-1-0.7-2.2-1.1-3.5-1.2h-0.3c-0.9-0.6-1.9-1-2.9-1.3c-0.7-0.2-1.4-0.6-2-1c-0.3-0.2-0.7-0.4-1-0.6
	c-0.3-0.1-0.5-0.3-0.8-0.4l-0.4-0.2c-0.2-0.1-0.5-0.2-0.8-0.3c-0.5-0.1-1-0.4-1.4-0.7c-1.2-1-2.5-1.7-4-2l-0.5-0.2
	c-0.4-0.1-0.9-0.3-1.4-0.4c-0.9-0.2-1.7-0.5-2.5-0.9c-1.1-0.9-2.4-1.5-3.8-1.5h-0.2c-0.3-0.1-0.5-0.2-0.7-0.4l-0.4-0.3
	c-0.3-0.3-0.7-0.4-1.1-0.4c-0.3,0-0.6,0.1-0.9,0.3l-0.2,0.1v0.7l-0.1-0.1c-0.1-0.1-0.2-0.3-0.3-0.4c-0.2-0.2-0.3-0.3-0.5-0.5
	c-0.3-0.3-0.6-0.6-1-0.9c-0.3-0.2-0.7-0.4-1-0.4c-0.4,0-1,0.2-1.2,1.1c-0.2,0.6-0.3,1.2-0.5,1.7c-0.1,0.4-0.2,0.8-0.3,1.2
	c0,0.2-0.1,0.3-0.2,0.5c-1.2,1.8-2.3,3.7-3.1,5.7c-0.3,0.6-0.6,1.2-0.8,1.8c-0.2,0.5-0.4,1-0.6,1.5c-0.2,0.8-0.5,1.5-1,2.1l-0.2,0.3
	c-0.2,0.3-0.4,0.6-0.7,0.8c-0.8,0.5-1.3,1.5-1.1,2.4c0.1,0.6-0.1,1.2-0.5,1.6c-0.3,0.4-0.5,0.9-0.5,1.4c0,1.1-0.4,2.2-1.2,2.9
	c-0.4,0.4-0.6,0.8-0.7,1.4c0,0.5-0.3,1-0.6,1.3l-1.3,1.4l-0.6,0.6c-0.2,0.3-0.6,0.4-1,0.4c-0.3,0-0.6,0-0.9-0.1l-2-0.3l-1.3-0.2
	l-0.5,0.8c-0.2,0.4-0.4,0.7-0.6,1c-0.1,0.2-0.2,0.3-0.4,0.4c-0.9,0.2-1.8,0.2-2.7,0.3l0,0c-0.3,0-0.5-0.2-0.8-0.7
	c-0.6-0.9-1.5-1.6-2.4-2.2l-0.4-0.2l-1.2,1.1c-0.2-0.1-0.3-0.3-0.4-0.7c-0.1-0.6-0.3-1.1-0.5-1.6c-0.1-0.3-0.3-0.6-0.4-1
	c-0.6-1.6-0.7-3.3-0.4-4.9V136c0.1-0.1,0.1-0.3,0.1-0.4c0.1-1.2,0.1-2.5,0.2-3.8l0.1-1.7l-3.5,0.3l-0.1,0.2l-0.1,0.2
	c-0.1,0.1-0.1,0.2-0.2,0.4c-0.3,1.2-0.5,1.3-1.8,1.6c-0.2,0-0.4,0-0.6,0.1c-0.6,0.3-1.3,0.6-2,0.7c-0.6,0.1-1.3,0.3-1.8,0.6
	l-0.2,0.1l-0.2,0.1c-0.3-0.1-0.6-0.1-0.8-0.1c-0.5,0-1,0.1-1.4,0.3l-0.5,0.2c-0.1,0-0.2,0-0.3,0c-0.3,0-0.6-0.2-0.8-0.4
	c-0.3-0.2-0.6-0.4-1-0.4c-0.6,0-1,0.4-1.1,1c-0.1,0.5-0.4,1.2-2,1.2h-0.2c-1.1,0-2.2,0.3-3.2,0.7l-0.7,0.2c-1,0.3-2.1,0.5-3.2,0.7
	l-1,0.2c-0.7,0.1-1.5,0.4-2.1,0.8c-0.5,0.4-1.2,0.6-1.8,0.7c-0.1,0-0.3,0-0.4,0c-0.1,0-0.2,0-0.3,0c-0.2,0-0.3,0-0.5,0.1l-1.7,0.6
	c-0.7,0.3-1.4,0.5-2.1,0.8l-0.2,0.1c-0.5,0.2-1.1,0.4-1.6,0.5c-1.1,0-2.1,0.4-2.9,1c-0.7,0.4-1.5,0.6-2.2,0.5h-0.2
	c-0.6,0-1.3,0.1-1.8,0.4c-0.2,0.1-0.3,0.1-0.5,0.1h-0.4c-0.9,0-1.7,0.4-2.2,1.1c-0.3,0.3-0.6,0.5-1,0.7c-0.7,0.3-1.2,0.8-1.6,1.5
	l-0.7,0.3c-0.8,0.4-1.5,0.7-2.3,1.1c-0.1,0-0.2,0.1-0.4,0.1c-0.3-0.1-0.6-0.1-0.9-0.1c-0.7,0-1.3,0.2-2,0.6
	c-0.4,0.2-0.9,0.3-1.3,0.3c-1.4,0-2.8,0.7-3.8,1.7c-0.1,0.1-0.2,0.2-0.4,0.2c-0.1,0-0.3,0-0.4,0c-0.9,0-1.7,0.5-2.1,1.3
	c-0.5,0.6-1.1,1-1.8,1.3c-0.1,0-0.2,0-0.2,0c-0.3,0-0.5-0.1-0.8-0.2c-0.3-0.1-0.7-0.2-1.1-0.3c-0.3,0-0.5-0.1-0.8,0
	c-1.4,0-2,0.6-2.8,1.5l-0.3,0.3h-0.9c-0.9,0.1-1.9-0.1-2.7-0.6c-0.5-0.4-1-0.6-1.6-0.9c-0.7-0.2-1.2-0.9-1.3-1.6
	c-0.4-2.3-0.4-4.6-0.2-6.8c0.1-0.4,0-0.9-0.3-1.2c-0.1-0.2-0.2-0.4-0.3-0.6v-0.2c-0.1-0.3-0.1-0.5-0.1-0.8c0.3-1,0.4-2.1,0.1-3.1
	l-0.1-0.5c0-0.2-0.1-0.4-0.2-0.5c-0.1-0.1-0.1-0.2-0.1-0.3c-0.1-0.3-0.1-0.6,0.1-0.8c0.2-0.2,0.5-0.3,0.7-0.3
	c0.9-0.1,1.7-0.8,1.8-1.7c0.1-0.3,0.2-0.7,0.4-1c0.2-0.4,0.2-0.8,0.1-1.2c-0.1-0.4,0-0.7,0.4-1c0.5-0.4,1.1-0.7,1.7-1
	c0.8-0.4,1.4-1,1.7-1.8c0.5-1.1,1.1-2.1,1.7-3.1l0.2-0.3c0.1-0.2,0.4-0.4,0.6-0.6c0.9-0.5,1.5-1.4,1.6-2.4c0.1-1.4,0.7-2.7,1.5-3.7
	c0.3-0.4,0.6-0.8,0.7-1.3c0.1-0.8,0.5-1.5,1.1-2c0.5-0.6,0.9-1.3,1.2-2c0.5-0.9,1.3-2.1,1.5-2.3c0.5-0.6,0.8-1.2,1-2
	c0.1-0.3,0.3-0.8,0.4-1c1.4-1.1,2.3-2.6,2.5-4.4c0.1-0.4,0.2-0.8,0.5-1.2c0.5-0.5,0.7-1.2,0.5-1.9c-0.1-0.5,0.1-0.9,0.4-1.3
	c0.4-0.4,0.9-0.7,1.5-0.7c0.5,0.1,1.1-0.1,1.5-0.5c0.2-0.4,0.2-1-0.1-1.4c-0.2-0.5-0.5-0.9-0.9-1.3l-0.2-0.3
	c-0.2-0.3-0.2-0.4-0.2-0.6l1,0.4l0.3-0.2c0.8-0.6,1.4-1.5,1.8-2.4c0.2-0.6,0.5-1.1,0.9-1.6c1.1-1.2,1.8-2.8,2.1-4.4
	c0.2-1,0.6-1.9,1.1-2.7c0.6-0.8,1-1.8,1.2-2.7c0.2-1.1,0.8-2,1.6-2.8c0.3-0.3,0.6-0.6,0.8-1c0.3-0.4,0.4-0.8,0.6-1.1
	c0.2-0.4,0.5-0.9,0.8-1.3c0.2-0.2,0.4-0.5,0.6-0.6c1.3-1,1.7-2,1.1-3.4c-0.2-0.5-0.1-1.1,0.2-1.5c0.6-1,1-2.1,1.3-3.3
	c0.2-0.6,0.3-0.9,0.7-1.1c0.4-0.2,0.7-0.5,0.8-0.9c0.1-0.4,0.2-0.9,0.4-1.3c0.3-0.8,0.5-1.6,0.5-2.4c0-0.6,0.1-1.2,0.3-1.7
	c0.4-1.2,0.9-2.4,1.3-3.6c0.2-0.4,0.4-0.7,0.6-1c0.5-0.5,0.7-1.2,0.7-1.8c0-0.2,0.1-0.4,0.2-0.5c0.7-0.6,1.2-1.4,1.3-2.4
	c0-0.3,0.1-0.6,0.3-0.9c0.2-0.3,0.3-0.7,0.5-1c0.4-0.6,0.7-1.3,0.9-2c0.3-0.9,0.8-1.8,1.3-2.5c0.2-0.4,0.5-0.8,0.7-1.2
	c0.5-0.9,0.9-1.8,1.3-2.7c0.2-0.4,0.3-0.7,0.5-1.1c0.1-0.1,0.1-0.3,0.1-0.4c0-0.1,0.1-0.2,0.1-0.3c0.2-0.4,0.4-0.7,0.6-1.1
	c0.4-0.8,0.8-1.6,1.2-2.5c0.3-0.9,1.2-1.4,2.1-1.5c0.7-0.1,1.5-0.3,2.2-0.6c0.5-0.2,1-0.3,1.5-0.3c0.5,0,0.9,0.1,1.3,0.3
	c0.7,0.3,1.4,0.5,2.1,0.7c0.3,0,0.5,0.1,0.8,0.1c1,0,1.9-0.4,2.5-1.1h0.3c0.4,0,0.7,0.1,1.1,0.2c0.4,0.1,0.9,0.3,1.1,1.3
	c0.2,0.7,0.7,1.4,1.3,1.8c1.2,1,2.5,2.3,2.5,4.2c0,0.7,0.1,1.4,0.2,2.1l0.1,0.4c0.1,0.6,0.6,1.1,1.3,1.1c0.3,0,0.5-0.1,0.7-0.2
	c0.7-0.3,1.4-0.5,2.1-0.6l0.8-0.1c0.5-0.1,1-0.2,1.4-0.4c0.3-0.1,0.6-0.2,1-0.3c0.4-0.1,0.8-0.1,1.2-0.1h0.3h0.5
	c0.2,0,0.4,0,0.6-0.1c0.4-0.2,0.9-0.3,1.4-0.4c0.2,0,0.4,0,0.6,0.1h0.1h0.2c0.3,0,0.6-0.1,0.9-0.3c0.8-0.4,1.6-0.5,2.4-0.5
	c0.4,0,0.7,0,1.1,0h0.5c0.3,0,0.7,0.1,1,0.1c0.6,0,1.2-0.2,1.7-0.5c0,0,0,0,0.1,0h0.3h0.5c0.4,0,0.9-0.1,1.3-0.2
	c0.5-0.1,0.9-0.2,1.4-0.2c1,0.1,2.1,0.3,3.1,0.6c0.6,0.2,0.7,0.3,0.7,0.3c0,0,0,0.2-0.3,0.7c-0.7,0.7-0.8,1.7-0.3,2.6
	c0.4,0.8,1.2,1.3,2,1.3c0.2,0,0.3,0,0.5,0h0.3c0.5,0,1,0.1,1.4,0.2c0.3,0,0.5,0.1,0.8,0.1c1.1,0.2,2.3,0.4,3.4,0.6
	c0.7,0.1,1.2,0.5,1.6,1c0.5,0.8,1.4,1.3,2.3,1.3c0.6,0,1.2,0.3,1.6,0.8c0.1,0.2,0.3,0.3,0.4,0.4l0.2,0.1l0.5,0.3l0.3-0.4
	c1-1.5,1.3-3.5,0.9-5.2c-0.2-0.8-0.1-1.7,0.4-2.4c0.5-0.8,0.8-1.7,1-2.6c0.1-0.5,0.4-1,0.8-1.4c0.2-0.2,0.4-0.3,0.6-0.3h0.2l1,0.2
	c0.4,0.1,0.8,0.2,1.3,0.3c0.3,0.1,0.6,0.1,0.8,0.1c1.3,0,2.4-0.7,3-1.8c0.6-0.9,1.1-1.9,1.5-2.9l0.1-0.1c0.2-0.5,0.2-0.6,0.6-0.8
	c0.8,0.5,1.8,0.8,2.7,0.7c0.5,0,1,0,1.4-0.1c0.2,0,0.4-0.1,0.7-0.1c0.4,0,0.8,0.1,1,0.5c0.3,0.3,0.8,0.6,1.2,0.6h0.2h0.3
	c0.9,0.1,1.7,0.5,2.2,1.2c0.5,0.6,1.2,0.9,1.9,1h0.3c0.5,0.2,1,0.3,1.6,0.3c1,0,2-0.4,2.7-1.2l0.4,0.5c0.5,0.6,1,1.3,1.4,2
	s0.8,1.3,1.3,2.1l0.8,1.3h0.4c0.1,0,0.2,0,0.3,0c0.9,0.1,1.6,0.5,2.1,1.3c0.3,0.4,0.7,0.6,1.2,0.6c0.1,0,0.3,0,0.4,0
	c0.6,0,1.1,0.2,1.6,0.4c0.6,0.3,1.2,0.4,1.8,0.5c0.8,0.1,1.5,0.3,2.2,0.5c0.5,0.1,1,0.3,1.4,0.4c0.8,0.2,1.7,0.4,2.5,0.5
	c1.1,0.2,2.3,0.5,3.4,0.8c0.6,0.2,1.1,0.4,1.6,0.6c0.4,0.1,0.7,0.3,1.1,0.4c0.4,0.1,0.9,0.3,1.3,0.4l0.9,0.2
	c0.2,0.1,0.4,0.1,0.7,0.2l1,0.3c1.1,0.4,2.1,0.7,3.2,1.1l0.1,0c2,0.7,3.8,1.4,5,2.9c1.1,1.3,2.6,2.4,4.2,3c0.7,0.3,1.5,0.5,2.3,0.4
	c0.5,0,1-0.1,1.5-0.2c0.2-0.1,0.4-0.1,0.6-0.1c0,0.2,0,0.3,0.1,0.5c0.1,0.6,0.6,1.2,1.2,1.4l0.2,0.1c1.2,0.5,2.4,1.1,3.5,1.9
	c0.5,0.4,1.1,0.6,1.7,0.8c0.5,0.1,0.9,0.4,1.1,0.9c0.4,1.2,1.2,2.2,2.3,2.9c0.7,0.5,1.1,1.3,0.9,2.2c-0.3,1,0.2,2,1.1,2.4
	c0.4,0.2,0.5,0.6,0.4,1.3v0.2c-0.1,0.6,0,1.3,0.3,1.8c0,0.1,0,0.1,0,0.2l-0.3,1c-0.5,1.5-1,2.9-1.5,4.4c-0.2,0.5-0.5,0.9-1,1.2
	c-2.2,1.5-4.5,2.9-7,4.5c-0.2,0.1-0.3,0.1-0.5,0.1h-0.5c-0.6,0-1.2,0.3-1.6,0.8c-0.4,0.5-1,0.7-1.7,0.7l-1.3,0.2l-1.6,0.3
	c-0.6,0.1-1.2,0.2-1.7,0.2c-1.6,0.1-2.3,0.8-2.3,2.2c0,0.7,0.2,1.3,0.3,2l0.1,0.3c0.1,0.5,0,0.6,0,0.6c-0.1,0.1-0.3,0.1-0.4,0.1
	c-1,0.1-2,0.4-2.8,0.9c-0.4,0.2-0.8,0.4-1.2,0.5s-0.8,0.3-1.2,0.5c-0.7,0.4-1.6,0.7-2.5,0.8c-0.6,0-1.1,0.2-1.6,0.4
	c-0.2,0.1-0.4,0.2-0.5,0.2c-0.4,0.1-0.8,0.3-1.2,0.4c-0.9,0.4-1.9,0.7-2.9,0.9c-0.3,0.1-0.6,0.2-0.9,0.4l-0.2,0.1
	c-0.1,0.1-0.2,0.2-0.3,0.2c-0.1,0.1-0.1,0.1-0.2,0.2c-1.4,0.4-2.6,1.3-3.2,2.6c-0.4,0.7-1.1,1.2-2,1.3c-1,0.1-1.8,0.7-2.3,1.5
	c-0.2,0.4-0.5,0.6-1.1,0.6c-1.7,0.1-3.3,0.8-4.6,2c-0.5,0.4-0.7,1-0.7,1.6c0.1,0.6,0.5,1.1,1,1.4c0.2,0.1,0.5,0.3,0.7,0.4
	s0.4,0.2,0.6,0.3c0.8,0.6,1.5,1.3,2.1,2c0.7,0.9,1.6,1.7,2.6,2.2l0.1,0.1c0.6,0.4,1.2,0.8,1.7,1.2c1.2,1,2.5,1.9,3.9,2.5
	c0.6,0.3,1.1,0.7,1.6,1.1c0.6,0.5,1.3,0.9,2,1.2c0.7,0.2,1.4,0.6,2,1l1,0.7c0.9,0.5,1.8,1.2,2.5,2c0.3,0.3,0.6,0.5,1,0.6l0.2,0.1
	c0.2,0.1,0.5,0.2,0.8,0.2h0.3l0.2-0.2c0.2,0,0.4,0.1,0.6,0.1c0.1,0,0.2,0,0.3,0l0.1,0.1c0.1,0.1,0.2,0.3,0.3,0.4
	c0.1,0.2,0.2,0.4,0.4,0.6l0.4,0.2c0.9,0.4,1.8,1.1,2.4,2c0.2,0.4,0.6,0.8,1,1.1c0.2,0.2,0.5,0.3,0.7,0.5c0.5,0.4,1.7,2.7,1.6,3.2
	c-0.1,0.5,0.3,0.9,0.6,1.3c0.2,0.2,0.4,0.4,0.4,0.6c-0.1,0.3-0.1,0.7,0,1c0.1,0.4,0.1,0.9,0,1.3c-0.1,0.3-0.1,0.6,0.2,1.1
	c1,1.7,5.4,6.6,6.8,7.3c0,0.1,0,0.2,0.1,0.2c0.1,0.7,0.4,2.1,2,2.1c1.1,0,2.1,1.8,2.3,2.3c-0.1,1-0.1,1.9,0.2,2.9
	c0.1,0.5,0.2,1,0.2,1.4c-0.2,0.5,0.2,1.3,1.3,3c0.4,0.6,0.8,1.3,1.1,2c-0.1,0.5-0.1,1,0,1.5c0.1,0.5,0.1,1,0,1.5
	c-0.7,0.5-0.1,1.6,0.5,2.6C494.7,162.4,494.9,162.7,495,162.9z M348.2,107.3c-0.5,0-1,0.2-1.3,0.6c-0.6,0.8-1.5,0.9-2.5,1
	c-1.3,0-2.6,0.5-3.7,1.2c-0.5,0.3-1,0.7-1.4,1l-0.6,0.5c-0.1,0.1-0.2,0.1-0.3,0.2c-0.1,0.1-0.1,0.1-0.2,0.2
	c-0.8,0.1-1.5,0.3-2.2,0.7c-0.3,0.2-0.7,0.3-1,0.4c-0.9,0.3-1.7,1-2.1,1.9c-0.4,0.9-0.4,1.9,0.1,2.8c0.1,0.3,0.4,0.5,0.6,0.6
	c0.3,0.1,0.6,0.2,1,0.3c0.8,0.3,1.7,0.5,2.6,0.5c1.4,0,2.7-0.1,4-0.2c1.3-0.1,2.8-0.2,4.2-0.2h0.3c0.6,0,1.2-0.1,1.7-0.1
	s1-0.1,1.5-0.1c0.5,0,1.1,0.1,1.6,0.2c0.1,0,0.3,0.1,0.4,0.1c0.2,0,0.5,0,0.7-0.1c0.4-0.1,0.8-0.2,1.2-0.2c0.6,0,1.2,0.1,1.7,0.2
	c0.3,0.1,0.6,0.1,0.8,0.1c0.5,0,1-0.1,1.4-0.3c0.5-0.2,1-0.3,1.5-0.3c0.6,0,1.3,0.1,1.9,0.3c0.4,0.1,0.9,0.2,1.3,0.2h0.7
	c0.7-0.1,1.5-0.1,2.2-0.1c0.4,0,0.8,0,1.2,0.1c0.2,0,0.4,0,0.6,0c0.5,0,0.9-0.1,1.4-0.3c0.7-0.4,1.4-0.6,2.2-0.6
	c0.5,0,1,0.2,1.4,0.4c0.4,0.3,0.8,0.4,1.3,0.4c0.4,0,0.9-0.1,1.2-0.3c0.3-0.2,0.7-0.3,1.1-0.4c0.3,0,0.6,0.1,0.9,0.3
	c0.2,0.2,0.5,0.3,0.8,0.3c0.5,0,1-0.3,1.2-0.8c0.3-0.4,0.6-0.8,0.8-1.2c0.5-0.6,0.7-1.3,0.6-2.1c0-0.4,0-0.7,0-1.1
	c0-0.3,0.1-0.6,0.1-0.9c0.1-0.6,0.2-1.2,0.1-1.8c0-0.7,0.2-1.4,0.7-1.8c0.4-0.3,0.6-0.8,0.6-1.3c0-0.6,0.1-1.2,0.4-1.7
	c0.1-0.2,0.2-0.4,0.2-0.6l0.1-0.2c0.2-0.4,0.3-0.9,0.3-1.3c-0.1-0.8,0.2-1.2,1.2-1.5l0.5-0.1l-0.1-0.5c-0.3-0.9,0.3-1.6,0.8-2.4
	c0.8-1.2,1.4-2.5,1.8-3.8l0.2-0.6c0.2-1,0.9-1.8,1.8-2.3l0.6-0.2l0.9-0.4l-0.6-0.9c-0.1-0.1-0.2-0.2-0.3-0.3
	c-0.6-0.6-0.6-0.6-0.1-1.2l0.2-0.2c0.2-0.1,0.4-0.3,0.5-0.5l0.1-0.2c0.3-0.3,0.5-0.7,0.6-1.2c0-0.7,0.3-1.4,0.8-1.8
	c0.3-0.3,0.5-0.7,0.6-1.1c0.3-0.8,0.7-1.5,1.3-2.2c0.2-0.2,0.3-0.4,0.5-0.7c0.3-0.4,0.6-0.8,0.9-1.1c0.3-0.4,0.5-0.6,0.8-1
	c0.6-0.8,1-1.7,1.3-2.7c0.2-0.7,0.5-1.3,0.8-2c0.1-0.2,0.1-0.3,0.1-0.5c0-0.1,0-0.1,0-0.2c0.2-1.3,0.8-2.5,1.7-3.4
	c0.2-0.2,0.3-0.4,0.4-0.7c0-0.1,0-0.1,0.1-0.2c0.1-0.2,0.1-0.3,0.2-0.5c0.1-0.3,0.3-0.6,0.4-0.9c0.5-0.8,0.7-1.7,0.5-2.6v-0.6
	l-0.6,0.1l-0.8,0.2c-0.5,0.2-1,0.3-1.5,0.3c-0.7,0.1-1.5,0.1-2.2,0.1c-0.6,0-1.1,0-1.7,0.1c-0.7,0-1.5,0.1-2.2,0.4l-0.6,0.2
	c-1.3,0.5-2.8,0.9-4.2,0.9c-0.3,0-0.6,0-0.9-0.1h-0.2c-0.2,0-0.4,0-0.7,0.1c-0.1,0-0.2,0-0.2,0.1l-0.6,0.1c-0.5,0.1-1,0.2-1.4,0.3
	c-0.3,0.1-0.6,0.1-0.9,0.2c-0.8,0.1-1.6,0.3-2.4,0.7c-0.8,0.4-1.6,0.7-2.5,0.9c-0.6,0.1-1.2,0.3-1.7,0.4l-0.4,0.1
	c-0.7,0.2-1.4,0.3-2.1,0.4c-0.7,0-1.4-0.2-2-0.7l-0.4-0.3l-0.3,0.4l-0.2,0.2c-0.2,0.2-0.3,0.4-0.4,0.6c-0.1,0.4-0.3,1-1.7,1.3
	c-0.8,0.1-1.6,0.4-2.2,1l-2.3,0.2h-0.2h-0.1c-0.6-0.1-1.3-0.2-2-0.2c-0.6,0-1.2,0-1.8,0.1c-0.6,0.1-1.2,0.1-1.7,0.1h-0.4
	c-0.9-0.1-1.8,0.5-2.1,1.3l-0.1,0.3c-0.5,0.8-0.5,1.8,0,2.6c0.2,0.2,0.4,0.4,0.7,0.5c0.3,0.1,0.3,0.2,0.4,0.8v0.1
	c0.2,0.4,0.2,0.9,0,1.3c-0.2,0.4-0.2,0.8,0,1.2c0.7,2,2.7,3.2,4.8,3.1c0.4,0,0.7,0,1.1-0.1c0.2,0,0.5,0,0.7,0c0.7,0,1.4,0.2,2,0.5
	c0.7,0.4,1.5,0.6,2.4,0.6c0.7,0,1.3-0.2,1.9-0.5c0.4-0.2,0.9-0.4,1.4-0.4c0.4,0,0.8,0.1,1.2,0.3c0.4,0.1,0.8,0.2,1.2,0.2
	c0.5,0,1-0.2,1.4-0.4c0.3-0.2,0.6-0.3,0.9-0.3c0.3,0,0.6,0.1,0.8,0.3c0.4,0.3,0.9,0.4,1.4,0.4c0.5,0,0.9-0.1,1.3-0.4
	c0.1,0,0.2,0,0.3,0c0.2,0,0.3,0,0.4,0.1c0.4,0.2,0.9,0.4,1.3,0.6l0.4,0.2c0.3,0.2,0.6,0.5,0.6,0.9c0.4,1.1,0.3,2.4-0.3,3.5
	c-0.6,1.3-1.4,2.5-2.3,3.6l-0.2,0.2c-0.6,0.6-1,1.3-1.1,2.1c0,0.1-0.1,0.2-0.2,0.3l-0.7,0.5c-0.7,0.6-1.5,1.1-2.2,1.6
	c-1,0.7-2.2,1-3.4,1.1l0,0c-0.4,0-0.9,0.2-1.2,0.5c-0.3,0.3-0.7,0.5-1.1,0.5h-0.3h-0.2c-0.6,0-1.1,0.4-1.3,0.9
	c-0.1,0.5-0.5,0.8-1.4,1c-0.2,0.1-0.5,0.2-0.7,0.3l-0.3,0.1l-0.3,0.1c-0.3,0.1-0.6,0.3-1,0.4l-0.4,0.1c-0.9,0.1-1.8,0.5-2.5,1.1
	c-0.2,0.2-0.4,0.3-0.7,0.3c-1.6,0.1-3.1,1.1-3.7,2.6c-0.3,0.6-0.9,1-1.5,1h-0.2c-0.5,0-1-0.2-1.5-0.4l-0.2-0.1
	c-0.4-0.2-0.8-0.3-1.3-0.4c-0.2,0-0.4,0-0.6,0.1l0,0c-0.2,0-0.4-0.1-0.6-0.1h-0.2C348.9,107.4,348.6,107.3,348.2,107.3z M421.1,83.2
	c-0.7,0.3-1.2,1-1.2,1.8c0,0.1,0,0.2,0,0.3c-0.1,0.4,0,0.9,0.3,1.2c0.2,0.3,0.6,0.4,0.9,0.4c0.3,0,0.6-0.1,0.9-0.2
	c0.8-0.4,1.6-1,2.2-1.7c0.3-0.3,0.6-0.6,1-0.7c0.4-0.1,0.9-0.2,1.3-0.4l1-0.3l4.4-1.2c0.3,0.1,0.6,0.1,1,0.1c0.8,0,1.6-0.2,2.3-0.5
	c0.3-0.1,0.6-0.2,1-0.3l0.9-0.2c0.6-0.2,1.2-0.3,1.8-0.4c0.3-0.1,0.7-0.2,1-0.3c0.5-0.2,0.9-0.3,1.4-0.3c1.3-0.1,2.6-0.5,3.7-1.1
	l0.3-0.2l0.9-0.5c0.9-0.5,1.9-0.9,2.9-1.2c0.4-0.1,0.8-0.3,1.1-0.6c0.2-0.4,0.2-0.8,0-1.2c-0.1-0.3-0.3-0.6-0.4-0.8
	c-0.2-0.4-0.5-0.7-0.7-1.1c-0.5-0.8-1-1.5-1.4-2.3c-0.4-0.9-1.1-1.6-2-2c-0.2-0.1-0.4-0.3-0.6-0.4c-0.6-0.5-1.3-0.8-2-0.9h-0.2
	c-0.3,0-0.5-0.1-0.7-0.6c-0.2-0.8-0.9-1.3-1.7-1.3h-0.3c-0.5,0-0.9,0.1-1.4,0.4c-0.3,0.2-0.7,0.3-1.1,0.3c-0.5,0-0.9-0.1-1.3-0.3
	c-0.5-0.2-1.1-0.3-1.7-0.3l0,0c-0.4,0-0.8,0-1.3,0.1c-0.3,0-0.6,0.1-1,0.1c-1.2,0-2.3,0.7-2.6,1.8c-0.7,1.7-1.7,3.3-3,4.6
	c-0.2,0.2-0.3,0.4-0.4,0.6l-0.1,0.2l-0.2,0.5c-0.2,0.3-0.3,0.7-0.5,1c-0.2,0.3-0.4,0.5-0.6,0.8c-0.4,0.5-0.8,1.1-1,1.7
	c-0.2,0.7-0.7,1.3-1.2,1.8c-0.8,0.6-1.2,2-1.4,3.1C421.2,82.8,421.2,83.1,421.1,83.2z"/>
<path class="st0" d="M24.3,224.5c-0.1-0.1-0.2-0.2-0.2-0.5c-0.1-0.8-0.4-1.5-0.9-2.1c-0.2-0.2-0.3-0.5-0.3-0.8
	c0.1-0.7,0.4-1.5,0.5-2.2c0.1-0.4,0.2-0.7,0.3-1.1c0-0.1,0.1-0.2,0.1-0.3c0.2-0.4,0.2-0.8,0.1-1.2c-0.1-0.5,0-1.1,0.3-1.6
	c0.5-0.7,0.7-1.6,0.6-2.5c0-0.1,0-0.3,0.1-0.4c1-1.9,1-3.9,0.1-6.5c-0.2-0.6-0.3-1.2-0.2-1.8c0.1-0.7,0-1.4-0.2-2.1
	c-0.3-0.9-1.1-1.4-2-1.4c-0.2,0-0.5,0-0.7,0.1l0,0c0-0.1,0.1-0.3,0.1-0.4l0.1-0.3c0.6-1.2,0.8-2.7,0.6-4c0-0.1,0-0.2,0-0.2
	c0.7-1.1,1-2.3,0.9-3.5c0-0.3,0-0.6,0-0.9c0-0.6,0.2-1.2,0.4-1.7c0.3-0.5,0.5-1.1,0.8-1.7l0.2-0.5c0.2-0.3,0.2-0.6,0.1-0.9
	c-0.2-0.7,0-1.4,0.4-2c0.2-0.3,0.3-0.6,0.3-1c0-0.1,0-0.2,0.1-0.3l0.3-1.1c0.2-0.8,0.4-1.7,0.7-2.5c0.3-0.6,0.3-1.4,0.1-2
	c-0.3-0.9-0.2-1.8,0.3-2.6c0.1-0.2,0.2-0.5,0.4-0.7c0.2-0.6,0.6-1.2,1.1-1.7c0.5-0.4,0.5-1.1,0.2-1.7c-0.2-0.3-0.1-0.7,0.2-1
	c0.6-0.5,0.9-1.3,0.6-2.1c0-0.2-0.1-0.3-0.2-0.5c-0.1-0.1-0.1-0.3-0.1-0.4c-0.2-0.6-0.2-0.6,0.4-0.9c1.3-0.7,1.8-1.6,1.4-2.8
	c0-0.1,0-0.2,0-0.2c0-0.2,0-0.5-0.1-0.7c-0.5-0.8-0.2-1.3,0.4-2.2c0.1-0.2,0.2-0.4,0.3-0.5c0.2-0.3,0.4-0.7,0.6-1
	c0.2-0.3,0.4-0.5,0.5-0.8c0.5-0.8,0.7-1.7,0.6-2.7c-0.1-1,0.3-2.1,1.1-2.7c0.7-0.6,1-1.6,0.6-2.4c-0.1-0.2-0.1-0.3,0-0.5l0.2-0.5
	c0.1-0.6,0.4-1.1,0.7-1.6c0.4-0.6,0.8-1.4,0.9-2.1c0-0.2,0.1-0.4,0.2-0.6c0.3-0.1,0.6-0.1,0.8-0.1c0.6,0,1.2-0.5,1.2-1.1
	c0,0,0,0,0,0c0-0.5,0-0.9-0.1-1.4c-0.2-0.7-0.1-1,0.4-1.2c0.3-0.1,0.6-0.4,0.7-0.7c0.1-0.4,0-0.8-0.2-1.1c-0.6-1-0.3-2,0.2-3.1
	c0.1-0.2,0.2-0.3,0.3-0.5l0.3-0.5l-0.2-0.4c-0.1-0.1-0.1-0.3-0.2-0.4c-0.5-0.8-0.5-0.8,0-1.4c0.6-0.5,0.6-1.4,0-2
	c0,0-0.1-0.1-0.1-0.1c-0.3-0.3-0.6-0.6-0.9-1l-0.1-0.1c0.2-0.2,0.3-0.3,0.5-0.4c0.8-0.6,1.3-1.5,1.6-2.5c0.1-0.3,0.1-0.7,0-1.1
	c-0.1-0.5-0.2-0.9-0.4-1.4l-0.3-1l-0.7,0.1c-0.2,0-0.4,0.1-0.5,0.1h-0.3c0,0,0-0.1,0.1-0.2c0.2-0.4,0.4-0.8,0.6-1.1
	c0.8-0.9,1.4-2.1,1.7-3.3c0.1-0.3,0.2-0.6,0.3-0.9l0.1-0.2c0.1-0.4,0.3-0.7,0.5-1l0.2,0.1c0.4,0.2,0.8,0.3,1.3,0.4
	c0.1,0,0.3,0,0.4,0c0.4,0,0.7-0.1,1-0.4c0.2-0.3,0.3-0.7,0.2-1.1c-0.2-0.7-0.4-1.4-0.6-2c-0.3-0.6-0.1-1.4,0.5-1.7c0,0,0,0,0.1,0
	c2-1,2.2-2.8,2.5-4.3v-0.1l0.8-1c0.3-0.4,0.7-0.8,1-1.3c0.6-0.7,1.7-2,0.4-3.5c-0.1-0.1-0.2-0.3,0.1-0.8c0.6-0.7,0.7-1.6,0.4-2.4
	c0-0.1,0.2-0.2,0.3-0.3c1-0.8,1.1-1,0.8-2l-0.1-0.2c-0.1-0.6-0.1-1.3,0-2c0.2-1.2,0.4-2.4,0.7-3.5c0.3-0.9,0.6-1.8,1-2.6
	c0.1-0.3,0.3-0.7,0.4-1c0.4-1.3,1.1-2.5,2-3.6c0.3-0.4,0.4-1,0.3-1.5c-0.1-0.5,0-1,0.2-1.4c0.3-0.6,0.5-1.2,0.7-1.8v-0.2
	c0.1-0.7,0.4-1.4,0.9-1.9c0.2-0.2,0.3-0.5,0.4-0.7c0.1-1.5,0.2-2.9,0.3-4.5c0-0.2-0.1-0.4-0.2-0.6c-0.1-0.1-0.1-0.2-0.1-0.3
	l-0.2-0.4l-1.3,0.3L55,70.3c-0.4,0.1-0.9,0.2-1.3,0.3l-1.1,0.2L52,70.9c-0.9,0.2-1.8,0.4-2.7,0.6c-0.3,0.1-0.6,0.2-0.9,0.4
	c-0.2,0.1-0.4,0.2-0.6,0.3c-1.2,0.4-2.4,0.8-3.7,1.1l-1.4,0.4h-0.2c-0.2,0-0.4,0.1-0.5,0.2c-2.3,1.1-4.7,1.8-7.3,2.1
	c-1.7,0.2-3.4,0.7-5,1.3c-0.4,0.2-0.8,0.5-1.1,0.9c-0.1,0.1-0.3,0.3-0.4,0.4c0,0-0.1,0-0.3-0.2c-0.7-0.5-1.5-0.7-2.3-0.8
	c-0.5,0-1,0.1-1.4,0.3c0,0-0.1,0-0.1,0c-0.4-0.1-0.8-0.2-1.2-0.2c-0.7,0-1.4,0.1-2,0.4c-0.5,0.2-1.1,0.3-1.6,0.3
	c-1.3,0.1-2.6,0.2-3.9,0.4L14,79.1h0c-0.4,0-0.7-0.2-1-0.4l-0.2-0.2c-0.2-0.3-0.6-0.5-0.9-0.6c-1.2-0.4-2.2-1.3-2.8-2.4l-0.4-0.6
	c-0.3-0.4-0.5-0.7-0.7-1.1c-0.4-0.8-0.6-1.6-0.8-2.4C7,70.5,6.6,69.7,6,69c-0.1-0.2-0.2-0.4-0.2-0.6C6,67.7,6.3,67,6.7,66.3
	c0.5-0.6,0.6-1.5,0.1-2.2c-0.5-0.8-0.7-1.8-0.4-2.7c0.4-1.7,0.4-1.7,2.2-2.4c0.6-0.2,1.2-0.3,1.9-0.4c0.9,0,1.8-0.3,2.6-0.9
	c0.9-0.7,2-1.1,3.1-1.1c0.2,0,0.4,0,0.7,0H17c0.2,0,0.5,0,0.7-0.1H18l2.2-0.3h0.2c0.2,0,0.4,0,0.5-0.1c0.7-0.3,1.4-0.5,2.1-0.5
	c0.7,0,1.3-0.2,1.9-0.3c0.2-0.1,0.4-0.1,0.6-0.1c0.4,0,0.9,0.2,1.2,0.4c0.4,0.4,1,0.6,1.6,0.6c0.7-0.1,1.4-0.5,1.6-1.2
	c0.4-0.6,1-0.9,1.7-0.9c1,0,2-0.3,2.8-1c0.3-0.2,0.7-0.3,1.1-0.3l0.9-0.2c1.1-0.1,2.1-0.5,3-1.1c0.1-0.1,0.2-0.1,0.4-0.1l1.7-0.4
	c1.2-0.2,2.4-0.5,3.6-0.8c0.8-0.2,1.6-0.5,2.4-0.8l1.4-0.5l0.3-0.1c0.6-0.2,1.3-0.4,2-0.5c2.2-0.4,4.3-0.9,6.4-1.7
	c1.8-0.6,3.6-1.1,5.5-1.4c1.3-0.3,2.5-0.6,3.7-1.1L67,44c0.8-0.3,1.3-0.9,1.6-1.7c0.1-0.2,0.2-0.4,0.3-0.5c0.7-0.7,0.9-1.8,0.5-2.7
	l0,0c0-0.1,0.1-0.1,0.1-0.2c0.6-1.7,1.1-3.4,1.7-5v-0.2c0-0.1,0.1-0.3,0.2-0.4c1-1.5,1.6-3.3,1.6-5.2c0-0.4,0.1-0.7,0.1-1
	c0-0.3,0.1-0.6,0.3-0.8c0.5-0.7,0.7-1.5,0.5-2.4c-0.1-0.2,0-0.5,0.5-0.8c0.4-0.1,0.7-0.4,0.9-0.8c0.1-0.4,0-0.8-0.2-1.1
	c-0.2-0.3-0.2-0.7,0-1l1.1-2.1c0.3-0.6,0.8-1.1,1.5-1.3c0.3-0.1,0.6-0.4,0.9-0.6l0.3-0.3c0.3-0.3,0.6-0.6,0.9-0.9
	c0.3-0.5,0.8-0.9,1.4-1.1c0.4-0.1,0.7-0.4,0.9-0.7c0.2-0.4,0.4-0.9,0.6-1.3c0.2-0.4,0.2-0.6,0.4-1c0.1-0.3,0.3-0.6,0.4-0.8
	c0.7-0.6,1.1-1.4,1.3-2.3c0-0.1,0-0.2,0.3-0.2h0.7l0.8-0.1l0.1-1.4c0.1-0.7,0.6-1.3,1.3-1.5c0.5-0.1,1-0.3,1.5-0.5
	c0.2-0.1,0.3-0.1,0.5-0.2C90,3.9,90.1,4,90.2,4.1c0.5,0.8,1.3,1.3,2.2,1.3c0.5,0,1.1-0.2,1.6-0.4c0.3-0.1,0.6-0.2,1-0.2
	c0.4,0,0.8,0.1,1.1,0.3c0.5,0.3,1.1,0.6,1.5,0.9c0.8,0.6,0.8,1.4,0.7,2.4c0,0.2-0.1,0.4-0.1,0.6c0,0.2-0.1,0.4-0.1,0.7
	c-0.1,1.4,0.3,1.9,1.8,2.2l0.2,0.1v0.1c0,0.3,0.1,0.5,0.1,0.8c0,0.9,0.4,1.7,1.1,2.3c0.4,0.3,0.6,0.9,0.4,1.3
	c-0.1,0.6-0.1,1.2,0.2,1.8c0.2,0.4,0.2,0.8,0,1.2c-0.2,0.3-0.3,0.7-0.3,1c0,0.7-0.2,1.4-0.5,2.1c-0.2,0.4-0.3,0.9-0.2,1.4
	c0.2,0.8,0.1,1.6-0.2,2.3c-0.1,0.2-0.1,0.5-0.1,0.7c0.1,0.3,0.1,0.7,0.1,1c0.1,0.9,0.3,1.7,0.6,2.6c0.4,0.9,0.5,1.8,0.2,2.7
	c-0.3,1.5-0.1,1.9,1.4,2.5c0.2,0.1,0.4,0.2,0.7,0.3c0.3,0.2,0.7,0.3,1.1,0.3c0.5,0,0.9-0.2,1.3-0.5c0.3-0.2,0.6-0.3,0.9-0.4l0.7-0.1
	c1-0.1,2-0.4,2.9-0.9h0.2c1,0.2,2,0.3,3,0.3c1.2,0,2.3-0.1,3.5-0.3h0.4h0.5h0.6h0.1c0.6,0,1.2-0.1,1.7-0.2c0.3-0.1,0.6-0.1,0.9-0.2
	c0.4-0.1,0.7-0.2,1.1-0.3c1.2-0.1,2.3-0.2,3.4-0.3c1.2-0.1,2.2-0.2,3.3-0.3c0.5-0.1,1.1-0.3,1.5-0.6c0.2-0.2,0.5-0.3,0.7-0.3
	c0.1,0,0.1,0,0.2,0c0.3,0.1,0.6,0.2,0.9,0.2c0.4,0,0.9-0.1,1.3-0.3c0.2-0.1,0.3-0.1,0.5-0.1c0.3,0,0.6,0.1,0.8,0.2
	c0.8,0.3,1.6,0.5,2.4,0.8l1,0.3h0.2h0.2c0.2-0.1,0.4-0.1,0.7-0.1c0.8,0.1,1.5,0.3,2.1,0.7c0.5,0.3,1,0.5,1.6,0.7
	c0.6,0.2,1.3,0.3,1.9,0.3h0.3c0.2,0,0.4,0,0.6,0c0.9-0.1,1.9,0.2,2.6,0.9l0.5,0.5c0.9,0.9,1.7,1.8,2.5,2.7c0.1,0.2,0.2,0.5,0.1,0.8
	c-0.3,0.8-0.7,1.5-1.1,2.2c-0.6,0.7-0.6,1.7-0.1,2.3c0.3,0.5,0.4,1.1,0.4,1.7c0.2,1.6,0.3,3.3,0.3,4.9c0,1-0.1,2-0.5,2.9
	c-0.7,1.7-0.9,3.5-0.7,5.2c0.1,1-0.3,2.1-1,2.8c-1.5,1.5-3,3-4.5,4.5l-2.4,2.4c-0.1,0.1-0.2,0.2-0.3,0.3c-0.3,0.3-0.6,0.6-0.9,1
	c-2.5,4-6.1,7.1-9.5,9.8c-1.5,1.1-2.9,2.5-3.9,4c-0.8,1.2-1.9,2.2-3.1,3c-0.9,0.6-1.7,1.1-2.5,1.7c-0.8,0.6-2,1.3-2.9,2
	c-1.3,0.8-2.6,1.6-3.9,2.4c-0.6,0.4-1.2,0.7-1.8,1.1l-1,0.6c-0.7,0.4-1.4,0.9-2.2,1.3c-0.5,0.3-1.1,0.5-1.7,0.6
	c-1.6,0.3-3.1,1-4.3,2c-2,1.5-4.3,2.6-6.7,3.3l-1.9,0.7c-1.2,0.4-2.4,0.9-3.5,1.4c-0.9,0.4-1.7,1-2.4,1.7c-1.8,2-3.9,3.8-6.2,5.3
	c-1.2,0.8-2.2,1.8-3.1,2.9c-1.3,1.7-3.2,2.9-5.2,3.4c-1,0.3-2.3,0.6-2.7,2c-0.1,0.1-0.3,0.1-0.4,0.2c-1.1,0.1-2.1,0.8-2.5,1.8
	c-0.1,0.2-0.2,0.4-0.3,0.7c-0.2,0.3-0.3,0.6-0.5,1c-0.2,1-0.9,1.9-1.7,2.5c-0.4,0.3-0.7,0.8-0.6,1.3c0.1,0.8-0.2,1.7-0.8,2.2
	c-0.1,0.2-0.3,0.4-0.4,0.7c-0.3,0.5-0.5,1.1-0.6,1.7c0,0.2-0.1,0.5-0.1,0.7c-0.1,0.8-0.4,1.7-0.9,2.4c-0.5,0.7-0.8,1.4-1,2.3
	c-0.1,0.5-0.3,0.9-0.6,1.3c-0.4,0.6-0.8,1.2-1.1,1.8c-0.2,0.5-0.4,0.9-0.5,1.3l-0.2,0.5c-0.1,0.2-0.2,0.4-0.2,0.7
	c0,0.9-0.2,1.7-0.8,2.4c-0.1,0.2-0.2,0.4-0.3,0.5l-0.1,0.2c-0.2,0.2-0.3,0.5-0.3,0.8c0.1,0.5-0.1,1.1-0.5,1.4
	c-0.3,0.2-0.4,0.5-0.3,0.9c0.2,0.5,0,0.9-0.3,1.5c-0.3,0.4-0.4,0.9-0.5,1.5c-0.1,0.3-0.2,0.6-0.3,0.9c-0.1,0.2-0.2,0.4-0.3,0.6
	c-0.2,0.6-0.4,1.2-0.7,1.8l-0.4,1c0,0.1-0.1,0.3-0.1,0.4c-0.1,0.3-0.2,0.6-0.3,0.8c-0.6,0.7-0.8,1.7-0.6,2.6c0,0.1,0,0.2-0.1,0.3
	c-0.7,0.8-1.2,1.9-1.3,2.9l-0.2,0.8c-0.1,1.1-0.7,2.1-1.5,2.7c-0.4,0.3-0.7,0.8-0.9,1.3c0,0.1-0.1,0.3-0.2,0.4
	c-0.1,0.1-0.2,0.5-0.3,0.8s-0.1,0.4-0.2,0.6l-0.6,1.3l-0.5,1.1c-0.1,0.2-0.1,0.3-0.2,0.5c0,0.2-0.1,0.2-0.1,0.3l-0.4,1
	c-0.3,0.7-0.6,1.4-0.8,2.2c-0.2,0.7-0.2,1.4-0.1,2.1c0.1,0.6,0,1.1-0.4,1.6c-0.7,0.7-1.1,1.7-1.2,2.6c0,0-0.1,0.1-0.1,0.1
	c-0.1,0.1-0.1,0.2-0.2,0.3c-0.4,0.9-0.7,1.9-0.7,2.9c-0.1,0.8-0.2,1.5-0.5,2.2c-0.1,0.3-0.1,0.5-0.2,0.8c-0.1,0.3-0.2,0.8-0.4,1.1
	c-0.4,0.8-0.6,1.7-0.6,2.6c-0.1,0.5-0.2,0.9-0.4,1.3c-0.1,0.3-0.2,0.5-0.3,0.8l-0.1,0.2c-0.1,0.2-0.2,0.5-0.2,0.8
	c0.1,0.7-0.1,1.5-0.6,2.1c-0.2,0.3-0.3,0.6-0.3,0.9v0.2c-0.3,1.4-0.6,1.7-2,1.9c-0.8,0.1-1.4,0.6-1.7,1.3l-0.4,0.9
	c-0.4,0.8-0.8,1.6-1.1,2.4c-0.3,0.9-1,1.7-2,2.1c-0.6,0.2-1,0.8-1.1,1.4c0,0.4-0.2,0.6-0.7,0.7c-0.8,0.1-1.4,0.8-1.4,1.7
	c0,0.9-0.3,1.8-0.7,2.6c-0.2,0.3-0.3,0.7-0.2,1.1c0.5,1.8-0.5,3.3-1.4,4.8c-0.3,0.5-0.7,0.9-1,1.3c-0.3,0.3-0.6,0.6-0.8,1
	c-0.4,0.5-0.8,1.1-1.2,1.6l-0.5,0.8L24.3,224.5z M92,67c-1.7,1.5-2.3,3.4-2.8,5.2l-0.1,0.4c-0.1,0.4-0.2,0.8-0.3,1.3
	c-0.1,0.9-0.4,1.7-0.8,2.4c-0.6,0.9,0.4,1.9,0.7,2.3c0.3,0.3,0.6,0.4,1,0.4l0,0c0.3,0,0.6-0.1,0.9-0.2l1.5-0.4l1.2-0.4
	c0.3-0.1,0.7-0.2,1-0.4c0.5-0.3,1.1-0.7,1.7-1.1l0.3-0.2c0.6-0.4,1.1-0.8,1.5-1.3c0.5-0.6,1.1-1,1.8-1.2c0.5-0.1,1.1-0.3,1.6-0.4
	c1-0.2,1.6-0.8,1.5-1.5c-0.1-0.9,0.5-1.5,1.1-2.2c0.2-0.2,0.4-0.4,0.5-0.6c0.2-0.2,0.3-0.3,0.5-0.5c0.7-0.5,1.1-1.3,1.2-2.2
	c0-0.1,0.1-0.2,0.2-0.3l0.1-0.1c1.2-1.2,2.4-2.5,3.7-3.7c0.1-0.1,0.1-0.1,0.2-0.2c0.5-0.3,0.7-0.8,0.6-1.3c-0.1-0.4,0-0.8,0.2-1.1
	c0.2-0.4,0.2-0.8,0-1.2c-0.3-0.4-0.7-0.6-1.2-0.6l0,0c-0.2,0-0.4,0-0.7,0.1l-1.6,0.3l-2.5,0.5c-0.3,0.1-0.5,0.1-0.8,0.1l0,0
	c-0.3,0-0.6,0-1,0h-0.9c-0.8,0-1.5,0.1-2.3,0.4c-0.2,0-0.4,0-0.5,0c-0.8,0-1.7,0.3-2.4,0.7c-0.4,0.2-0.8,0.4-1.1,0.5
	c-0.4,0.2-1,0.4-1.4,0.7c-0.5,0.3-0.9,0.6-1.3,1.1c-0.2,0.2-0.4,0.5-0.6,0.8c-0.1,0.2-0.2,0.4-0.4,0.5C91.9,64.3,90.9,65.6,92,67z"
	/>
<path class="st0" d="M71.1,293.4l-0.3,0.1c-0.2,0.1-0.5,0.2-0.7,0.3c-1.3,1-2.7,2-4,3l-1.4,1c-0.9,0.7-1.8,1.4-2.7,2.1
	c-0.4,0.3-0.9,0.5-1.4,0.6c-1,0.2-2,0.6-2.8,1.2l-1.5,1.1c-1.2,0.9-2.5,1.7-3.8,2.5c-0.6,0.3-1.3,0.6-2,0.8l-0.8,0.3l-1.4,0.5
	c-0.6,0.2-1.1,0.4-1.7,0.6c-0.2,0.1-0.5,0.2-0.8,0.2c-0.5,0-0.9-0.2-1.2-0.6c-0.6-1-1.8-1.5-2.9-1.3h-0.1c-0.4-0.2-0.9-0.4-1.3-0.7
	c-1-0.3-1.9-1-2.4-2c-0.3-0.6-0.8-1.1-1.5-1.4c-0.8-0.4-1.6-0.9-2.2-1.6c-0.4-0.4-0.8-0.7-1.4-0.8c-1.3-0.3-1.5-0.6-1.5-1.7
	c0.1-1.3-0.4-2.6-1.3-3.5c-0.3-0.3-0.5-0.7-0.6-1.1c-0.1-0.6-0.4-1.1-0.8-1.6c-0.6-0.8-1.2-1.7-1.7-2.5c-0.6-0.8-1.2-1.7-1.8-2.6
	c-0.1-0.2-0.2-0.5-0.3-0.8c-0.2-1-0.3-2.1-0.5-3.1s-0.2-2-0.3-3c0-0.2,0-0.3,0.1-0.5c0.4-0.7,0.6-1.5,0.6-2.3c0-0.2,0-0.3,0-0.5
	c0-1,0.1-1.9,0.3-2.9c0.2-0.9,0.4-1.7,0.7-2.6L26,270c0.1-0.2,0.2-0.4,0.3-0.6c0.4-0.6,0.5-1.4,0.2-2c-0.3-0.6-0.3-1.4,0.2-1.9
	c0.3-0.5,0.5-1.1,0.5-1.8v-0.3c0.1-1.2,0.5-2.3,1.1-3.3l0.4-0.6c0.7-0.9,1.1-2,1.3-3.1c0-0.1,0.3-0.4,0.4-0.5
	c0.8-0.6,1.2-1.6,1.1-2.6c0-0.1,0-0.3,0.1-0.4l0.3-1c0.4-1,0.8-2.1,1.2-3.2c0.2-0.4,0.5-0.8,0.8-1.2c0.2-0.2,0.3-0.4,0.5-0.6
	l0.1-0.1c0.2-0.2,0.3-0.4,0.3-0.7c0-0.6,0.1-1.1,0.4-1.6c0.3-0.5,0.5-1,0.6-1.5c0.6-0.1,1.2-0.5,1.6-1c0.2-0.3,0.5-0.5,0.8-0.6
	c0.3-0.1,0.6-0.4,0.7-0.7c0.2-0.4,0.1-0.9-0.1-1.3c-0.6-1.1-0.3-2.1,0.4-3.3c0.3-0.5,0.4-1,0.5-1.6c0.1-0.6,0.4-1.1,0.7-1.6l0.4-0.4
	c0.7-0.8,1.2-1.7,1.5-2.7c0.1-0.3,0.2-0.6,0.5-0.8c0.6-0.5,1-1.2,1.1-2c0.1-0.5,0.3-1,0.5-1.4c0.4-0.6,0.9-1.3,1.3-1.9
	c0.3-0.4,0.6-0.8,0.9-1.2c0.3-0.4,0.4-0.7,0.6-1c0.3-0.5,0.7-1,1-1.5c0.4-0.6,0.8-1.3,1.1-2l0.1-0.3c0.4-0.7,1-1.3,1.7-1.8l0.5-0.4
	c0.6-0.3,1-0.9,1.2-1.5c0-0.1,0-0.1,0.1-0.2c0.7-0.2,1.3-0.6,1.8-1.1c0.3-0.3,0.6-0.5,0.9-0.7c0.5-0.3,0.9-0.8,1-1.4
	c0.1-0.4,0.1-0.9,0.1-1.3c0-0.2,0-0.4,0-0.6c0-0.2,0-0.6,0.1-0.9c0.1-0.3,0.1-0.8,0.1-1.2c0-0.8,0.6-1.3,1.3-1.8l0.2-0.1
	c0.5-0.4,0.9-0.9,1.1-1.5c0-0.1,0.1-0.3,0.3-0.4c1.1-0.4,2-1.3,2.3-2.4L62,200c0.1-0.2,0.2-0.5,0.3-0.7c0.2-0.4,0.4-0.9,0.6-1.3
	c0.4-0.5,0.8-1,1.3-1.5c0.3-0.3,0.6-0.6,0.9-0.9c0.5-0.5,0.9-1.1,1.3-1.7l0.2-0.3c0.5-1.2,1.5-2.2,2.6-2.7c0.7-0.4,1.3-1.1,1.4-2
	c0.4-1,1.2-1.9,2.1-2.4c0.3-0.2,0.6-0.4,0.7-0.7c0.5-0.8,1.2-1.4,2-1.9l0.7-0.4c0.5-0.4,0.9-0.7,1.3-1.2l0.4-0.4c1-1,2.1-2,3.4-2.8
	c0.6-0.4,1.1-0.9,1.6-1.4l0.2-0.3c0.3-0.4,0.7-0.6,1.2-0.7c0.7-0.1,1.4-0.5,1.7-1.2c0.9-1.2,2-2.3,3.3-3l0.1,0h0.3
	c1,0,1.9-0.5,2.5-1.3c0.2-0.2,0.3-0.4,0.5-0.5c0.2-0.2,0.5-0.4,0.8-0.6c0.3-0.2,0.3-0.2,0.5-0.4c1.9-1.5,4-2.9,6.3-4
	c0.2-0.1,0.5-0.3,0.7-0.5c0.8-0.8,1.8-1.2,2.9-1.1h0.3c0.4,0,0.8-0.1,1.1-0.3c0.6-0.5,1.2-0.8,2-1l0.8-0.2l0.3-0.1
	c0.3-0.1,0.7-0.2,1-0.4c0.4-0.3,1-0.4,1.5-0.4c0.2,0,0.4,0,0.6,0c0.1,0,0.2,0,0.3,0c0.2,0,0.3,0,0.5-0.1c0.8-0.3,1.6-0.5,2.4-0.4
	c0.4,0,0.9,0,1.3-0.1c0.7-0.1,1.4-0.3,1.6-1.3c0.1-0.4,0.1-0.4,0.3-0.4h0.3c0.4,0,0.9,0.1,1.3,0.1l1.4,0.1c0.3,0,0.5,0.1,0.8,0.2
	c0.2,0.1,0.3,0.1,0.4,0.2c0.2,0.1,0.4,0.2,0.5,0.3c1,0.5,2.1,0.8,3.3,1.1c1,0.1,1.8,0.7,2.2,1.6c0.2,0.6,0.8,1,1.5,1
	c1,0,1.5,0.3,1.8,1c0.1,0.3,0.3,0.5,0.6,0.6l0.1,0.1c0.5,0.3,0.8,0.9,0.9,1.5c0,0.4,0.2,0.8,0.4,1.1c1.2,1.6,1.7,3.7,1.4,5.7
	c-0.1,0.5-0.1,1-0.1,1.5c0.1,0.9,0,1.8-0.3,2.7c-0.2,0.7-0.3,1.5-0.3,2.2v1.4c0,1,0,2.1-0.1,3.1c0,0.2,0,0.4-0.1,0.6
	c-0.4,0.6-0.6,1.3-0.3,2c0.2,1.3,0.1,2.7-0.3,3.9l0,0c-0.6,0.5-1,1.2-1.3,2c-0.2,0.7-0.6,1.3-1.1,1.7c-0.4,0.4-0.5,1-0.4,1.6v0.3
	c0,0.4,0,0.7,0.1,1.1v0.2l-0.1,0.1c-0.9,0.2-1.7,0.7-2.4,1.4c-0.2,0.2-0.5,0.4-0.7,0.6c-0.3,0.2-0.3,0.6-0.3,1.2
	c0.1,0.7,0,1.4-0.3,2c-0.2,0.2-0.3,0.5-0.4,0.9c-0.3,1.1-0.9,2-1.8,2.8l-0.4,0.4c-0.1,0.1-0.3,0.2-0.4,0.3l-0.4,0.2l-0.6,0.4
	c-0.3,0.2-0.6,0.4-0.9,0.6c-0.5,0.3-1.1,0.6-1.6,1l-0.6,0.3c-0.1,0.1-0.2,0.1-0.3,0.1c-0.3,0.1-0.6,0.3-0.8,0.5
	c-0.5,0.6-1.1,1-1.7,1.4c-0.1-0.1-0.2-0.1-0.4-0.2h-0.2c-0.4,0-0.8,0.2-1.1,0.4c-0.1,0.1-0.3,0.2-0.5,0.2c-0.2,0-0.4-0.1-0.6-0.1
	c-0.3-0.1-0.6-0.2-1-0.2c-0.4-0.1-0.8-0.2-1.1-0.3c-0.2-0.1-0.4-0.1-0.6-0.1h-0.4c-0.1,0-0.1,0-0.1,0c-0.5-0.5-1.2-0.9-2-1.1
	c-1.5-0.4-2.8-1.4-3.5-2.8c-0.3-0.4-0.3-0.9-0.1-1.4c0.4-0.6,0.6-1.4,0.6-2.1c0-0.6,0.2-1.2,0.5-1.7c0-0.1,0.1-0.1,0.1-0.1
	c0.1-0.2,0.2-0.3,0.2-0.5c0.3-1-0.7-1.7-1.4-2.3s-1-0.9-0.8-1c0.2-0.2,0.3-0.5,0.4-0.8c0-0.1,0.1-0.3,0.1-0.4l0.1-0.3
	c0.1-0.3,0.2-0.5,0.4-0.7c0.3-0.2,1-0.7,0.7-1.3c-0.1-0.3-0.4-0.5-1.2-0.6c-0.5,0-1,0.1-1.4,0.3c-0.3,0.1-0.6,0.3-0.9,0.4
	c-0.5,0.2-0.9,0.4-1.4,0.5c-1.6,0.5-3.1,1.3-4.3,2.4c-0.9,0.7-1.9,1.5-2.8,2.2c-0.8,0.6-1.6,1.2-2.4,1.8c-0.5,0.4-1,0.8-1.4,1.2
	s-0.6,0.6-1,0.9c-0.8,0.7-1.6,1.3-2.4,1.9c-1.2,0.9-2.3,1.9-3.3,3c-0.2,0.3-0.5,0.5-0.8,0.7l-0.4,0.4l-0.1,0.1
	c-0.2,0.1-0.3,0.2-0.4,0.4l-0.4,0.6c-0.4,0.5-0.8,1.1-1.1,1.7c-0.3,0.6-0.8,1.2-1.3,1.7c-0.4,0.4-0.7,0.7-1,1.1l-0.3,0.4
	c-0.2,0.3-0.4,0.6-0.6,0.8c-0.8,0.9-1.4,2-1.7,3.1l-0.1,0.4c-0.2,0.4-0.5,0.7-0.8,1c-0.2,0.2-0.4,0.4-0.5,0.6l-0.7,0.8
	c-0.3,0.4-0.6,0.7-0.9,1.1c-0.1,0.2-0.3,0.4-0.5,0.5c-0.8,0.3-1.3,1.1-1.2,2c0,0.1,0,0.1,0,0.2c-0.4,0.6-0.7,1.3-0.9,2.1
	c-0.1,0.5-0.3,1-0.5,1.4c-0.3,0.8-0.9,1.4-1.7,1.7c-0.9,0.2-1.5,1-1.5,2c0.1,0.7-0.2,1.3-0.8,1.7l-0.3,0.2v0.3
	c0.1,1.4-0.4,2.9-1.4,3.9l-0.5,0.6c-0.4,0.5-0.8,1-1.2,1.6c-0.2,0.4-0.3,0.8-0.3,1.2c0,0.2,0,0.4-0.1,0.5c0,0.1-0.1,0.3-0.1,0.4
	c-0.1,0.3-0.2,0.7-0.3,1c-0.2,0.4-0.5,0.9-0.8,1.3c-0.3,0.4-0.5,0.8-0.8,1.2c-0.2,0.4-0.4,0.8-0.5,1.3l-0.2,0.4
	c0,0.1-0.1,0.2-0.1,0.3c0,0,0,0.1,0,0.1c-0.6,0.6-0.8,1.4-0.7,2.2c0,0.2,0,0.3,0,0.5c-0.1,0.9-0.4,1.7-1,2.4c-0.7,1-1.3,2.1-1.5,3.4
	c-0.2,0.7-0.6,1.4-1.1,2c-1,1.2-1.1,1.6-0.4,2.9c-0.7,0.8-1,1.8-1,2.9c0,0.3,0,0.7-0.1,1c-0.1,0.3-0.1,0.7,0,1c0,0.2,0,0.3,0,0.5
	c0.1,0.8-0.2,1.5-0.7,2.1c-0.7,0.7-0.9,1.8-0.6,2.7c0.3,0.9,0.3,1.8-0.2,2.6c-0.3,0.5-0.4,1.1-0.1,1.7c0.3,0.4,0.8,0.7,1.4,0.6
	c0.2,0,0.4,0,0.6,0c0.8-0.2,1.5-0.4,2.2-0.7l0.9-0.3l0.9-0.3c0.6-0.3,1.2-0.5,1.9-0.6c0.9-0.2,1.8-0.6,2.5-1.3c0.6-0.6,1.3-1,2.1-1
	c0.6,0,1.1-0.3,1.5-0.8c0.3-0.4,0.8-0.7,1.2-0.8c0.8-0.4,1.6-0.9,2.3-1.5c0.6-0.5,1.1-1.1,1.7-1.6s1.1-1,1.6-1.6
	c0.3-0.2,0.5-0.4,0.9-0.5l0.6-0.3c0.1-0.1,0.2-0.1,0.3-0.2c0.4-0.1,0.8-0.4,1-0.8c0.2-0.4,0.6-0.7,1-0.9c0.2-0.1,0.4-0.2,0.6-0.4
	l0.4-0.3l0.7-0.5l0.6-0.4c0.2-0.1,0.5-0.3,0.7-0.4c1.4-0.9,2.7-1.8,4.1-2.7c0.5-0.3,0.9-0.7,1.3-1.1l0.3-0.3c0.4-0.3,0.7-0.6,1-1
	c0.7-1.1,1.3-2.2,2-3.2l0.2-0.4c0.4-0.7,0.8-1.5,1.2-2.2l0.8-1.5c0-0.1,0.1-0.1,0.1-0.2c0.9-0.3,1.4-1.3,1.1-2.3c0,0,0,0,0,0l0,0
	c0,0,0.1-0.1,0.1-0.2l0.1-0.2l0.3-0.5c0.2-0.3,0.3-0.6,0.4-0.9c0.2-0.5,0.4-0.7,0.7-0.8c0.7-0.1,1.2-0.8,1.1-1.5c0,0,0,0,0,0
	c0-0.2,0-0.3,0.3-0.5c0.2-0.2,0.4-0.4,0.5-0.6c0.1-0.2,0.2-0.2,0.6-0.3h0.4c0.8-0.1,1.6-0.4,2.3-0.7c0.4-0.2,0.8-0.3,1.2-0.3
	c0.6,0,1.1,0.2,1.6,0.6c0.1,0.1,0.3,0.3,0.5,0.4c0.2,0.2,0.4,0.3,0.6,0.5c0.2,0.2,0.5,0.5,0.6,0.8c0.3,0.7,0.7,1.3,1.3,1.8l0.2,0.2
	c0.7,0.6,1.5,1.1,2.4,1.3c0.3,0.1,0.7,0.2,1,0.4c0.5,0.2,0.9,0.6,1.2,1c0.7,0.9,1.2,1.9,1.5,2.9v0.2c0.1,0.4,0.2,0.7,0.1,1.1
	c-0.4,1.7-0.5,3.5-0.1,5.2c0.1,0.8,0.5,1.5,1,2.1c0.2,0.3,0.5,0.6,0.7,0.9c0.2,0.3,0.2,0.6,0.1,0.9c-0.8,1.5-1.1,3.2-0.8,4.9
	c0,0.2,0,0.5-0.1,0.7c-0.4,1.1-0.9,2.2-1.4,3.3c-0.5,1.1-1,2.1-1.4,3.2c-0.1,0.3-0.3,0.5-0.4,0.7l-0.4,0.5c-0.4,0.6-0.9,1.2-1.3,1.7
	c-0.8,0.9-1.3,2-1.5,3.2c-0.2,0.5-0.4,0.9-0.8,1.2c-0.2,0.2-0.4,0.5-0.5,0.7l-0.1,0.2c-0.3,0.3-0.4,0.7-0.5,1.1
	c-0.2,1-0.5,1.9-1,2.8l-0.2,0.5c-0.5,1.1-1,2.2-1.4,3.3l-0.6,1.4c-0.1,0.1-0.1,0.2-0.1,0.3c0.1,1.1-0.5,1.7-1.6,2.5
	c-0.5,0.4-0.9,1-1.1,1.6c-0.1,0.2-0.2,0.5-0.4,0.7l-0.1,0.2c-0.4,0.9-1.2,1.7-2.1,2.1l-0.3,0.1l0,1c0,0.6,0,1.2-0.1,1.8
	c0,0.2-0.1,0.4-0.3,0.6c-0.1,0.1-0.2,0.1-0.2,0.2c-0.2,0.1-0.6,0.3-0.6,0.7c-0.2,0.6-0.6,1.1-1.1,1.4c-0.3,0.2-0.5,0.5-0.8,0.7
	c-0.4,0.6-0.8,1.2-1,1.9l-0.2,0.6c-0.3,1-0.9,1.9-1.6,2.6c-0.5,0.5-0.9,1.1-1.1,1.8c-0.2,0.6-0.5,1.1-0.9,1.5
	c-0.2,0.2-0.3,0.4-0.5,0.6c-0.5,0.7-0.8,1.4-1.2,2.1c-0.1,0.2-0.1,0.5-0.1,0.8v0.1c0.1,0.7,0.1,0.7-0.7,0.8c-0.1,0-0.2,0.1-0.4,0.1
	l-0.5,0.2v0.3c-0.1,1.7-1.3,2.9-2.5,3.9c-0.3,0.2-0.6,0.5-0.8,0.8c-0.3,0.4-0.8,0.7-1.2,1c-0.3,0.2-0.5,0.5-0.6,0.8l-0.1,0.1
	c-0.4,0.8-1,1.4-1.9,1.7c-0.9,0.4-1.5,1.1-1.9,2c-0.6,1.1-1.1,2.1-2.4,2.4c-0.4,0.2-0.8,0.4-1.1,0.8c-0.4,0.4-0.9,0.6-1.4,0.6l0,0
	c-1.3,0-2.6,0.1-3.8,0.3c-0.3,0.1-0.6,0.1-1,0.1c-0.6,0-1.2-0.2-1.5-0.7l-0.7-0.8c-0.3-0.3-0.5-0.6-0.8-0.9
	c-0.1-0.1-0.1-0.2-0.2-0.3c0.1-1,0-2-0.3-2.9c-0.1-0.4-0.2-0.8-0.2-1.2c0-0.1,0-0.3,0-0.3c0.5-0.7,0.7-1.5,0.6-2.3
	c0-0.2,0-0.5,0-0.7c0-0.7,0.2-1.4,0.4-2.1c0.1-0.4,0.2-0.7,0.2-1.1c0-0.8,0.1-1.5,0.4-2.2c0.6-1,0.3-2.3-0.6-3
	c-0.4-0.4-0.5-1-0.2-1.5c0.5-1.1,0.6-2.2,0.3-3.4c-0.2-1,0.1-2,0.7-2.8c0.8-0.9,1.4-1.9,2-3c0.1-0.3,0.3-0.6,0.5-0.9
	c1-1.8,2.3-3.4,3.8-4.8c0.4-0.4,0.8-0.8,1.2-1.2c0.4-0.4,0.9-0.8,1.3-1.2l0.2-0.2c0.5-0.4,0.8-1,0.7-1.6L71.1,293.4z"/>
<path class="st0" d="M209.9,148.5c-0.1,0-0.3,0-0.4-0.1c-0.4-0.2-0.7-0.5-1-0.8c-0.5-0.6-1-1.3-1.4-2c-0.3-0.5-0.5-1.1-0.7-1.7
	c-0.2-1.1-0.7-2.1-1.5-2.9c-1-1-1.1-1.7-0.5-2.6c0.2-0.4,0.4-0.8,0.4-1.3v-0.2c0-0.2,0-0.4,0-0.6c0-0.2,0-0.3,0-0.5
	c0.3-0.9,0.2-1.9-0.4-2.6c-0.4-0.5-0.1-1.1,0.3-2l0.1-0.3l0.6-1.4l0.7-1.5c0.3-0.7,0.6-1.4,1-2.1c0.4-0.7,0.3-1.5-0.3-2
	c-0.3-0.3-0.3-0.7-0.1-1.1c0.4-1.1,0.5-2.2,0.3-3.4l0-0.4c0-0.4-0.2-0.8-0.4-1.1c-0.4-0.6-0.9-1.1-1.4-1.6c-0.3-0.4-0.8-0.6-1.3-0.6
	c-0.6,0-1.1,0.4-1.4,0.9c-0.7,1.3-1.6,2.4-2.7,3.4c-0.8,0.8-1.5,1.6-2.2,2.5l-0.6,0.7c-0.3,0.3-0.5,0.7-0.7,1
	c-0.3,0.6-0.8,1.1-1.3,1.6c-0.9,0.7-1.7,1.6-2.2,2.6c-0.2,0.3-0.5,0.6-0.9,0.8c-0.1,0.1-0.3,0.2-0.4,0.3c-0.7,0.6-1.3,1.2-1.9,1.8
	c-0.8,0.9-1.7,1.7-2.8,2.4l-0.5,0.3l-0.9,0.6l-0.2,0.1c-0.4,0.2-0.7,0.5-1,0.8c-0.5,0.6-1.2,1.1-2,1.2c-1,0.1-1.9,0.8-2.2,1.8
	c-0.5,1.2-1.6,2-2.9,2.2c-0.9,0.1-1.7,0.5-2.3,1c-0.4,0.3-0.8,0.5-1.2,0.6l-0.1,0.1c-0.5,0.2-1.1,0.4-1.7,0.6l-0.6,0.2
	c-0.1,0.1-0.3,0.1-0.5,0.1c-1,0-2,0.1-2.9,0.4c-0.5,0.1-0.9,0.3-1.3,0.5l-0.6,0.2c-1.1,0.4-2.3,0.7-3.5,0.9l-0.5,0.1
	c-0.4,0.1-0.7,0.1-1.1,0.1c-0.4,0-0.8,0.1-1.2,0.1c-0.5,0.1-0.9,0.3-1.3,0.6c-0.2,0.2-0.4,0.3-0.6,0.3c-0.1,0-0.2,0-0.2-0.1
	c-0.1-0.1-0.2-0.1,0-0.6c0.1-0.2,0.1-0.3,0.1-0.5v-0.2l0.1-0.4l-0.4-0.1l-0.2-0.1c-0.2-0.1-0.5-0.1-0.7-0.1c-0.4,0-0.8,0.1-1.1,0.2
	H155c-0.5,0.1-1.1,0.2-1.6,0.2c-0.5,0-1.1-0.1-1.5-0.3c-0.5-0.2-1-0.3-1.5-0.3c-0.7,0-1.4,0.2-2,0.6c-0.2,0.1-0.5,0.2-0.8,0.2
	c-0.1,0-0.3,0-0.4,0c-1-0.2-1.9-0.3-2.9-0.3c-0.2,0-0.5,0-0.7,0h-0.2c-0.3,0-0.7-0.1-1-0.1l-0.5-0.1l-1-0.2
	c-0.8-0.2-1.5-0.3-2.3-0.3c-0.4,0-0.9,0-1.3,0.1c-0.1,0-0.2,0-0.4,0c-0.4,0-0.9-0.2-1.2-0.5c-0.3-0.3-0.5-0.5-0.8-0.8
	c-0.9-0.7-1.6-1.5-2.3-2.4c-0.4-0.5-0.8-1-1.2-1.5c-0.2-0.2-0.4-0.5-0.7-0.7c-0.2-0.3-0.6-0.7-0.9-1c-0.8-0.8-1.4-1.7-2-2.6
	c-0.4-0.8-0.7-1.6-0.9-2.4c-0.1-0.3-0.2-0.6-0.3-1c-0.1-0.3-0.1-0.5-0.1-0.8v-0.3c-0.1-1.1-0.8-2-1.8-2.5c-0.9-0.4-0.9-0.4-0.5-1.2
	c0.5-0.7,0.4-1.7-0.2-2.4c-0.1-0.2-0.1-0.4,0-0.6c0.3-0.6,0.3-1.2,0.1-1.8c-0.3-1.4-0.7-2.9-1-4.4c0-0.4,0.1-0.7,0.2-1
	c0.5-1.3,0.6-2.8,0.3-4.2c-0.1-0.5-0.1-1.1,0.1-1.6c0.1-0.1,0.1-0.3,0.1-0.4c0.1-1.4,0.5-2.7,1.3-3.8c0.2-0.3,0.4-0.7,0.5-1
	c0.7-1.3,1.3-2.6,2-3.9c1.2-2.4,2.4-4.8,3.6-7.2c0.7-1.3,1.4-2.6,2.3-3.8c1-1.4,2-2.8,2.9-4.2c1.3-1.9,2.7-3.8,4-5.7
	c0.9-1.3,2-2.4,3.4-3.2c3.3-2.3,6.3-5.1,8.7-8.3c1.5-1.7,3.1-3.2,5-4.5l0.8-0.6c0.9-0.6,1.8-1.3,2.6-2l0.1-0.1
	c0.5-0.4,1-0.8,1.4-1.3c1.4-1.7,3.2-3,5.2-3.9c0.5-0.3,1-0.5,1.6-0.8c0.8-0.4,1.6-0.8,2.3-1.2c1-0.6,2-1.3,2.9-2.1
	c0.5-0.6,1.2-0.9,2-1h0.2c0.1,0,0.2,0,0.3,0c0.9,0,1.8-0.4,2.3-1.1c0.5-0.5,1.1-0.8,1.8-0.9l0.2-0.1l2.8-0.8l1.6-0.4
	c0.4-0.1,0.7-0.2,1.1-0.3l0.6-0.1c0.4-0.1,0.9-0.2,1.3-0.3c0.3-0.1,0.7-0.1,1,0.1c0.4,0.2,0.9,0.4,1.4,0.4c0.6,0,1.2-0.2,1.7-0.6
	c0.5-0.4,1-0.6,1.6-0.6h0.3c0.4,0,0.8-0.1,1.1-0.3c0.3-0.2,0.7-0.3,1-0.4c0.4,0,0.9,0.2,1.2,0.4c0.5,0.4,1.2,0.5,1.8,0.6
	c0.7,0,1.4-0.2,2-0.6c0.6-0.3,1.3-0.4,2-0.5l0.4-0.1c0,0,0.1,0.1,0.2,0.2c1,1.2,2.3,2.1,3.7,2.7c1.1,0.6,2.1,1.2,3.2,1.9
	c0.2,0.1,0.3,0.3,0.4,0.5c1,1.5,1.8,3.2,2.3,4.9v0.2c0,0.7,0.4,1.4,1.1,1.8l0.3,0.2l0.3-0.2c0.6-0.4,0.9-1.1,0.9-1.8
	c0-0.3,0.1-0.6,0.2-0.9c0.1-0.3,0.1-0.6,0.2-0.8c0.1-0.6,0.2-1.3,0.3-2l0.1-0.5c0-0.2,0-0.4,0.1-0.6c0.1-0.2,0.1-0.7,0.1-1
	c0.1-0.7,0.3-1.5,0.6-2.4l0.1-0.3c0-0.3,0.2-0.6,0.3-0.9c0.8-0.7,1-1.8,0.4-2.7c0-0.1-0.1-0.2-0.1-0.3c0.1-2,0.2-3.9,0.3-5.9
	c0-0.2,0.1-0.4,0.2-0.6c0.6-0.8,0.9-1.7,0.9-2.6c0-0.2,0-0.3,0.1-0.5c0.6-0.7,0.8-1.6,0.8-2.5v-0.2c0-0.4,0.1-0.7,0.1-1.1
	c0.2-1,0.2-2,0-2.9c0-0.1,0-0.2,0.1-0.3c0.1-0.1,0.1-0.3,0.1-0.4v-0.2c0.1-0.3,0.1-0.7,0-1c-0.1-0.4,0-0.9,0.2-1.2
	c0.3-0.3,0.4-0.8,0.4-1.2c-0.1-0.4,0.1-0.6,0.5-0.8c0.3-0.1,0.6-0.3,0.8-0.6c0.2-0.4,0.6-0.6,1.1-0.6c0.3,0,0.5,0,0.8,0.1
	c0.3,0.1,0.6,0.1,1,0.1c0.9,0.1,1.7-0.5,2-1.3l0.1-0.1c0,0,0.1,0.1,0.1,0.1c0,0.1,0.1,0.3,0.1,0.4c0,0.1,0,0.2,0,0.3
	c0.1,0.7,0.6,1.3,1.2,1.7c0.3,0.2,0.6,0.2,1,0.2c0.8,0,1.4-0.5,1.7-1.2c0-0.1,0.1-0.2,0.1-0.3c0.1-0.8,0.8-1.5,1.7-1.5
	c0.2,0,0.4,0,0.6,0.1c0.6,0.2,1.2,0.3,1.8,0.3c0.4,0,0.7,0.3,0.8,0.6c0.3,0.7,0.9,1.3,1.5,1.8c0.5,0.3,0.9,0.9,1,1.5
	c0.3,1.1,1,2.1,2,2.7c0.4,0.2,0.5,0.5,0.4,1.1c0,1.2,0,2.4,0.2,3.6c0.2,0.6,0.1,1.3-0.3,1.8c-0.4,0.4-0.4,1.1,0,1.6c0,0,0,0,0,0
	c0.8,1,1.1,2.2,1.1,3.5c0,0.4,0,0.7,0.1,1.1c0,0.1,0,0.1,0,0.2c-0.6,0.7-0.8,1.6-0.6,2.5c0,0.3,0,0.7-0.1,1
	c-0.5,0.9-0.7,1.9-0.6,2.9c0,0.1,0,0.1-0.1,0.2c-0.1,0.1-0.1,0.3-0.1,0.4c-0.1,0.3-0.1,0.6-0.2,1c0,0.2,0,0.5,0,0.7c0,0.3,0,0.7,0,1
	c-0.3,2.1-0.6,4.1-1,6.2l-0.6,3.7c-0.2,1.2-0.4,2.4-0.6,3.5c-0.1,0.4-0.2,0.7-0.3,1c-0.3,0.7-0.4,1.4-0.3,2.1c0,0.5-0.1,1-0.3,1.4
	c-0.3,0.6-0.4,1.4-0.2,2c0.2,0.4,0.1,0.9-0.2,1.3c-0.2,0.2-0.2,0.5-0.3,0.8c-0.2,1.8-0.5,3.7-0.7,5.5c0,0.1,0,0.2,0,0.3
	c0,0.1,0,0.2,0,0.3c-0.4,1.1-0.6,2.3-0.6,3.5c0,0.5,0,1-0.1,1.4c0,0.3-0.1,0.5-0.1,0.8c0,0.2-0.1,0.5-0.1,0.7c0,0.2-0.1,0.8-0.1,1.1
	l-0.1,1.1l1.7-0.2c0.8-0.1,1.6-0.2,2.4-0.3c0.4,0,0.7-0.2,1-0.5c0.5-0.6,1-1.1,1.4-1.7l1.1-1.3c0.5-0.6,1-1.3,1.6-2
	c0.1-0.1,0.2-0.2,0.3-0.2c0.8-0.2,1.4-0.8,1.6-1.6l0.2-0.5c0.1-0.8,0.6-1.6,1.3-2.1c0.3-0.1,0.5-0.4,0.5-0.7
	c0.2-0.8,0.7-1.5,1.3-2.1l0.3-0.3c0.2-0.3,0.4-0.5,0.5-0.8c0.1-0.1,0.1-0.3,0.2-0.4l0.3-0.5c0.3-0.5,0.6-1,0.9-1.4l0.6-0.9
	c0.5-0.8,1.1-1.6,1.9-2.3c0.6-0.6,1.2-1.2,1.6-2c0.3-0.5,0.7-0.9,1-1.3c0.8-0.9,1.6-1.8,2.3-2.8l0.7-1c0.5-0.6,1.1-1.2,1.7-1.7
	c0.3-0.3,0.7-0.6,1-1c0.2-0.3,0.4-0.6,0.6-0.9c0.1-0.2,0.3-0.5,0.4-0.7c0.2-0.4,0.5-0.8,0.7-1.2c0.3-0.4,0.8-0.6,1.3-0.6h0.3
	c0.2,0,0.4,0.1,0.7,0.1c0.7,0,1.5-0.2,2.1-0.6l0.4-0.2c0.8-0.3,1.4-0.7,2-1.3c0.2,0,0.3,0.2,0.5,0.4c0.4,0.7,1.1,1.2,1.8,1.2
	c0.4,0,0.8-0.1,1.2-0.3c0.1-0.1,0.3-0.1,0.4-0.2c0.1,0,0.2,0,0.2,0c0.1,0,0.3,0,0.4,0c0.1,0,0.3,0,0.4,0.1c1.2,0.7,2.2,1.7,3.1,2.7
	c0.1,0.1,0.1,0.3,0.1,0.5c0,0.4,0,0.8-0.1,1.3c0,0.4-0.1,0.8-0.1,1.2c0,0.4,0,0.9,0,1.3c0,0.3,0,0.5,0,0.8c0,0.1,0,0.2,0,0.3
	c0,0.2,0,0.4,0,0.5v0.3c0,0.4,0.1,0.8,0.2,1.1c0.3,0.7,0.3,1.5,0,2.2c-0.2,0.5-0.4,1-0.6,1.5c-0.4,1.1-0.9,2.2-1.5,3.2
	c-0.4,0.7-0.8,1.4-1.3,2l-0.5,0.8l-1.1,1.7l-0.7,1.1l0.1,0.2c0.1,0.2,0.2,0.4,0.2,0.6l0.1,0.3c0.4,0.7,0.4,1.5,0.1,2.2
	c-0.2,0.5-0.2,1.1,0.1,1.6c0.1,0.3,0.5,1.4,1,1.7c0.2,0.1,0.5,0.2,0.7,0.2c0.1,0,0.3,0,0.4-0.1c0.6-0.2,1.2-0.4,1.9-0.6l0.2-0.1
	c0.3-0.1,0.5-0.2,0.7-0.4c0.4-0.5,0.8-1,1.3-1.4c0.9-0.8,1.6-1.8,2.1-2.8c0.1-0.1,0.1-0.3,0.2-0.4c0.4,0.1,0.8,0.2,1.3,0.1
	c1.1-0.1,2.2-0.6,3-1.5c0.3-0.3,0.6-0.6,0.9-1c0.2-0.2,0.3-0.4,0.5-0.6c0.5-0.6,1.2-1,2-1.1c1.2,0,2.2-0.8,2.5-2
	c0.3-0.8,0.8-1.6,1.4-2.2c0.2-0.2,0.4-0.5,0.6-0.7c0.3-0.4,0.6-0.7,1-1.1c0.6-0.6,1.2-1.2,1.6-2c0.5-0.7,1.1-1.2,1.8-1.7
	c0.2-0.2,0.4-0.3,0.6-0.5s0.5-0.4,0.8-0.6c0.6-0.5,1.1-1,1.7-1.4c0.3-0.1,0.6-0.2,0.9-0.3c0.2,0,0.4-0.1,0.6-0.1l0.2-0.1l1.3-2.3
	h0.5c0.8,0,1.5-0.6,1.7-1.3c0.1-0.3,0.3-0.5,0.6-0.6c0.7-0.4,1.3-1,1.7-1.8c0.4-0.9,1.1-1.7,2-2.2c0.3-0.1,0.6-0.4,0.7-0.7
	c0.2-0.7,0.6-1.3,1.2-1.6l0.5-0.4c0.3-0.3,0.5-0.5,0.8-0.8c0.3-0.3,0.6-0.7,1-1c0.3-0.2,0.7-0.4,1-0.4c0.3,0,0.7,0.1,1,0.1
	c1,0.1,2-0.4,2.6-1.3c0.1,0,0.1-0.1,0.2-0.1h0.1c0.7,0,1.4-0.4,1.9-0.9l0.9-0.8l1.3-1.1c0.2-0.2,0.4-0.4,0.5-0.6
	c0.5-1,1.2-1.8,2.1-2.4c0.3-0.3,0.5-0.5,0.8-0.8l0.2-0.3c0.3-0.4,0.7-0.6,1.1-0.6c0.3,0,0.6-0.1,0.9-0.3c0.1-0.1,0.3-0.1,0.4-0.2
	l0.3-0.1c0.2-0.1,0.5-0.1,0.7-0.1c0.2,0,0.4,0,0.6,0c0.9,0,1.7-0.4,2.2-1c0.2-0.2,0.3-0.4,0.5-0.6c0.1-0.2,0.3-0.3,0.4-0.5
	c0.2-0.2,0.4-0.4,0.7-0.4c0.1,0,0.2,0,0.3,0.1c0.4,0.3,0.7,0.8,0.6,1.3c-0.2,0.3-0.4,0.6-0.6,0.8l-0.3,0.4l-0.9,1.2l0.4,0.3l0.2,0.2
	c0.2,0.1,0.4,0.3,0.6,0.3c0.3,0.1,0.6,0.3,0.7,0.5s-0.1,0.5-0.2,0.7c-0.3,0.3-0.6,0.6-0.9,0.8c-0.6,0.3-0.9,1.1-0.6,1.7
	c0.1,0.3,0.2,0.6-0.3,1.1c-0.7,0.6-1.1,1.4-1.2,2.3c-0.1,0.3-0.2,0.5-0.3,0.7c-0.1,0.1-0.1,0.2-0.2,0.3c-0.2,0.4-0.4,0.7-0.6,1.1
	c-0.2,0.3-0.4,0.5-0.7,0.8c-0.2,0.2-0.4,0.4-0.6,0.5c-0.6,0.4-1.1,0.9-1.4,1.5l-0.2,0.4l0.6,0.3l0.4,0.2c0.2,0.1,0.3,0.2,0.2,0.6
	c-0.1,0.2-0.1,0.4-0.2,0.7c-0.1,0.7-0.4,1.4-0.9,2c-0.2,0.2-0.3,0.4-0.3,0.6c-0.1,1.3-1.2,1.9-2.3,2.6l-0.3,0.2
	c-0.9,0.6-1.5,1.6-1.6,2.7c0,0.7-0.4,1.3-1,1.7c-0.3,0.2-0.6,0.5-0.8,0.8c-0.2,0.6-0.7,1-1.2,1.2c-0.3,0.1-0.8,0.4-0.8,0.8
	c-0.1,0.5-0.3,1-0.7,1.4c-0.4,0.5-0.7,1-0.8,1.6c-0.1,0.1-0.1,0.3-0.1,0.4c-0.1,1.2-0.7,2.3-1.7,3.1c-0.2,0.2-0.4,0.5-0.5,0.8
	l-0.1,0.2c-0.6,1.3-1.4,2.5-2.4,3.4c-0.5,0.5-0.9,0.9-1.3,1.4l-0.6,0.7l-0.3,0.3c-0.4,0.5-0.8,1-1.3,1.4l-2.7,2.6l-2.4,2.3
	c-0.3,0.3-0.6,0.7-0.8,1.1c-0.3,0.7-0.8,1.3-1.5,1.7c-1.1,0.7-2,1.7-2.7,2.8c-0.8,1.2-1.7,2.3-2.6,3.4l-0.9,1.1
	c-0.1,0.1-0.3,0.3-0.4,0.3c-0.8,0.5-1.5,1.3-1.9,2.2c-0.4,1-1,1.9-2,2.6c-0.4,0.2-0.7,0.6-0.8,1c-0.4,0.7-0.8,1.4-1.5,2l-0.4,0.4
	c-1,0.9-1.7,1.9-2.3,3.1c-0.2,0.4-0.6,0.6-1,0.8c-0.8,0.4-1.4,1.1-1.7,1.9c-0.6,0.9-1,1.8-1.5,2.7c-0.3,0.5-0.5,1.1-0.8,1.6
	c-0.5,0.7-1.2,1.3-2,1.7c-1,0.5-1.8,1.3-2.3,2.3l-0.3,0.5l-1.1,1.6l-0.1,0.1c-0.2,0.1-0.3,0.3-0.3,0.5c-0.3,0.8-0.8,1.4-1.5,1.8
	c-0.3,0.2-0.5,0.4-0.8,0.6c-0.2,0.1-0.4,0.2-0.6,0.3c-0.1,0-0.2,0-0.3-0.1c-0.4-0.2-0.9-0.4-1.5-0.4c-0.9,0.1-1.7,0.4-2.3,1
	c-0.3,0.2-0.5,0.4-0.8,0.7c-0.3,0.3-0.7,0.5-1.2,0.5h-0.2c-0.1,0-0.3,0-0.4,0h-0.1c-1.9,0-2.3,0.3-2.7,2l-0.1,0.4
	c-0.2,1-0.5,2-0.8,2.9c-0.1,0.2-0.2,0.4-0.3,0.5c-0.6,0.4-1.1,0.9-1.5,1.5c-0.2,0.3-0.5,0.6-0.9,0.8l-0.6,0.4
	c-0.3,0.2-0.6,0.4-0.9,0.6c-0.2,0.2-0.5,0.4-0.8,0.4c-0.2,0-0.3,0-0.5-0.1c-0.4-0.2-0.9-0.3-1.4-0.4c-0.7,0-1.3,0.3-1.8,0.8
	c0,0-0.1,0.1-0.1,0.1c-1.1,0.1-2.1,0.4-3,1c-0.2-0.1-0.4-0.1-0.5-0.2c-0.3-0.2-0.5-0.3-0.7-0.5c-0.2-0.2-0.4-0.3-0.7-0.5
	c-0.4-0.3-0.6-0.5-0.6-0.9c0-0.2,0-0.4-0.1-0.6c0-0.1-0.1-0.2-0.1-0.3l-0.1-0.5l-0.9,0.1l-0.8,0.1c-0.2,0-0.4,0-0.6,0
	c-0.9,0.1-1.8-0.6-2-1.5c-0.3-1-0.3-2,0-3c0.4-1.1,0.4-2.3,0.1-3.4c-0.3-1.4,0.1-2.9,1-4.1l0.1-0.1c0.8-1.1,0.7-1.3-0.2-2.4
	c-0.3-0.3-0.4-0.8-0.2-1.2l0.1-0.4c0.1-0.4,0.2-0.9,0.3-1.3c0-0.5-0.2-1-0.7-1.2c-0.2-0.1-0.3-0.1-0.5-0.1c-0.3,0-0.7,0.1-1,0.3
	c-0.4,0.3-0.7,0.6-0.9,1c-0.5,0.9-1.1,1.8-1.6,2.7l-1,1.7c0,0.1-0.1,0.1-0.2,0.2c-1,0.5-1.7,1.4-1.8,2.6l0,0l-0.2,0.2l-0.2,0.2
	l-0.2,0.2c-0.2,0.1-0.3,0.2-0.4,0.4c-0.5,0.9-1.3,1.6-2.3,2l-0.4,0.1l0.1,0.4c0,0.1,0,0.2,0,0.3c0,0.2,0.1,0.4,0.1,0.5
	c0.2,0.3,0.1,0.6-0.2,0.8c0,0,0,0,0,0c-0.7,0.5-1.2,1.2-1.4,2c-0.1,0.3-0.3,0.5-0.5,0.7c-1,0.8-1.8,1.9-2.2,3.1
	c-0.1,0.3-0.3,0.5-0.4,0.8c-0.5,0.8-0.8,1.7-0.7,2.6c-0.7,1.3-1.6,2.5-2.6,3.6l-0.3,0.2c-0.4,0.4-0.8,0.8-1.3,1.2
	c-0.2,0.1-0.4,0.3-0.6,0.4l-0.4,0.3c-0.4,0.3-0.8,0.6-1.2,0.9c-0.1,0.1-0.2,0.2-0.3,0.3c0,0-0.1,0.1-0.1,0.1c-1.1,0.7-2.2,1.5-2.3,3
	c0,0.2-0.4,0.4-0.9,0.4c-0.1,0-0.2,0-0.2,0c-0.4-0.1-0.8-0.2-1.2-0.2c-0.5,0-1,0.1-1.5,0.3c-0.1,0-0.3,0.1-0.4,0.1
	c-0.4-0.1-0.7-0.2-1.1-0.2c-0.4,0-0.9,0.1-1.3,0.2c-0.4,0.1-0.7,0.1-1.1,0.1c-0.2,0-0.5,0-0.7-0.1c-0.9-0.3-1.8-0.5-2.7-0.7h-0.2
	c-0.3-0.1-0.6-0.1-0.9-0.1c-0.8,0-1,0.5-1.3,1.2C210.2,148.3,210,148.5,209.9,148.5z M175.3,81.1c-0.4,0.2-0.9,0.3-1.3,0.4
	c-0.4,0-0.7,0.1-1,0.4c-0.3,0.5-0.8,0.8-1.4,1c-0.7,0.2-1.3,0.6-2,1c-0.5,0.4-0.9,0.8-1.3,1.2c-0.5,0.6-1.1,1.1-1.8,1.4
	c-0.1,0.1-0.3,0.2-0.3,0.3c-0.7,1.1-1.6,1.9-2.7,2.6c-0.2,0.2-0.4,0.4-0.6,0.6c-0.2,0.5-0.7,0.9-1.2,1c-0.3,0.1-0.5,0.3-0.7,0.5
	l-0.5,0.5c-0.6,0.6-1.1,1.1-1.6,1.7l-0.4,0.5c-0.7,0.7-1.2,1.5-1.7,2.3c-0.8,1.4-1.8,2.6-3,3.6c-0.6,0.4-0.9,1.1-0.8,1.8
	c0.1,0.6,0,1.3-0.4,1.8c-0.2,0.4-0.5,0.7-0.8,1c-0.2,0.2-0.4,0.4-0.5,0.7l-0.2,0.2c-0.3,0.3-0.5,0.7-0.5,1.1c0,0.7-0.3,1.4-1,1.7
	l-0.4,0.3l0.2,0.4c0.3,0.4,0.3,1-0.2,1.4c0,0-0.1,0-0.1,0.1c-0.3,0.3-0.5,0.8-0.4,1.2c0,0.4,0,0.8,0,1.2s0.1,0.9,0,1.4
	c0,0.2-0.1,0.4-0.2,0.6c-2,1.2-1,2.7-0.5,3.4c0.1,0.1,0.1,0.2,0.2,0.3c0.1,0.3,0.3,0.5,0.5,0.7l0.1,0.1c0.4,0.4,1,0.8,1.6,1
	c1.5,0.3,2.9,0.4,4.4,0.4c0.6,0,1.1,0,1.7,0c0.4,0,0.7-0.1,1-0.2l0.3-0.1c0.4-0.1,0.8-0.2,1.3-0.4l0.7-0.2c0.6-0.2,1.2-0.4,1.8-0.6
	l0.6-0.3c0.4-0.2,0.8-0.4,1.2-0.4h0.2c0.4,0,0.7-0.2,1-0.5c0.7-0.9,1.6-1.6,2.6-2c0.3-0.1,0.5-0.3,0.8-0.4c0.9-0.6,1.7-1.2,2.5-2
	c0.3-0.3,0.6-0.6,1-0.9l0.6-0.6c0.3-0.3,0.6-0.5,0.9-0.7c0.5-0.4,1.1-0.7,1.7-0.7h0.4c0.6,0,1.1-0.1,1.6-0.4l0.2-0.1
	c1.1-0.7,2-1.7,2.7-2.8l0.1-0.2c0.6-1.4,1.7-2.6,2.9-3.5c0.3-0.2,0.5-0.4,0.7-0.7l0.3-0.4c0.9-1.2,1.6-2.6,2-4
	c0.1-0.4,0.3-0.8,0.6-1.2c0.6-0.8,1.1-1.8,1.3-2.8c0-0.1,0.1-0.2,0.1-0.3c0-0.2,0.1-0.4,0.2-0.6c0.7-0.8,1.2-1.7,1.5-2.6l0.1-0.3
	c0.1-0.3,0.3-0.6,0.4-1c0.6-1.2,0.9-2.4,1.1-3.7c0-0.2,0-0.4,0-0.6c0-0.5,0-1.9,0.3-2.1l0.3-0.1v-0.3c0-0.1,0.1-0.2,0.1-0.3
	c0.1-0.3,0.2-0.6,0.2-1c-0.1-0.7,0-1.4,0.4-2c0.2-0.5,0.2-1.1,0-1.6c-0.4-0.7-0.4-1.5,0.1-2.1c0.3-0.3,0.4-0.8,0.3-1.3
	c-0.2-0.4-0.5-0.8-1-0.9c0-0.4,0.1-0.7,0.4-1h0.3l0.2-0.3c0.1-0.1,0.1-0.2,0.2-0.4c0-0.2,0-0.3,0-0.5c-0.1-1.4-1-1.5-1.4-1.5
	c-0.3,0-0.7,0.1-1,0.2c-0.1,0.1-0.3,0.1-0.4,0.2l-1.3,0.7c-1,0.6-2,1.1-3.1,1.7c-0.3,0.1-0.5,0.2-0.8,0.2l-0.4,0.1H184
	c-0.4,0-0.7,0.1-1,0.2l-1.1,0.7c-1.1,0.6-2.1,1.2-3.2,2c-0.3,0.2-0.6,0.5-0.8,0.8l-0.6,0.8h0.7c0,0,0,0.1,0,0.1
	c-0.1,0.5,0.1,1,0.6,1.3c-0.5,0.4-1.1,0.6-1.7,0.6l-0.7,0.2h-0.2l-0.2,0.3c-0.1,0.1-0.2,0.2-0.3,0.4l-0.1,0.2
	C175.5,81.1,175.4,81.1,175.3,81.1l0.1-0.1L175.3,81.1z"/>
<path class="st0" d="M134.1,308.7c-0.4,0-0.9-0.1-1.3-0.2l-0.4-0.1c-1.5-0.4-3-0.7-4.6-0.7h-0.2c-0.5,0-1.1,0.1-1.6,0.1
	c-0.3,0-0.5,0.1-0.8,0.1h-0.3c-0.3,0-0.6,0.1-0.8,0.1l0,0c-1.1,0-2.2,0.1-3.2,0.4c-0.3,0.1-0.6,0.1-1,0.1c-0.4,0-0.7,0-1.1,0h-0.5
	c-0.3,0-0.6-0.1-0.9-0.1c-0.4-0.1-0.8-0.1-1.2-0.2c-1.4,0-2.6-0.7-3.4-1.9l-0.2-0.4c-0.6-0.7-1-1.6-1.2-2.6
	c-0.1-0.3-0.3-0.7-0.5-0.9c-0.1-0.1-0.1-0.2-0.2-0.3l-0.4-0.4c-0.2-0.3-0.4-0.5-0.6-0.9l-0.2-0.3c-0.4-0.5-0.6-1.1-0.5-1.7
	c0.1-0.4-0.3-0.8-0.6-1.2c-0.1-0.1-0.2,1-0.3,1s0-0.4,0-0.6c0.2-4.4-0.1-1.3,0.6-2.3c0.2-0.3,0.3-0.6,0.3-0.9l0.1-0.5
	c0.1-0.7,0.2-1.2,0.7-1.5c0.3-0.2,0.5-0.6,0.4-1c-0.1-0.7,0.3-1.1,1-1.7c0.2-0.2,0.4-0.3,0.6-0.5c0.8-0.8,1.8-1.5,2.8-2
	c0.5-0.3,0.8-0.8,1-1.4c0.4-1.1,0.6-2.2,1-3.2l0.1-0.4c0.1-0.3,0-0.6-0.1-0.9c-0.3-0.7-0.4-1.5-0.3-2.3c0-0.5,0-1,0-1.5
	c0-0.1,0.1-0.2,0.2-0.3c0.1-0.1,0.1-0.2,0.2-0.3c0.1-0.3,0.2-0.5,0.4-0.8c0.3-0.6,0.6-1.3,0.8-2c0.1-0.5,0.2-1,0.1-1.6v-0.4
	c0-0.3-0.1-0.5-0.1-0.8c0-0.1-0.1-0.3-0.1-0.4c-0.3-2.2,0.2-4.3,1-6.8c0-0.2,0.1-0.3,0.2-0.4c0.3-0.5,0.6-1,0.9-1.4
	c0.7-1,1.3-2.2,1.8-3.3c0.7-1.8,1.7-3.6,2.7-5.2c0.1-0.2,0.2-0.3,0.3-0.5c0.1-0.3,0.3-0.6,0.5-0.8c0.3-0.3,0.5-0.7,0.6-1.2v-0.2
	c0.1-0.7,0.4-1.4,0.8-2c0.4-0.5,0.6-1,0.6-1.6v-0.3c0-0.3,0.2-0.6,0.5-0.7c0.5-0.3,0.9-0.8,1.1-1.3c0.8-2,1.8-4,2.9-5.9
	c0.4-0.7,0.7-1.4,1-2.1c0.2-0.5,0.4-1,0.7-1.5c0.2-0.3,0.4-0.7,0.6-1c0.3-0.4,0.6-0.8,0.8-1.3c0.2-0.5,0.5-0.9,0.8-1.4
	c0.5-0.8,0.9-1.6,1.2-2.5c0.1-0.2,0.2-0.3,0.4-0.5c0.6-0.5,0.9-1.2,0.8-1.9c0-0.1,0-0.2,0-0.2c0.6-0.6,1-1.3,1.3-2.1
	c0.1-0.4,0.3-0.7,0.5-1.1c0.1-0.2,0.2-0.5,0.3-0.7c0-0.1,0-0.2,0.1-0.4l0.1-0.3c0.2-0.5,0.3-1,0.5-1.4c0.6-1.3,1.2-2.5,1.8-3.7
	c0.1-0.2,0.3-0.5,0.4-0.7c0.1-0.2,0.3-0.4,0.4-0.6c0.3-0.3,0.4-0.8,0.3-1.2c-0.2-0.6,0.1-1,0.5-1.6l0.1-0.2c0.3-0.4,0.5-0.8,0.6-1.3
	c0-0.6,0.3-1.1,0.7-1.6c1-1.3,1.6-2.8,1.5-4.5c0-0.8,0.4-1.6,0.9-2.1l0.2-0.2l0.1-0.1c0.2-0.2,0.4-0.4,0.4-0.7
	c0-0.8,0.3-1.5,0.8-2.1c0.3-0.4,0.5-0.9,0.7-1.3c0.3-0.7,0.7-1.3,1.2-1.8c0.5-0.4,0.9-1,1.1-1.7c0.3-1.2,0.9-2.3,1.7-3.3
	c0.2-0.2,0.3-0.5,0.4-0.8c0.1-0.2,0.1-0.3,0.2-0.4c0.2-0.4,0.5-0.8,0.7-1.1c0.6-1,1.2-1.9,2-2.7c0.5-0.5,1-1.2,1.4-1.8
	c0.3-0.6,0.7-1.1,1.2-1.6c0.5-0.6,0.9-1.3,1-2l0.1-0.4c0.2-0.5,0.3-0.7,0.7-0.8c0.5-0.2,1-0.6,1.3-1c1-1.4,1.9-2.8,2.8-4.2
	c0.2-0.3,0.3-0.6,0.3-1c-0.1-0.9,0.5-1.4,1.3-2.1c0.4-0.4,0.8-0.8,1.1-1.1c0.4-0.4,0.4-0.5,0.7-0.7c1-0.9,1.8-2.1,2.2-3.5
	c0.1-0.1,0.2-0.2,0.3-0.3c0.2-0.1,0.3-0.3,0.4-0.5c0.4-0.5,0.7-1.1,1-1.7c0.1-0.3,0.3-0.5,0.4-0.8c0.2-0.4,0.4-0.8,0.6-1.2
	c0.5-0.8,1.1-1.6,2-2.6c0.2-0.2,0.4-0.4,0.7-0.6l0.3-0.2c0.7-0.4,1.5-0.6,2.3-0.6c1.1,0,2.2-0.3,3.2-1l1.4-1l0.1,0.1
	c0.2,0.1,0.5,0.3,0.7,0.5c1,1.1,1.7,2.4,2.1,3.8c0.3,1.1,0.6,2.1,1.1,3.1l0.3,0.7c0.2,0.4,0.3,0.6,0.2,0.9c-0.1,0.4-0.2,0.8-0.2,1.2
	c0.1,0.7-0.1,1.4-0.6,1.8c-0.4,0.5-0.7,1.1-0.7,1.7c0,0.4-0.2,0.9-0.6,1.2c-0.8,0.6-1.2,1.6-1.2,2.6c0,0.5-0.2,0.9-0.5,1.3
	c-0.4,0.6-0.6,1.3-0.6,2c-0.1,0.9-0.1,1.7,0,2.6c0.1,0.4-0.1,0.7-0.3,1c-1.1,1.3-1.8,2.8-2,4.4c-0.1,1.2-0.7,2.3-1.6,3.1
	c-0.4,0.4-0.6,0.9-0.6,1.4c0,1.4-0.2,2.8-0.7,4.2c-0.2,1-0.2,2,0,2.9c0.3,1.5,0.3,3,0.1,4.5c0,0.1,0,0.2,0,0.3
	c-0.6,0.9-0.8,2-0.5,3.1l0.1,0.4c0.1,1.3-0.3,2.6-1,3.7c-0.4,0.4-0.7,0.9-0.7,1.5c-0.1,0.6-0.2,0.9-0.7,1l-0.3,0.1l-0.4,1.1
	c-0.2,0.7-0.4,1.3-0.6,2c-0.1,0.8-0.5,1.6-1,2.2c-0.2,0.3-0.4,0.5-0.5,0.9c0,0.1-0.1,0.2-0.1,0.3c0,0.1-0.1,0.2-0.1,0.3
	c0,0.1-0.1,0.2-0.1,0.3c-0.8,0.5-1.2,1.5-1,2.4c0.2,0.9,0,1.9-0.7,2.6c-0.2,0.2-0.4,0.5-0.5,0.8c-0.2,1-0.5,1.9-1,2.8
	c-0.5,1-0.9,2-1,3.1c-0.1,0.4-0.2,0.8-0.5,1.1c-0.8,0.7-1.2,1.7-1.2,2.8c0,0.6-0.2,1.1-0.6,1.6c-0.2,0.2-0.4,0.5-0.4,0.8
	c-0.2,0.4-0.3,0.8-0.4,1.2s-0.3,0.9-0.5,1.3c0,0.1-0.1,0.1-0.1,0.2c-0.9,0.7-1.5,1.7-1.7,2.8c-0.3,0.8-0.7,1.5-1.3,2.1
	c-0.5,0.5-0.9,1.2-1,1.9c-0.1,0.3-0.2,0.6-0.5,0.9c-1.1,1-1.8,2.3-2.2,3.7c-0.2,0.8-0.6,1.5-1.1,2.1l-0.2,0.3
	c-0.6,0.9-1.3,1.8-2,2.7l-0.1,0.2c-0.1,0.2-0.3,0.3-0.4,0.5c-0.7,0.6-1.1,1.5-1.3,2.4l-0.2,0.2c-0.1,0.1-0.3,0.3-0.4,0.4l-0.1,0.2
	c-0.3,0.4-0.4,0.8-0.4,1.2c0,0.4-0.2,0.8-0.6,1c-1.2,0.9-2,2.2-2.2,3.6c-0.1,1.5-0.9,2.8-2.1,3.7c-0.3,0.2-0.5,0.4-0.6,0.8
	c-0.1,0.6-0.2,1.1-0.3,1.7c-0.1,0.6-0.2,1-0.3,1.4c0,0.3-0.1,0.6-0.3,0.9l-0.4,0.6c-0.5,0.6-0.9,1.3-1.1,2.1
	c-0.1,0.2-0.2,0.3-0.4,0.4c-0.7,0.4-0.9,0.9-0.5,1.5l0.1,0.1l0.2,0.1c0.5,0.2,1.1,0.4,1.6,0.4c0.7,0,1.4-0.2,2.1-0.4
	c1.5-0.4,3-0.8,4.5-1.1l1.5-0.3c1-0.2,2-0.4,2.9-0.5l1.1-0.2c0.1,0,0.2,0,0.3,0c0.4,0.1,0.9,0.1,1.3,0.1c1.4,0,2.8-0.2,4.2-0.6
	c0.5-0.1,1-0.2,1.4-0.3c1.2-0.2,2.3-0.3,3.5-0.4c1.3-0.1,2.6-0.4,3.8-1c1.2-0.5,2.4-0.8,3.7-0.9h0.5c0.2,0,0.5,0,0.7-0.1
	c0.9-0.4,1.8-0.6,2.8-0.7l0.5-0.1c0.4,0,0.8-0.1,1.2-0.2c0.7-0.3,1.5-0.4,2.2-0.4c0.8,0,1.5,0.2,2.2,0.5c0.4,0.2,0.8,0.3,1.2,0.3
	c0.6,0,1.3-0.2,1.8-0.5c1.2-0.7,2.5-1,3.8-1.2c0.9,0,1.7-0.2,2.4-0.7c0.6-0.3,1.2-0.4,1.9-0.5l0.9-0.2l0.2,0c0.7,0,1.3-0.4,1.7-0.9
	l0.1-0.2l-0.1-0.2c-0.3-0.9-1-1.7-2-2.2c-1.1-0.5-2.2-1.1-3.3-1.6l-1.5-0.7c-0.1,0-0.1-0.1-0.2-0.1l-1.1-0.8c-1.4-1-2.8-2-4.2-3
	c-0.3-0.2-0.5-0.5-0.7-0.8l-0.1-0.1c-0.5-0.8-1.1-1.6-1.6-2.4l-0.1-0.1c-0.2-0.2-0.3-0.5-0.3-0.7c0-0.8-0.3-1.6-0.7-2.3
	c-0.5-1.1-0.8-2.3-0.7-3.5c0-0.5-0.2-0.9-0.4-1.3c-0.1-0.1-0.1-0.2-0.2-0.4c-0.1-0.2-0.1-0.3-0.2-0.4c-0.1-0.1-0.1-0.2-0.1-0.2
	c0-1.8-0.2-3.7-0.7-5.4V242c-0.1-0.4-0.1-0.6,0-0.6c0.4-0.9,0.5-1.8,0.3-2.8v-0.3c0-0.5,0.1-0.9,0.3-1.3c0.3-0.6,0.6-1.2,0.9-1.8
	l0.5-0.9c0.1-0.2,0.2-0.4,0.2-0.6c0.1-1.1,0.4-2.2,1-3.2c0.5-1,0.9-2.1,1.1-3.2c0.1-0.1,0.1-0.2,0.2-0.3c0.1-0.1,0.2-0.3,0.3-0.4
	c0.1-0.3,0.3-0.5,0.4-0.8s0.4-0.7,0.6-1.1l0.2-0.3c0.1-0.3,0.3-0.5,0.6-0.8c1-0.6,1.8-1.6,2-2.8c0.2-0.7,0.6-1.4,1.1-2
	c0.3-0.4,0.5-0.7,0.7-1.1c0.2-0.4,0.5-0.7,0.7-1.1c0.2-0.4,0.4-0.6,0.6-1c0.7-1.2,1.6-2.3,2.6-3.2c0.6-0.5,1.2-1.1,1.7-1.7
	c0.9-1,0.8-1.1,0-2.1c0-0.1-0.1-0.3-0.1-0.4c0-0.1,0.4-0.7,0.8-0.7h0.2h0.5c0.8,0.1,1.6-0.1,2.3-0.6c0.1-0.1,0.2-0.2,0.4-0.2
	c0.7-0.2,1.1-0.6,1.9-0.8l1.2-0.7c0,0.1,0.4,0.8,0.2,1c-0.2,0.2-0.4,0.7-0.7,1c-0.3,0.3-0.8,0.8-1.2,1.2s-1,0.9-1.5,1.3l-0.7,0.5
	c-0.1,0-0.2,0.1-0.2,0.2c-0.3,0.3-0.6,0.6-1,1c-0.6,0.7-1.3,1.3-2,1.8c-0.3,0.2-0.5,0.5-0.5,0.9c-0.2,0.9-0.8,1.8-1.5,2.3
	c-0.3,0.3-0.6,0.7-0.8,1.2l-0.2,0.3c-0.2,0.4-0.5,0.9-0.7,1.3c-0.4,1.1-1.1,2-1.9,2.9c-0.5,0.5-0.9,1.2-1.1,1.8l-0.2,0.4
	c-0.3,0.5-0.5,1.1-0.7,1.7c0,0-0.3,0.9-0.4,1c0,0.1-0.1,0.3-0.2,0.5c-0.1,0.2-0.1,0.2-0.1,0.3c0,0.1-0.1,0.3-0.2,0.4
	c-0.9,0.8-1.6,1.9-1.8,3.1l-0.2,0.5c-0.3,0.8-0.6,1.6-1,2.3c-0.6,1.2-0.8,2.5-0.6,3.8v0.2c0,0.2-0.1,0.3-0.1,0.5
	c0,0,0.1,0.1,0.1,0.1l0.2,0.2c0,0.2,0,0.4,0.2,0.5l0.2,0.2l0,0c0.4,0,0.5-0.3,1.1-0.6l0.1-0.1l0.1-0.1c0-0.1,1-1.5,1.3-2
	c0.2-0.5,0.2-1.1,0-1.7c-0.1-0.4-0.1-0.8,0-1.2c0.3-0.3,0.6-0.5,0.9-0.7c0.4-0.3,0.8-0.6,1.2-1c0.2-0.3,0.4-0.9-0.3-2.7
	c0.7-1,1.6-1.9,2.5-2.7l0.1-0.1v-0.2c0-0.6,0.2-1.1,0.4-1.6c0.4-0.4,0.9-0.8,1.4-1.2c0.9-0.7,1.8-1.5,2.6-2.3c0.5-0.9,1-1.7,1.3-2.7
	c0.4-1.1,1-2.2,1.7-3.2c0.8-0.6,3.7-2.8,3.7-2.8l2.6-2.8l1.8-2.9l2.7-4.6c0.6-0.6,0.9-1.3,1.1-2.1c0.2-1.1,1-2,2-2.4
	c0.3-0.1,0.5-0.3,0.7-0.5c0.6-0.8,1.3-1.4,2.1-1.8c0.4-0.2,0.7-0.4,1.1-0.6l0,0c1.3-0.4,2.4-1.3,2.9-2.5c0.3-0.5,0.6-0.9,1-1.3
	c0.2-0.2,0.3-0.4,0.4-0.7c0.1-0.3,0.1-0.7-0.1-0.9c-0.2-0.3-0.6-0.1-1-0.1h-0.1c-0.3,0-0.6,0.1-0.9,0.2c-0.2,0.1-0.4,0.1-0.6,0.1
	c-0.8-0.2-1.5-0.4-2.3-0.6c-0.1,0,1-0.4,0.9-0.4c0.7-0.1,3.5-0.6,3.5-0.6c0.3-0.1,0.7-0.2,1-0.3l0.8-0.2c1-0.4,2-0.5,3-0.9
	c0.6-0.3,1.1-0.6,1.6-1.1c0.3-0.3,0.7-0.4,1.1-0.4c0.1,0,0.2,0,0.4,0c0.4,0.1,0.8,0.1,1.2,0.1c0.6,0,1.2,0.1,1.7,0.3
	c0.2,0.1,0.4,0.1,0.6,0.1c0.4,0,0.9-0.1,1.3-0.3c0.9-0.3,1.7-0.6,2.6-1c0.7-0.3,1.4-0.4,2.1-0.4c0.3,0,0.6,0,0.9,0.1
	c0.1,0,0.3,0,0.4,0c0.5,0,1-0.1,1.4-0.4c0.7-0.4,1.5-0.6,2.3-0.6c0.2,0,0.4,0,0.6,0c0.2,0,0.6,0,0.9,0h1h1h0.6
	c0.8,0,1.6,0.2,2.3,0.5c0.5,0.2,1,0.3,1.5,0.3c0.3,0,0.6,0,0.8-0.1c0.5-0.1,0.9-0.1,1.4-0.1c0.3,0,0.5,0,0.8,0h0.3
	c0.3,0,0.7-0.1,1-0.3c0.3-0.3,0.7-0.4,1.1-0.4c0.3,0,0.6,0,0.9,0.1c0.2,0,0.4,0.1,0.7,0.1c0.5,0.1,1.1,0.2,1.6,0.4l0.3,0.1
	c0.3,0.1,0.6,0.2,0.8,0.4c0.5,0.5,1.2,0.8,1.9,0.8c0.2,0.1,0.4,0.2,0.5,0.4c0.6,0.9,1.5,1.7,2.5,2.1c0.6,0.3,1,0.8,1.1,1.4
	c0.2,0.7,0.5,1.5,0.9,2.2c0.8,1.5,1.6,3,2.4,4.6l0.1,0.3c0,0.2,0.1,1.7,0.1,3c0.2,3.9,0.2,4.3,0.4,4.6c0.2,0.2,0.2,0.9,0.2,1.4
	c-0.1,0.8,0.1,1.5,0.5,2.2l0.2,0.2h0.3c1-0.2,1.7-1,1.8-2c0.3-1.5,0.7-3,1.2-4.5c0.2-0.6,0.4-1,0.2-1.4c-0.2-0.7-0.1-1.4,0.3-2
	c0.2-0.4,0.3-0.8,0.4-1.2c0.1-0.4,0.1-1.1,0.2-1.8c0.1-0.7,0.2-1.7,0.2-2.1c0.2-0.9,0.4-1.9,0.5-2.8l0.2-1.3c0-0.1,0-0.1,0-0.2
	c0-0.1,0-0.1,0-0.2c0.5-0.6,0.8-1.2,0.9-2c0-0.2,0.1-0.5,0.2-0.7c0.3-0.9,0.7-1.8,1-2.7l0.5-1.3c0-0.1,0.1-0.2,0.1-0.3
	c0.2-0.3,0.3-0.7,0.3-1.1c0-0.9,0.2-1.7,0.7-2.5c0.2-0.3,0.3-0.7,0.5-1c0.3-0.7,0.6-1.5,0.9-2.2c0.3-0.7,0.7-1.6,1-2.4
	c0.1-0.3,0.2-0.6,0.2-0.8c0-0.2,0-0.3,0.1-0.5l0-0.2c0-0.1,0.1-0.3,0.1-0.4c0.7-0.5,1.1-1.3,1.1-2.1c0.1-0.2,0.2-0.4,0.3-0.6
	l0.1-0.2l0.1-0.1c0.1-0.1,0.3-0.2,0.3-0.4l0.1-0.3c0.6-1.2,1.2-2.3,1.7-3.5c0.1-0.2,0.2-0.5,0.3-0.7c0.1-0.4,0.3-0.8,0.5-1.1
	c0.3-0.3,0.4-0.7,0.3-1.1v-0.5c0-1.1,0.2-2.2,0.8-3.2c0.2-0.4,0.4-0.8,0.4-1.2c0-0.2,0.1-0.4,0.1-0.5c0.1-0.3,0.2-0.7,0.3-1
	c0.1-0.4,0.5-0.6,0.9-0.6c0.3,0,0.5,0.1,0.7,0.2l0.3,0.2c0.2,0.1,0.4,0.3,0.6,0.5c0.2,0.2,0.3,0.4,0.4,0.6c-0.1,0.7,0,1.3,0.2,2
	c0.2,0.4,0.2,0.8,0.3,1.2c0,0.5,0.5,0.9,1,1.2c1.1,0.6,1.6,1.2,1.6,2.1c0.1,1.4,1.4,2,2.1,2.2l0.5,0.2c0.4,0.1,0.9,0.3,1.2,0.6
	c0.2,0.2,0.4,0.3,0.7,0.4h0.1c0.6,0.2,1.1,0.7,1.1,1.3c-0.1,1.1,0.2,2.2,0.7,3.2c0.3,0.6,0.1,0.7-0.2,0.9c-0.6,0.3-1,1-0.9,1.7
	c0,0.6,0,1.1,0.1,1.7c0.1,0.6,0,0.9,0,1.4c0,0.5,0,0.6,0.1,1c0.1,0.5,0.1,1,0.1,1.5c0,0.7-0.1,1.4-0.2,2l-0.1,0.8
	c-0.1,0.7-0.2,1.4-0.3,2.2c-0.3,1.2-0.4,2.5-0.4,3.8c0,0.6-0.1,1.3-0.2,1.9c-0.1,0.4-0.1,0.7-0.2,1.1v0.3c-0.1,0.7-0.1,1.4-0.1,2.1
	c0,0.2-0.1,0.4-0.2,0.6c-0.3,0.5-0.3,1-0.1,1.5l-0.8,4.6c0,0.1,0,0.2-0.1,0.3c-0.1,0.3-0.1,0.6-0.1,0.9c0.2,0.9,0,1.9-0.6,2.6
	c-0.6,0.8-0.6,1.9,0.2,2.6c0,0.7,0.1,1.5,0.2,2.2c0.3,1,0.3,2.1,0.1,3.1c-0.3,0.9-0.1,2,0.5,2.8c0.4,0.6,0.3,1.3-0.1,1.9
	c-0.5,0.8-0.7,1.8-0.5,2.7c0.1,0.4,0.1,0.7,0.1,1.1v0.5c0,0.4,0.1,0.8,0.1,1.1c0.1,0.9,0.2,1.7,0.2,2.6c0,0.7,0,1.4-0.1,2l-0.1,0.9
	c0,0.2,0,0.5-0.1,0.7c-0.1,0.5-0.1,1-0.1,1.5c0,1.8-0.2,3.5-0.7,5.2l-0.2,0.8c-0.3,1.4-0.3,2.8-0.2,4.1l0.1,1.1l0.8-0.8
	c0.3-0.3,0.6-0.6,0.9-0.9c1.4-1.2,2.6-2.7,3.4-4.3c0.3-0.6,0.7-1.2,1.2-1.8l0.5-0.6c0.1-0.2,0.2-0.3,0.3-0.5
	c0.2-0.4,0.4-0.7,0.8-0.8s0.5-0.5,0.6-0.9v-0.1c0.1-0.7,0.5-1.4,1.1-1.8c0.2-0.1,0.8-0.5,0.8-1.1c0-0.6,0.3-1.2,0.8-1.6
	c0.2-0.3,0.5-0.5,0.6-0.9c0.2-0.3,0.4-0.7,0.5-1c0.1-0.2,0.2-0.4,0.3-0.6c0.1-0.2,0.2-0.4,0.4-0.6c0.2-0.2,0.4-0.4,0.6-0.7
	c0.4-0.4,0.7-0.8,1-1.3c0.7-1.1,1.3-2.1,2-3.2c0.4-0.7,0.8-1.4,1.3-2.1c0.1-0.2,0.3-0.3,0.5-0.4l0.7-0.5c0.4-0.3,0.8-0.5,1.2-0.8
	c0.3-0.3,0.5-0.7,0.6-1.2c0.1-0.9,0.6-1.8,1.3-2.3c0.3-0.2,0.5-0.5,0.7-0.9c0.5-0.8,1-1.6,1.5-2.4c0.2-0.3,0.3-0.6,0.4-1
	c0.2-1.5,1.3-2.2,3.1-2.9c0.9-0.3,1.7-1.1,2-2c0.3-0.7,0.7-1.3,1.2-1.8l0.5-0.7c0.7-1,1.5-2,2.2-3.1c0.1-0.2,0.3-0.4,0.4-0.6
	l0.4-0.4l0.1-0.1c0.2-0.2,0.3-0.4,0.4-0.7c0.1-0.5,0.3-0.9,0.7-1.2c0.1-0.2,0.3-0.3,0.4-0.5c0.1-0.2,0.5-0.6,0.7-0.9
	c0.9-1,1.6-2.1,2.1-3.4c0.1-0.1,0.1-0.2,0.2-0.3c0.1-0.1,0.1-0.2,0.2-0.2l0.4-0.6l0.9-1.1l0.2-0.3l0.1-0.2l4-5.5l0.1-0.2
	c0,0,0.1-0.1,0.1-0.1c0.7-0.4,1.3-1.1,1.7-1.8c0.2-0.3,0.3-0.5,0.5-0.8c0.4-0.5,0.8-1,1.3-1.5c0.4-0.5,0.6-0.7,0.9-1.1
	c0.3-0.4,0.6-0.8,0.9-1.3c0.6-1.1,1.4-2,2.4-2.7c1.3-1.1,2.2-2.5,2.8-4h0.1l0.9-0.2c1.2-0.1,2.3-0.8,3-1.8c0.3-0.4,0.7-0.7,1-1
	c0.2-0.2,0.5-0.4,0.7-0.6c0.3-0.3,0.6-0.6,0.8-1c0.3-0.4,0.6-0.8,0.8-1.3l0.7-1.4c0.2-0.4,0.4-0.9,0.7-1.3c0.1-0.2,0.3-0.5,0.4-0.7
	c1.3-1,2.3-2.3,3.1-3.8c0.3-0.7,0.7-1.3,1.1-1.9c0.5-0.6,1-1.4,1.4-2.1c0.3-0.7,0.7-1.3,1.1-1.9c0.2-0.4,0.7-0.7,1.2-0.8l1,0.1
	c0.1,0,0.4,0.7,0.4,0.8c0.1,0.3,0.1,0.7,0,1l-0.5,2.1c0,0,0,0.1,0,0.1c-0.8,0.6-1.6,1.3-2.2,2.2c-0.5,0.8-1.1,0.6-1.5,1.9
	c-0.2,0.4-0.4,0.8-0.6,1.2l-0.2,0.4l-0.1,0.2c-0.2,0.3-0.3,0.6-0.4,1c-0.1,0.4-0.2,0.8-0.4,1.1c-0.1,0.4-0.2,0.8-0.4,1.2
	c-0.2,0.7-0.5,1.4-0.8,2c-0.8,1.5-1.4,2.8-0.2,3.9l0.5,0.5l0.4,0.3c0.4,0.4,1,0.6,1.5,0.6c0.2,0,0.4,0,0.6-0.1c0.1,0,0.3,0,0.4,0
	c0.7,0,1.3,0.5,1.5,1.2c0.2,0.6,0.1,1.3-0.4,1.8c-0.6,0.5-1,1.2-1.3,2c-0.1,0.3-0.3,0.5-0.4,0.8c-0.5,0.9-1.1,1.8-1.8,2.7
	c-0.5,0.6-0.7,1.3-0.5,2.1c0.2,0.7,0.2,1.5,0,2.2l-0.1,0.5c0,0.1,0,0.2-0.1,0.3l-0.7,1.1c-0.3,0.5-0.6,1-0.9,1.5
	c-0.1,0.3-0.2,0.5-0.3,0.8c-0.2,1.2-0.7,2.3-1.6,3.1c-0.8,0.6-1.3,1.5-1.5,2.5c-0.2,0.5-0.4,1-0.8,1.5c-0.1,0.2-0.3,0.4-0.4,0.7
	c-0.1,0.2-0.3,0.4-0.4,0.7c-0.2,0.4-0.5,0.8-0.7,1.2c-0.3,0.7-0.3,1.5,0.2,2.1c0.1,0.1,0.2,0.2,0.2,0.3l-2.3,4
	c-0.2,0.2-0.3,0.4-0.4,0.6c0,1-0.7,1.6-1.5,2.4c-0.3,0.3-0.6,0.6-0.9,0.9c-0.3,0.3-0.5,0.7-0.6,1.1c-0.1,0.2-0.1,0.3-0.2,0.5
	l-0.1,0.3c-0.1,0.2-0.2,0.4-0.4,0.6c-1.4,1.1-2.4,2.5-3,4.2c0,0.1-0.1,0.2-0.1,0.3c0,0.2-0.1,0.3-0.2,0.5c-0.8,0.7-1.3,1.6-1.4,2.7
	c-0.1,0.9-0.6,1.7-1.3,2.3c-0.3,0.2-0.5,0.4-0.6,0.7c-0.2,0.6-0.7,1.2-1.2,1.6c-0.2,0.1-0.3,0.3-0.5,0.5c-0.6,1.1-1.1,2.3-1.7,3.5
	c-0.1,0.2-0.2,0.3-0.2,0.5c-0.2,0.7-0.6,1.3-1.1,1.8c-0.3,0.3-0.6,0.7-0.6,1.1c-0.1,0.7-0.5,1.4-1.1,1.9c-0.3,0.3-0.5,0.6-0.7,0.9
	c-0.1,0.1-0.1,0.2-0.2,0.3l-0.3,0.5c-0.2,0.3-0.4,0.7-0.6,1c-1,1.3-1.7,2.7-2.2,4.3c-0.1,0.3-0.2,0.6-0.4,0.9
	c-0.4,0.7-0.8,1.3-1.1,2c-0.1,0.1-0.1,0.2-0.2,0.3c-0.1,0.2-0.2,0.4-0.4,0.6c-0.6,0.5-1,1.2-1.1,2c-0.1,1.1-0.7,2.2-1.7,2.7
	c-0.4,0.2-0.7,0.5-0.8,0.9c-0.3,0.6-0.8,1.2-1.4,1.5c-1.2,0.7-1.8,2.1-1.5,3.5c0.1,0.7-0.1,1.3-0.6,1.7c-0.3,0.4-0.6,0.8-0.7,1.3
	l-0.1,0.3c-0.1,0.3-0.2,0.6-0.3,1c-0.2,0.7-0.5,1.5-0.9,2.1c-0.6,0.9-1.1,1.9-1.6,2.9c-0.2,0.4-0.4,0.8-0.6,1.2
	c-0.1,0.2-0.2,0.5-0.1,0.7c0.1,0.6-0.1,1.1-0.7,1.4c-0.3,0.2-0.5,0.5-0.5,0.8c-0.1,0.7-0.4,1.4-0.8,2c-0.2,0.4-0.5,0.8-0.7,1.2
	c-0.3,0.7-0.8,1.3-1.3,1.8c-0.4,0.4-0.7,1-0.7,1.5c-0.1,2-0.3,2.4-1.8,3.7l-0.1,0.1v0.1c-0.1,0.3-0.2,0.6-0.4,1
	c-0.1,0.5-0.3,0.9-0.6,1.3c-0.7,0.9-1.1,2-1.4,3.1l-0.1,0.3c-0.1,0.3-0.2,0.6-0.4,0.9l-0.2,0.3c-0.1,0.3-0.3,0.5-0.4,0.8
	c-0.3,0.5-0.6,1.1-0.9,1.7l0,0.1c-0.2,0.5-0.3,0.8-0.7,1c-0.6,0.3-0.9,0.9-1,1.5c-0.1,0.4-0.3,0.7-0.5,0.9c-1.2,0.9-2.3,1.9-3.3,3
	c-0.5,0.6-1,1.1-1.6,1.6c-0.3,0.3-0.6,0.5-0.8,0.8c-0.1,0.1-0.2,0.2-0.3,0.3c0,0.1-0.4,0.5-0.6,0.7c-0.3,0.4-0.7,0.7-1,1.1
	c-0.6,0.4-0.9,1-0.9,1.7c0,0.3-0.1,0.5-0.5,0.8l-0.8,0.6c-0.5,0.4-1,0.8-1.5,1.2c-0.4,0.2-0.8,0.4-1.2,0.5c-2.2,0.5-4.3,1.4-6.1,2.7
	c-0.4,0.4-1,0.6-1.6,0.7c-0.9,0.2-1.7,0.7-2.4,1.3c-0.2,0.2-0.4,0.4-0.6,0.5c-0.3,0.2-0.5,0.4-0.7,0.7c-0.2,0.2-0.4,0.5-0.7,0.6
	c-0.6,0.4-1.2,0.7-1.9,0.8c-0.8,0.1-1.5,0.2-2.3,0.2h-1h-0.3c-1.3-0.1-2.6,0.4-3.5,1.2c-0.1,0.1-0.3,0.2-0.4,0.2
	c-0.1,0-0.2,0-0.3-0.1c-0.7-0.3-1.4-0.6-2.1-1l-0.4-0.2c-1.2-0.6-2.4-1.2-3.6-1.8c-0.9-0.5-1.7-1.2-2.4-2c-0.4-0.4-0.7-0.7-1.1-1
	c-0.3-0.3-0.7-0.7-1-1l-0.2-0.2c-0.1-0.1-0.2-0.2-0.3-0.3c-0.2-0.9-0.7-1.7-1.4-2.2l-0.3-0.3c-0.3-0.4-0.5-0.8-0.4-1.3
	c0-0.8,0-1.7,0.1-2.5c0.2-1.5,0.1-3-0.1-4.5c-0.2-1.4-0.1-2.8,0.3-4.1c0.1-0.1,0.1-0.3,0.1-0.4c-0.1-1.2,0-2.4,0.4-3.5
	c0.2-0.9,0.4-1.8,0.5-2.7c0.1-1.7,0.2-3.3,0.3-4.9c0.1-0.9,0.2-1.8,0.3-2.8c0.2-1.3,0.3-2.6,0.4-3.9c0.1-2,0.3-4.1,0.7-6.1
	c0.1-0.6,0.2-1.3,0.3-2c0.2-1.3,0.4-2.6,0.6-3.8c0.2-1.2,0.3-2.5,0.3-3.7c0-0.7,0.2-1.4,0.4-2c0.2-0.5,0.3-1,0.1-1.5
	c-0.3-0.5-0.2-1.1,0.2-1.6c0.5-0.7,0.7-1.5,0.6-2.3c-0.1-0.6,0.1-1.3,0.3-1.8c0.2-0.6,0.3-1.3,0.3-2c0-0.3,0-0.5,0-0.8v-0.4l-1-0.3
	l-0.2,0.3l-0.3,0.3c-0.2,0.3-0.5,0.5-0.7,0.8c-2,3.2-4.4,6.2-7,8.9c-0.9,0.9-1.9,1.7-2.9,2.4c-0.5,0.4-1,0.7-1.4,1.1
	c-0.2,0.1-0.3,0.2-0.5,0.4c-0.4,0.3-0.8,0.6-1.2,1c-2.2,2.4-4.6,4.5-7.2,6.4l-0.2,0.2c-0.8,0.6-1.5,1.2-2.1,1.9l-0.9,0.8
	c-0.2,0.1-0.3,0.3-0.4,0.5c-0.3,0.8-1.1,1.4-2.1,1.5l-0.4,0.1v0.4c0,1.3-0.8,2-2,2.6c-0.3,0.2-0.5,0.3-0.8,0.6
	c-0.1,0.1-0.3,0.3-0.5,0.4c-0.5,0.3-1,0.6-1.6,0.8c-0.8,0.2-1.4,0.7-1.5,1.5c-0.1,0.8-0.6,1.2-1.7,1.6l-0.6,0.2
	c-1,0.2-2,0.7-2.8,1.4c-0.2,0.1-0.4,0.1-0.6,0.1h-0.3c-0.6,0-1.2,0.4-1.5,1c-0.5,1.1-1.5,1.3-2.7,1.6l-0.4,0.1
	c-0.4,0.1-0.9,0.2-1.4,0.3l-0.8,0.1l-0.4,0.1c-0.2,0.1-0.4,0.1-0.5,0.1h-0.3c-1.3,0-2.6,0.4-3.7,1.1c-1,0.5-2.1,0.7-3.3,0.6h-0.7h-1
	h-0.2c-0.5,0-1-0.2-1.3-0.5c-0.9-0.8-1.9-1.2-3.1-1.4l-0.6-0.1l-0.1,0.5c0,0.8-0.3,1.6-0.9,2.1l-0.3,0.3c-0.2,0.2-0.5,0.4-0.7,0.6
	c-0.1,0-0.1,0.1-0.2,0.1c-0.2,0.1-0.4,0.2-0.5,0.4c-0.9,1-1.9,1.8-3,2.5l-1.2,0.8c-0.5,0.3-1.1,0.4-1.7,0.4c-0.8,0-1.6,0.2-2.2,0.7
	c0,0-0.1,0.1-0.2,0.1c-1.7,0.1-1.9,1.4-2,2.3c-0.1,0.5-0.3,0.9-0.5,1.3l-0.2,0.4c0,0.1-0.1,0.1-0.1,0.1c-0.7,0.1-1.3,0.5-1.8,1
	l-0.4,0.3c-1,0.7-2.1,1.3-3.3,1.8l-1,0.4c-1.5,0.7-3,1.2-4.6,1.6c-0.4,0.1-0.7,0.3-1,0.6c-0.1,0.1-0.3,0.2-0.5,0.3
	c-0.6,0.3-1.1,0.6-1.6,1c-0.6,0.5-1.4,0.9-2.2,1.2c-0.9,0.2-1.7,0.5-2.4,1c-0.5,0.4-1,0.1-1.6,0.3c-0.2,0-0.7-0.2-0.9-0.2
	c-0.4,0.1-0.8,0.4-1.3,0.5c-0.4,0.1-0.7,0.4-1,0.4c-0.9,0.1-1.7,0.5-2.3,1.1c-0.4,0.5-0.9,0.8-1.5,1c-1.2,0.4-2.4,0.8-3.6,1.2
	c-0.3,0.1-0.6,0.3-0.9,0.5c-0.2,0.1-0.3,0.2-0.5,0.3c-0.4,0.2-0.8,0.4-1.2,0.5l-0.3,0.1c-0.7,0.1-1.4,0.4-2,1h-0.1
	c-0.8,0-1.5,0.3-2.2,0.6c-0.5,0.3-1,0.4-1.5,0.5c-0.4,0.1-0.8,0.2-1.1,0.5c-0.6,0.4-1.3,0.7-2.1,0.6c-0.5,0-1,0.1-1.5,0.1
	c-0.7,0.1-1.4,0.1-2.1,0.1c-0.8,0-1.6,0.4-2.2,1c-0.3,0.2-0.6,0.4-0.9,0.5l-0.5,0.2c-1.2,0.5-2.5,0.8-3.8,0.9
	c-1,0.1-1.9,0.3-2.8,0.5C134.4,308.5,134.2,308.6,134.1,308.7z M213.1,239.6c-0.1,0.1-0.1,0.3-0.3,0.4c-1.2,1.2-1.6,2.4-1.1,3.4
	l0.2,0.5c0.4,0.9,1,2.1,2.3,2.2h0.3c0.3,0,0.6,0.1,0.8,0.1c0.8,0,1.5-0.4,2.1-0.9l1-0.8c1-0.9,2.1-1.7,3.2-2.4
	c0.5-0.3,1-0.6,1.5-0.8c1-0.3,1.8-1,2.3-1.8l3.3-4.9c1.2-1.8,2.4-3.7,3.4-5.7c0.5-0.9,0.9-1.9,1.2-2.9c0.6-1.6,1.3-3.2,2.2-4.7
	c0.2-0.3,0.4-0.6,0.5-0.7c0.1,0.1,0.3,0.2,0.4,0.2c0.4,0,0.6-0.4,0.8-0.7c0.4-0.7,0.4-0.7,0.6-0.8c0.5-0.3,0.9-0.6,1.2-1
	c0.9-0.9,1.4-2,1.4-3.2l0,0l0.2,0.2h0.5V215c0.5,0.6,1.2,0.9,2,1c0.5,0,1-0.3,1.1-0.8c0.6-1.2,1.2-2.3,2-3.3c0,0,2.4-2.3,2.8-4.9
	c0.1-0.5,0.2-1,0.3-1.4c0.3-1.6,0.6-3.2-0.4-4.3c0.1-0.3,0.2-0.5,0.2-0.8c0-0.3,0-0.6-0.1-0.8c0-0.1,0-0.2,0-0.3
	c-0.1-1.1-0.9-1.9-2-1.9c-0.3,0-0.7,0.1-1,0.2l-0.3,0.1c-0.2,0.1-0.4,0.1-0.6,0.2c-0.3-0.1-0.7-0.2-1-0.2c-0.7,0-1.4,0.3-2,0.7
	c-0.1,0.1-0.3,0.1-0.5,0.1c-0.8,0.1-1.6,0.6-2.1,1.2c-1,1-1.9,1.9-2.9,2.8l-0.8,0.7l-0.6,0.6l-0.7,0.7l-0.4,0.3
	c-0.4,0.4-0.8,0.8-1.1,1.2c-0.3,0.4-0.6,0.7-1.1,1c-0.5,0.3-1,0.7-1.2,1.3c-0.4,0.8-0.9,1.5-1.6,2c-0.3,0.2-0.6,0.5-0.8,0.8
	l-0.2,0.2c-0.1,0.1-0.2,0.3-0.3,0.4c-0.1,0.2-0.3,0.4-0.4,0.6c-0.2,0.2-0.4,0.5-0.6,0.7c-0.4,0.6-1,1-1.7,1.3
	c-0.2,0.1-0.3,0.2-0.4,0.3l-0.5,0.7c-0.5,0.5-0.9,1.1-1.3,1.7c-0.8,1.3-1.5,2.6-2.1,4c-0.4,1.1-1.2,2.1-2.1,2.8
	c-1.3,1-2.2,2.5-2.6,4.1c0,0.1-0.1,0.3-0.1,0.4c0,0.2-0.1,0.4-0.2,0.6c-1,0.8-1.6,2-1.7,3.3v0.2c0,0.1-0.1,0.3-0.2,0.4l-0.1,0.1
	c-0.6,1.1-1.2,2.4-0.2,3.8c-0.1,0.1-0.2,0.2-0.3,0.4c-0.6,0.5-0.8,1.2-0.5,1.9l0.2,0.4L213.1,239.6z M227.7,204.6l-0.8,0.3
	c-0.1,0.1-0.3,0.1-0.4,0.2c-0.2,0.1-0.3,0.2-0.5,0.2c-1.8,0.2-3.3,1.3-4.1,2.9c-0.6,1-1.5,1.9-2.6,2.4c-1.4,0.6-2.6,1.9-3.1,3.3
	c-0.3,1.3-1,2.6-2,3.5c-0.2,0.2-0.3,0.4-0.3,0.6c0,0.1,0,0.1-0.1,0.2l-0.1,0.4l0.4,0.2c0.3,0.1,0.2-0.1,0.5-0.1c0.3,0,0.7-0.1,1-0.2
	c0.1,0,0.2-0.1,0.2-0.1c0.3-0.1,0.6-0.2,1-0.4c0.3-0.1,0.7-0.3,1.1-0.4c0.9-0.2,1-0.7,1.4-1.6c0.1-0.3,0.2-0.5,0.3-0.8
	c0.4-1,0.9-2,1.7-2.8l0.3-0.3c0.5-0.6,1.1-1.1,1.8-1.5c0.6-0.3,1.1-0.8,1.4-1.3c0.6-1,1.3-1.9,2.2-2.7l0.2-0.1
	c0.5-0.5,1.3-0.9,1.5-2.1l0.4-0.6L227.7,204.6z"/>
<path class="st0" d="M342.8,297.3c0,0-0.1-0.1-0.2-0.4c-0.2-0.6-0.2-1.3,0-1.9c0.4-1,0.1-1.4-0.8-1.9c-0.9-0.5-0.9-0.5-0.6-1.3
	c0.4-1.1-0.1-2.3-1.2-2.8c0,0,0,0-0.1,0c-0.3-0.2-0.6-0.2-1-0.3c-0.5,0-1,0.3-1.3,0.8c-0.1,0.1-0.2,0.3-0.2,0.4
	c-0.1,0.1-0.1,0.3-0.2,0.4c-0.1,0.1-0.2,0.2-0.3,0.3c0-0.1,0-0.2,0-0.3c0-0.9-0.5-1.5-1.7-1.8c-0.6-0.2-1.2-0.3-1.7-0.5
	c-0.5-0.2-1-0.4-1.5-0.6c-0.5-0.2-0.5-0.4-0.5-0.5c0-0.2,0.1-0.3,0.6-0.4c1.3-0.3,2.5-0.9,3.5-1.9c1.2-1.1,2.5-2.3,3.9-3.7
	c0.8-0.8,1.3-1.9,1.2-3.1c0-0.4,0-0.9,0-1.3c0-0.4,0-0.6,0-0.9c-0.1-0.7-0.3-1.3-0.8-1.8c-0.5-0.7-0.6-1-0.4-1.2
	c1.2-1.2,2-2.7,2.3-4.3c0-0.5,0-1-0.1-1.5c-0.2-0.5-0.2-1,0-1.5c0.5-1,0.6-2.1,0.2-3.2c-0.2-0.6-0.2-1.2,0.1-1.7
	c0.2-0.5,0.1-1-0.1-1.4c-0.1-0.3-0.2-0.5-0.2-0.7c0.6-1,0.9-2.2,0.7-3.4c-0.2-1.2,0.3-2.4,1.2-3.2c0.3-0.3,0.3-0.8,0.1-1.2
	c0-0.1-0.1-0.2-0.1-0.3c1.1-1.3,1.7-2.9,1.7-4.6c-0.1-1.6,0.3-3.1,1.2-4.5c0.5-0.8,0.7-1.7,0.6-2.6c-0.1-0.5,0.1-1.1,0.5-1.4
	c0.4-0.5,0.5-1.2,0.3-1.8c-0.1-0.3-0.1-0.7-0.1-1c0.4-1.1,0.9-2.2,1.6-3.2c0.7-1.1,1.2-2.2,1.7-3.4c0.1-0.1,0.7-0.3,1.1-0.4
	c1-0.4,1.8-0.6,1.7-1.2c0-1.8,0.5-3.5,1.2-5.2c0.5-1.3,1-2.5,1.6-3.7c0.3-0.6,0.6-1.3,0.8-1.9c0.4-0.7,0.9-1.3,1.5-1.8
	c1-1,2-1.9,2-3c-0.1-2.1,1.8-4,3.7-5.9c1-0.9,1.7-2.2,1.8-3.6c0.1-0.7,0.3-1.3,0.8-1.8c1-1.2,1.4-2.8,1-4.3l-0.1-0.4
	c-0.1-0.2-0.1-0.5-0.2-0.7c-0.3-1-0.1-2.1,0.4-3l0.2-0.3c0.4-0.7,0.7-1.3,1-2l0.2-0.4c0.3-0.6,0.6-1.2,0.8-1.9
	c0.3-1.1,0.8-2.1,1.5-2.9c0.8-0.9,1.2-2,1.2-3.2c-0.1-1.2,0.4-2.4,1.2-3.2c0.3-0.3,0.5-0.6,0.6-1c0.2-0.7,0.6-1.3,1.1-1.8
	c0.2-0.2,0.4-0.4,0.5-0.6c0.4-0.5,0.7-0.6,0.8-0.6c0.4,0.1,0.7,0.2,1,0.5c0.3,0.3,0.8,0.5,1.2,0.5c0.9-0.1,1.7-0.7,2-1.6
	c0.1-0.5,0.3-0.9,0.7-1.3c0.2-0.2,0.3-0.4,0.5-0.7c0.1-0.2,0.4-0.4,0.6-0.4l0.3,0.1c0.4,0.1,0.8,0.2,1.2,0.2c0.7,0,1.4-0.2,2.1-0.6
	c0.2-0.1,0.4-0.2,0.6-0.2c0.3,0,0.5,0.1,0.8,0.3c0.6,0.3,0.6,0.6,0.4,1c-0.4,0.6-0.2,1.5,0.5,1.9c0.1,0,0.1,0.1,0.2,0.1
	c0.3,0.1,0.5,0.2,0.8,0.2c0.6,0,1.1-0.2,1.6-0.5c0.4-0.3,0.9-0.6,1.4-1l0.2-0.1l0.3,1.1l0.2,0.1c0.2,0.1,0.3,0.1,0.5,0.2h0.1
	l4.5-0.9l0.4-0.1l0.5-0.1h0.2c2-0.2,3.9-0.5,5.8-0.7c0.6-0.1,1.1-0.1,1.7-0.1l1.2-0.1c1-0.1,2.1-0.4,3.1-0.8
	c0.3-0.1,0.6-0.2,0.9-0.3c0.6-0.2,1.1-0.3,1.7-0.4l1.3-0.3c0.4-0.1,0.8-0.2,1.2-0.3c1.6-0.4,3.3-0.7,5-0.6c0.7,0,1.3,0.1,2,0.3
	c0.8,0.4,1.7,0.5,2.6,0.3h0.3c0.4,0,0.7,0.1,1.1,0.2l0.6,0.2c0.7,0.3,1.5,0.4,2.2,0.5c0.2,0,0.5,0,0.7,0c0.2,0,0.4,0,0.5,0
	c0.6,0,1.1,0.1,1.7,0.2l1.1,0.2c1,0.2,1.9,0.3,2.9,0.4c0.5,0,1.1,0,1.6-0.1c0.1,0,0.3,0,0.4,0c0.5,0,1.1,0.2,1.6,0.4v0.1
	c-0.2,0.4-0.3,0.9-0.1,1.3c0.3,0.4,0.7,0.6,1.1,0.8c0.2,0.1,0.3,0.1,0.5,0.2c0.1,0.1,0.3,0.2,0.4,0.3c0.4,0.8,1.2,1.4,2.1,1.5
	l0.2,0.1l0,0h-0.4c-0.6,0.1-1.3,0.2-1.9,0.4c-0.8,0.3-1.6,0.5-2.4,0.6c-0.8,0-1.5,0.2-2.2,0.6c-0.8,0.4-1.7,0.7-2.6,0.8
	c-0.6,0.1-1.2,0.3-1.7,0.6c-0.4,0.3-0.9,0.5-1.4,0.6l-0.2,0.1c-0.5,0.1-1.1,0.3-1.6,0.5l-0.4,0.2c-0.6,0.2-1.2,0.5-1.8,0.7
	c-1.2,0.6-2.4,1-3.7,1.2c-1.3,0.1-2.7,0.4-4,0.7l-1.1,0.2c-0.4,0.1-3.3,0.8-3.8,0.9c-0.5,0.1-2.3,0.7-2.3,0.7
	c-0.8,0.3-1.7,0.5-2.6,0.7c-1.8,0.4-3.5,1-5.2,1.8c-0.4,0.2-0.8,0.3-1.3,0.3c-0.3,0.1-0.7,0.1-1,0.2c-1.4,0.4-2.9,0.9-4.3,1.3
	c-0.7,0.2-1.1,0.9-1,1.5c0,0.2,0,0.4,0,0.6c0,0.3,0,0.7,0,1c0.1,0.4,0.2,0.9,0.4,1.3c0,0.1,0.1,0.2,0.1,0.3
	c-0.3,0.2-0.5,0.4-0.8,0.5c-1,0.4-1.5,1.4-1.3,2.4c0.1,0.5,0,1.1-0.4,1.6c-0.6,0.9-0.8,2-0.4,3c0.3,0.6,0.3,1.3,0,1.8
	c-0.1,0.2-0.2,0.5-0.2,0.7c0,0.9-0.2,1.7-0.7,2.4c-0.3,0.5-0.3,1.2-0.2,1.8c0.1,0.6,0,0.9-0.6,1c-0.7,0.1-1.2,0.7-1.1,1.4
	c0,0,0,0,0,0.1c0.1,1.1-0.2,2.2-0.7,3.1c-0.1,0.2-0.3,0.8-0.3,0.8l-0.5,1.3c0,0.1-0.1,0.2-0.1,0.2c0,0,0,0.1,0,0.1
	c-0.7,0.7-1,1.7-0.9,2.7c0,0.3,0,0.6,0,0.9c0,0.6,0.3,1.1,0.8,1.3c0.2,0.1,0.4,0.1,0.6,0.1c0.4,0,0.8-0.1,1.2-0.3
	c0.6-0.5,1.3-0.7,2.1-0.7h0.2c0.6-0.1,1.2-0.3,1.8-0.5l0.4-0.2c0.4-0.2,0.8-0.3,1.3-0.5c0.6-0.2,1.1-0.5,1.7-0.7
	c0.2-0.1,0.4-0.1,0.6-0.1c0.2,0,0.4,0.1,0.8,0.4c0.7,0.8,1.8,1.2,2.8,1.3c0.9,0,1.8-0.2,2.5-0.7c0.7-0.4,1.5-0.7,2.4-0.7
	c0.9,0,1.8-0.2,2.7-0.4c0.3-0.1,0.7-0.1,1.1-0.1c0.5,0,1.1,0.1,1.6,0.3c0.1,0,0.3,0.1,0.4,0c0.3,0,0.6,0,1.1,0s1,0,1.4,0h0.4
	c0.6,0.6,1.4,0.9,2.2,1c0.2,0,0.3,0,0.5,0h0.2c0.2,0,0.3,0,0.5,0.1c0.3,0.1,0.6,0.1,0.9,0.1c0.6,0,1.1-0.1,1.6-0.3
	c0.3-0.1,0.6-0.2,1-0.2c0.2,0,0.9,0,0.8,1.2c0,0.2,0,0.3,0,0.5c0,0.3,0,0.6,0,0.9c0,1,0.6,1.9,1.4,2.4l-0.2,0.1
	c-0.6,0.5-1.4,0.8-2.1,0.9c-0.7,0.1-1.4,0.3-2.1,0.6c-0.4,0.1-0.8,0.3-1.2,0.4c-0.9,0.2-2.5,0.6-4,1c-1.5,0.4-2.8,0.6-3.6,0.9
	c-0.6,0.2-1.3,0.4-1.9,0.7c-1.1,0.5-2.3,1.1-3.3,1.8c-0.9,0.4-1.9,0.7-2.9,0.9l-0.6,0.1c-0.9,0.1-1.7,0.4-2.5,0.8
	c-0.5,0.3-0.9,0.4-1.5,0.5c-0.9,0.1-1.8,0.5-2.5,1.1c-0.4,0.3-0.9,0.5-1.4,0.5l-0.6,0.1c-1.4,0.1-2.8,0.5-4.1,1.1
	c-0.9,0.4-1.8,0.8-2.7,1c-0.4,0.1-0.9,0.3-1.3,0.4l-0.6,0.2c-1.9,0.6-3.8,1.3-5.6,2.2c-0.6,0.2-1,0.7-1.2,1.3
	c-0.1,0.2-0.1,0.3-0.3,0.4c-0.6,0.5-0.8,1.2-0.5,1.9c0.2,0.5,0.1,0.9-0.5,1.5c-0.6,0.6-1.1,1.4-1.3,2.2l-0.4,1.1
	c-0.6,1.8-1.4,3.5-2.5,5c-0.2,0.3-0.3,0.5-0.4,0.8c0,0.1-0.1,0.2-0.1,0.4c-0.1,0.3-0.2,0.5-0.4,0.8c-0.2,0.4-0.4,0.8-0.6,1.2
	l-0.2,0.4c-0.3,0.5-0.4,1-0.5,1.5c0,1-0.3,2-0.9,2.9c-0.1,0.3-0.3,0.5-0.4,0.8c-0.1,0.3-0.2,0.6-0.2,0.9c0,0.2-0.1,0.3-0.1,0.5
	l-0.2,0.8l0.9-0.2l0.9-0.2c0.5-0.1,1.1-0.3,1.6-0.5c0.6-0.3,1.2-0.5,1.8-0.6c1-0.3,2-0.8,2.8-1.4c0.7-0.4,1.5-0.7,2.4-0.9l0.7-0.2
	c0.9-0.2,1.9-0.6,2.7-1.1c0.7-0.3,1.4-0.6,2.1-0.8l1-0.3l0.8-0.3l3.4-1.3c0.3-0.1,0.5-0.2,0.8-0.2l0.7-0.2c0.5-0.2,1.1-0.4,1.6-0.5
	l0.4-0.2c0.1-0.1,0.2-0.1,0.3-0.1c1.3-0.1,2.6-0.6,3.7-1.4c0.5-0.3,1-0.5,1.6-0.5c1.1-0.2,2.2-0.6,3.2-1.2c1.1-0.7,2.4-1.1,3.8-1.3
	c0.5-0.1,1-0.2,1.4-0.4c0.5-0.3,1-0.4,1.6-0.4c0.3,0,0.7,0.1,1,0.1c0.2,0.1,0.5,0.1,0.7,0.1c0.5,0,1.1-0.1,1.6-0.4
	c0.4-0.2,0.8-0.3,1.2-0.3c1.5,0,3-0.5,4.1-1.5c0.2-0.1,0.4-0.2,0.5-0.2h0.4c1,0,2-0.2,2.9-0.7c0.7-0.3,1.4-0.5,2.2-0.5h0.3h0.4
	c1,0,2-0.2,3-0.5c1-0.3,2-0.5,3-0.7c0.5-0.1,1-0.2,1.5-0.3l0.3-0.1c0.4,0,0.9-0.2,1.2-0.4c0.8-0.5,1.7-0.8,2.7-0.7
	c0.2,0,0.4,0,0.7-0.1h0.2c0.4,0,0.9-0.1,1.3-0.2c0.6-0.2,1.3-0.4,2-0.4c0.3,0,0.5,0,0.8,0.1c0.2,0.1,0.3,0.1,0.5,0.1
	c0.1,0,0.3,0,0.4,0c0.2,0,0.4-0.1,0.6,0c0.7,0.1,1.4,0.4,2,0.9c0.3,0.3,0.7,0.5,1,0.6c0.7,0.2,1,0.4,1.2,0.8
	c0.3,0.5,0.9,0.8,1.5,0.8h0.2c0.4,0,0.7,0.1,1.1,0.1c0.4,0,0.8,0.2,1.1,0.6c0.1,0.3,0.1,0.7,0,1c-0.2,0.5-0.4,1-0.4,1.6
	c-0.2,1.7,0.7,2.6,2.9,2.8l0,0c-1.5,0.4-2.9,1-4.3,1.9c-0.5,0.3-1.1,0.5-1.7,0.5h-0.4h-0.4c-0.8,0-1.6,0.2-2.2,0.8
	c-0.3,0.3-0.8,0.5-1.3,0.6l0,0c-0.4,0-0.8,0.1-1.1,0.3c-1.7,1-3.5,1.6-5.4,1.9c-0.3,0-0.5,0.1-0.7,0.2c-1,0.5-2.1,0.9-3.2,1.2
	c-0.8,0.3-1.5,0.8-2,1.5c-0.6,1.1-1.7,1.5-3.2,2c-0.6,0.2-1.2,0.3-1.7,0.4c-0.6,0.1-1,0.2-1.4,0.3h-0.2c-0.9,0.3-1.8,0.4-2.7,0.4
	c-1.1,0-2.1,0.4-2.8,1.1c-0.5,0.5-1.1,0.8-1.8,1c-0.5,0.1-1,0.3-1.4,0.7c-0.5,0.5-1.3,0.8-2,0.8c-0.3,0-0.5,0-0.8-0.1l-0.4-0.1
	c-0.3-0.1-0.6-0.1-0.9-0.2c-0.3,0-0.5,0-0.7,0c-0.3,0-0.7,0-1,0.1l-0.3,0.1c-1,0.3-1.9,0.6-2.8,1.1c-0.8,0.5-1.7,0.8-2.6,1.1
	l-0.7,0.3c-0.4,0.1-0.8,0.3-1.2,0.4c-0.7,0.2-1.4,0.4-2,0.7c-1.3,0.6-2.6,1.1-3.9,1.5l-1.2,0.4c-1,0.4-2,0.8-3,1.3l-1.4,0.6
	l-0.2,0.1c-0.1,0.1-0.3,0.1-0.4,0.2c-0.1,0-0.3,0-0.4,0c-1.1,0-2.1,0.4-2.9,1c-0.3,0.2-0.5,0.3-0.8,0.5c-1.1,0.6-2.4,1-3.6,1.1
	c-0.4,0-0.9,0.1-1.3,0.3c-0.8,0.4-1.7,0.8-2.5,1.1l-1.7,0.8l-0.8,0.4c-0.8,0.4-1.7,0.8-2.5,1.1c-0.9,0.3-1.8,0.5-2.7,0.5
	c-0.8,0-1.6,0.3-2.1,0.9c-0.3,0.3-0.8,0.6-1.2,0.7c-0.8,0.1-1.6,0.5-2.3,1.1c-0.1,0.1-0.2,0.1-0.3,0.2l-0.9,0.4
	c-0.7,0.3-1.4,0.6-2.1,0.8c-1.2,0.3-2.4,0.8-3.5,1.4l-1.1,0.5c-0.5,0.3-1,0.6-1.5,1l-0.6,0.4l-0.1,0.1c-0.7,0.7-1.6,1-2.6,1.1
	c-0.2,0-0.4,0-0.6-0.1c-0.2,0-0.4-0.1-0.6-0.1c-1,0-2,0.3-2.9,0.9c-0.7,0.4-1.4,0.6-2.2,0.7c-0.6,0.1-1.1,0.4-1.5,0.8
	c-1.1,1.1-1.9,2.5-2.4,4.1c-0.1,0.4-0.3,0.5-0.4,0.5c-0.8,0.1-1.5,0.6-1.9,1.3C343.2,297.1,343.1,297.2,342.8,297.3L342.8,297.3
	L342.8,297.3z"/>
</svg>
